<?xml version="1.0" encoding="UTF-8" standalone="no"?>
<!-- Created with Inkscape (http://www.inkscape.org/) -->

<svg
   width="200"
   height="76"
   viewBox="0 0 52.916665 20.108333"
   version="1.1"
   id="svg1"
   sodipodi:docname="agenzia-immobiliare-valcalepio-logo-dark.svg"
   inkscape:version="1.3.1 (9b9bdc1480, 2023-11-25, custom)"
   xmlns:inkscape="http://www.inkscape.org/namespaces/inkscape"
   xmlns:sodipodi="http://sodipodi.sourceforge.net/DTD/sodipodi-0.dtd"
   xmlns="http://www.w3.org/2000/svg"
   xmlns:svg="http://www.w3.org/2000/svg">
  <sodipodi:namedview
     id="namedview1"
     pagecolor="#ffffff"
     bordercolor="#000000"
     borderopacity="0.25"
     inkscape:showpageshadow="2"
     inkscape:pageopacity="0.0"
     inkscape:pagecheckerboard="0"
     inkscape:deskcolor="#d1d1d1"
     inkscape:document-units="mm"
     inkscape:zoom="3.3857922"
     inkscape:cx="98.056815"
     inkscape:cy="47.847"
     inkscape:window-width="1850"
     inkscape:window-height="1016"
     inkscape:window-x="70"
     inkscape:window-y="27"
     inkscape:window-maximized="1"
     inkscape:current-layer="layer1"
     showgrid="false" />
  <defs
     id="defs1" />
  <g
     inkscape:label="Livello 1"
     inkscape:groupmode="layer"
     id="layer1">
    <path
       id="text1"
       style="font-size:8.1139px;font-family:Blippo;-inkscape-font-specification:Blippo;fill:#434e5e;stroke-width:0.264583"
       d="m 3.6080485,7.4248699 c -0.6166558,0 -1.1090827,0.1864167 -1.4769124,0.5596557 C 1.7687155,8.3577646 1.5875,8.8553926 1.5875,9.4774577 v 3.4891933 h 1.6309082 v -1.29036 H 3.6566243 V 10.256738 H 3.2184082 V 9.4774577 c 0,-0.124413 0.029898,-0.2268525 0.0894,-0.3079915 0.064911,-0.086548 0.1540895,-0.1302246 0.267684,-0.1302246 0.1081852,0.00541 0.1864444,0.051428 0.2351277,0.1379761 0.054093,0.086548 0.081132,0.1866456 0.081132,0.30024 V 12.966651 H 5.5226603 V 9.4774577 C 5.5226603,8.904076 5.3443037,8.4202261 4.9872925,8.02535 4.6356905,7.6250647 4.1760209,7.4248699 3.6080485,7.4248699 Z M 49.706527,8.3416098 c -0.632884,0 -1.209288,0.3733502 -1.728577,1.1198283 -0.51388,0.7464779 -0.770496,1.5306209 -0.770496,2.3528289 0,0.703204 0.167438,1.225529 0.502812,1.566312 0.335374,0.335375 0.684544,0.502812 1.046965,0.502812 0.459787,0 0.873438,-0.162236 1.241268,-0.486792 0.373238,-0.324556 0.646491,-0.689845 0.819588,-1.09554 0.173096,-0.411104 0.300233,-0.802917 0.381372,-1.176156 0.08655,-0.378649 0.129708,-0.746798 0.129708,-1.103809 0,-0.3137373 -0.04316,-0.6623904 -0.129708,-1.0464479 -0.08655,-0.3840576 -0.232665,-0.5761923 -0.438216,-0.5761923 -0.08114,0 -0.15134,0.021838 -0.21084,0.065112 -0.05409,0.037865 -0.151848,0.118983 -0.292489,0.243396 l -0.251147,0.2185914 -0.113688,0.097668 c 0.01082,-0.048683 0.02408,-0.1246003 0.04031,-0.2273763 0.02164,-0.102776 0.03256,-0.1890953 0.03256,-0.2594157 0,-0.075729 -0.02418,-0.1274659 -0.07286,-0.1545125 -0.04327,-0.027047 -0.105414,-0.040308 -0.186552,-0.040308 z m -21.339783,0.024288 c -0.854664,0 -1.511669,0.4055908 -1.971456,1.21698 -0.454378,0.8059803 -0.681612,1.6688983 -0.681612,2.5884733 0,0.432741 0.102956,0.822211 0.308508,1.168404 0.210961,0.340783 0.516455,0.51108 0.91674,0.51108 0.503062,0 0.951812,-0.210597 1.346688,-0.63252 0.400285,-0.427331 0.60048,-0.88986 0.60048,-1.387512 0,-0.108183 -0.05694,-0.181241 -0.170532,-0.219108 -0.108185,-0.04327 -0.226746,-0.06511 -0.356567,-0.06511 -0.189325,0 -0.3383,0.0299 -0.446485,0.0894 -0.102778,0.0541 -0.170635,0.110515 -0.203088,0.170015 -0.03246,0.05409 -0.07562,0.138071 -0.129708,0.251665 -0.04868,0.113597 -0.09704,0.194716 -0.145728,0.243396 -0.04327,0.04327 -0.100211,0.06511 -0.170532,0.06511 -0.08655,0 -0.143485,-0.04316 -0.170532,-0.129708 -0.02705,-0.09196 -0.04031,-0.194914 -0.04031,-0.308508 0,-0.335375 0.105299,-0.797903 0.31626,-1.387513 0.216371,-0.5896095 0.432686,-0.8841838 0.649056,-0.8841838 0.04868,0 0.08664,0.016121 0.113688,0.048576 0.02705,0.032456 0.04031,0.070414 0.04031,0.1136881 0,0.010819 -0.01326,0.064897 -0.04031,0.162264 -0.02164,0.091957 -0.03256,0.1483777 -0.03256,0.1700157 0,0.108185 0.04316,0.178901 0.129708,0.211356 0.08655,0.03245 0.197565,0.04858 0.332796,0.04858 0.29751,0 0.510966,-0.07592 0.640788,-0.227376 0.135232,-0.156869 0.203088,-0.3864449 0.203088,-0.6893635 0,-0.3407835 -0.08918,-0.6140363 -0.267684,-0.8195882 C 28.959251,8.4688541 28.702118,8.3658977 28.366744,8.3658977 Z m 14.312821,0.032556 c -0.259644,0 -0.549017,0.03224 -0.868164,0.097152 -0.319146,0.059502 -0.540663,0.1515392 -0.665075,0.2759522 -0.119004,0.1190037 -0.216242,0.3030783 -0.291972,0.5519043 -0.07032,0.248826 -0.105937,0.4680001 -0.105937,0.6573242 0,0.1135946 0.04602,0.1780756 0.137976,0.1943036 0.03246,0.0054 0.07042,0.0031 0.113688,-0.0078 0.04327,-0.01623 0.09215,-0.03521 0.146245,-0.05684 l 0.291972,-0.1136883 -0.259416,0.9818513 c -0.178505,0.649112 -0.33034,1.20602 -0.454753,1.671217 -0.119004,0.459785 -0.178283,0.722118 -0.178283,0.787032 0,0.140642 0.102956,0.24074 0.308508,0.30024 0.205552,0.05409 0.408088,0.08113 0.608231,0.08113 0.119001,0.01082 0.202978,-0.0082 0.251665,-0.05684 0.05409,-0.04868 0.09439,-0.129803 0.121439,-0.243396 0.02705,-0.113595 0.05174,-0.221753 0.07338,-0.324528 l 0.429948,-1.776636 -0.0083,0.219108 c 0,0.09196 0.0057,0.192055 0.01654,0.30024 0.01082,0.102776 0.02694,0.194813 0.04858,0.275952 0.02164,0.08114 0.08378,0.12144 0.186552,0.12144 0.124413,0 0.286649,-0.0403 0.486792,-0.12144 0.200142,-0.08114 0.408397,-0.197873 0.624768,-0.349333 0.21637,-0.151459 0.424625,-0.394813 0.624768,-0.730188 0.200142,-0.335374 0.30024,-0.678825 0.30024,-1.030427 0,-0.5409265 -0.178356,-0.9602954 -0.535368,-1.2578047 C 43.732012,8.5469121 43.263766,8.3984538 42.679565,8.3984537 Z m -27.408662,0.00827 c -0.119006,0 -0.194407,0.037442 -0.22686,0.1131714 -0.02705,0.07573 -0.04082,0.1867461 -0.04082,0.3327962 l 0.0083,0.4950602 -0.01654,1.1523845 0.03256,2.14974 v 0.187068 c 0,0.07573 0.0029,0.172968 0.0083,0.291972 0.0054,0.119002 0.01347,0.211039 0.02429,0.275952 0.01623,0.06491 0.08122,0.127052 0.19482,0.186552 0.119004,0.0595 0.246141,0.110723 0.381372,0.153996 0.135232,0.03787 0.270429,0.05684 0.40566,0.05684 0.06491,0 0.12419,-0.01612 0.178284,-0.04858 0.05409,-0.03246 0.10817,-0.09225 0.162264,-0.1788 0.05409,-0.09196 0.186947,-0.319192 0.397908,-0.681612 0.210961,-0.36783 0.465235,-0.832701 0.762744,-1.395264 0.297509,-0.567973 0.529945,-1.054682 0.697632,-1.460376 0.167689,-0.4056947 0.281048,-0.7007858 0.340548,-0.8847006 0.06491,-0.1839149 0.09767,-0.3053337 0.09767,-0.3648357 0,-0.1135943 -0.119076,-0.2032894 -0.357084,-0.2682006 -0.232598,-0.064911 -0.432793,-0.097152 -0.60048,-0.097152 -0.113594,0 -0.197571,0.029898 -0.251664,0.0894 -0.04868,0.054093 -0.0947,0.1432709 -0.137976,0.2676839 l -0.599964,1.541508 -0.535884,1.257805 0.09767,-1.8097093 c 0.0054,-0.1190038 0.01062,-0.2565429 0.01602,-0.4134115 0.0054,-0.1622778 0.0083,-0.3411512 0.0083,-0.5358846 0,-0.097367 -0.0351,-0.1675659 -0.10542,-0.2108398 -0.07032,-0.048683 -0.165216,-0.083783 -0.28422,-0.1054199 l -0.340548,-0.065112 c -0.02164,0 -0.05959,-0.0052 -0.113688,-0.01602 -0.04868,-0.010819 -0.116541,-0.01602 -0.203088,-0.01602 z m 8.641333,0 c -0.156867,0 -0.254106,0.029381 -0.291972,0.088883 -0.03786,0.054093 -0.08388,0.1812294 -0.137976,0.3813721 l -0.30024,1.0144084 -0.576193,2.0691248 c -0.01623,0.07573 -0.04326,0.191947 -0.08113,0.348816 -0.03787,0.15146 -0.05684,0.273395 -0.05684,0.365352 0,0.102776 0.04082,0.221336 0.121957,0.356568 0.08114,0.135231 0.173176,0.279005 0.275952,0.430464 0.102776,0.146053 0.197155,0.235231 0.283703,0.267684 0.08655,0.03245 0.208484,0.04858 0.365353,0.04858 h 0.121439 l 0.584461,0.01602 h 0.429948 c 0.113594,0 0.20849,-0.01092 0.28422,-0.03256 0.07573,-0.02705 0.14021,-0.08347 0.194303,-0.170016 0.05409,-0.09196 0.113888,-0.259912 0.178801,-0.503328 0.07032,-0.243417 0.10542,-0.421774 0.10542,-0.535368 0,-0.0595 -0.02184,-0.09746 -0.06511,-0.113688 -0.03787,-0.01623 -0.09429,-0.02429 -0.170016,-0.02429 h -0.09767 l -0.397392,0.0083 -0.7953,-0.0083 0.203088,-0.795301 0.6165,-2.1822957 c 0.01623,-0.059502 0.04847,-0.1653172 0.09715,-0.3167765 0.04869,-0.1568686 0.07338,-0.2730863 0.07338,-0.3488159 0,-0.07032 -0.04602,-0.1296004 -0.137976,-0.1782837 -0.08655,-0.048684 -0.211343,-0.091843 -0.373621,-0.1297079 -0.162277,-0.037865 -0.313594,-0.056844 -0.454235,-0.056844 z m 10.937833,0 c -0.156867,0 -0.254622,0.029381 -0.292488,0.088883 -0.03786,0.054093 -0.08388,0.1812294 -0.137977,0.3813721 l -0.30024,1.0144084 -0.575675,2.0691248 c -0.01623,0.07573 -0.04326,0.191947 -0.08113,0.348816 -0.03787,0.15146 -0.05684,0.273395 -0.05684,0.365352 0,0.102776 0.0403,0.221336 0.12144,0.356568 0.08114,0.135231 0.173176,0.279005 0.275952,0.430464 0.102776,0.146053 0.197672,0.235231 0.28422,0.267684 0.08655,0.03245 0.207967,0.04858 0.364836,0.04858 h 0.121956 l 0.583944,0.01602 h 0.429948 c 0.113594,0 0.208491,-0.01092 0.28422,-0.03256 0.07573,-0.02705 0.140727,-0.08347 0.19482,-0.170016 0.05409,-0.09196 0.113371,-0.259912 0.178284,-0.503328 0.07032,-0.243417 0.10542,-0.421774 0.10542,-0.535368 0,-0.0595 -0.02132,-0.09746 -0.0646,-0.113688 -0.03786,-0.01623 -0.0948,-0.02429 -0.170532,-0.02429 h -0.09715 l -0.397908,0.0083 -0.795301,-0.0083 0.203089,-0.795301 0.6165,-2.1822957 c 0.01623,-0.059502 0.04898,-0.1653172 0.09767,-0.3167765 0.04869,-0.1568686 0.07286,-0.2730863 0.07286,-0.3488159 0,-0.07032 -0.04602,-0.1296004 -0.137976,-0.1782837 -0.08655,-0.048684 -0.210826,-0.091843 -0.373104,-0.1297079 -0.162278,-0.037865 -0.313595,-0.056844 -0.454236,-0.056844 z m 3.74034,0.00775 -0.7953,0.016536 c -0.04869,0.00541 -0.09705,0.016328 -0.145727,0.032556 -0.04868,0.010819 -0.09236,0.0402 -0.130225,0.088883 -0.03786,0.043274 -0.100004,0.2031682 -0.186552,0.4790405 -0.08114,0.2758724 -0.12144,0.4570879 -0.12144,0.5436361 0,0.059501 0.01898,0.1026612 0.05684,0.1297079 0.03787,0.027046 0.08623,0.040308 0.145728,0.040308 l 0.203088,0.016536 -0.227376,0.8113198 h -0.07286 c -0.167684,0 -0.283902,0.06214 -0.348816,0.186552 -0.0595,0.119004 -0.111239,0.262261 -0.154512,0.429949 -0.03787,0.167687 -0.05684,0.321863 -0.05684,0.462504 0,0.07573 0.01898,0.12981 0.05684,0.162264 0.04327,0.02705 0.105413,0.04602 0.186552,0.05684 l -0.218592,0.957564 -0.01654,0.129708 c 0,0.07032 0.01612,0.140519 0.04858,0.21084 0.03246,0.06491 0.07848,0.143687 0.137976,0.235644 0.06491,0.09196 0.13511,0.173076 0.21084,0.243396 0.07573,0.06491 0.173484,0.105213 0.292488,0.12144 0.124413,0.01623 0.261953,0.02429 0.413412,0.02429 h 0.462504 c 0.14605,0.0054 0.289824,0.0083 0.430465,0.0083 h 0.429947 c 0.102776,0 0.189096,-0.04316 0.259416,-0.129708 0.07573,-0.08655 0.135527,-0.213685 0.178801,-0.381372 0.04869,-0.167687 0.07286,-0.310945 0.07286,-0.429948 0,-0.06491 -0.01092,-0.118991 -0.03256,-0.162264 -0.01622,-0.04869 -0.05653,-0.08144 -0.121439,-0.09767 -0.0595,-0.02164 -0.119301,-0.03256 -0.178801,-0.03256 h -0.19482 -0.42168 l -0.567924,-0.01602 0.162264,-0.681612 1.087272,0.03256 0.235128,0.01602 c 0.06491,0 0.116646,-0.01898 0.154513,-0.05685 0.03786,-0.03786 0.08337,-0.113265 0.137459,-0.226859 0.05409,-0.113595 0.102971,-0.24359 0.146244,-0.38964 0.04869,-0.151459 0.07286,-0.294717 0.07286,-0.429949 0.01082,-0.09196 -0.0404,-0.151753 -0.153996,-0.1788 -0.113594,-0.02705 -0.297669,-0.04317 -0.551904,-0.04858 -0.248826,-0.0054 -0.465141,-0.0078 -0.649056,-0.0078 l -0.07286,-0.0083 c 0.04327,-0.124413 0.07031,-0.213591 0.08113,-0.267684 0.01623,-0.05409 0.02429,-0.116231 0.02429,-0.186552 0.0054,-0.05409 -0.02163,-0.10297 -0.08113,-0.1462439 l -0.25941,-0.129646 -0.170533,-0.081132 h 0.202572 l 0.454753,0.01602 0.884183,0.040824 0.267684,0.00775 c 0.09737,0 0.173283,-0.013261 0.227377,-0.040308 0.05409,-0.027046 0.105309,-0.094903 0.153995,-0.2030883 0.05409,-0.1081853 0.102971,-0.2457244 0.146245,-0.4134115 0.04868,-0.1676871 0.07286,-0.3138031 0.07286,-0.4382161 0,-0.1135949 -0.03796,-0.1843107 -0.113688,-0.2113566 -0.07032,-0.027047 -0.178477,-0.040308 -0.324528,-0.040308 l -0.40566,-0.01602 z m 7.659481,0 c -0.135229,0 -0.235327,0.021838 -0.30024,0.065112 -0.0595,0.037865 -0.110722,0.1241842 -0.153996,0.2594157 L 45.56001,9.4774577 c -0.07573,0.2434168 -0.183888,0.5925863 -0.324528,1.0469643 -0.140641,0.448969 -0.248799,0.83844 -0.324528,1.168405 -0.08655,0.308328 -0.170009,0.62474 -0.251148,0.949296 -0.08114,0.324556 -0.121956,0.535152 -0.121956,0.63252 0,0.162277 0.105298,0.284213 0.31626,0.365352 0.21637,0.07573 0.424625,0.113688 0.624768,0.113688 0.183916,0 0.305852,-0.01612 0.365352,-0.04858 0.0595,-0.03786 0.108378,-0.137962 0.146244,-0.30024 l 0.364836,-1.428336 0.714168,-2.5962249 c 0.02705,-0.091957 0.05695,-0.1920549 0.0894,-0.3002401 0.03787,-0.1081852 0.05633,-0.1921623 0.05633,-0.2516642 0,-0.1135945 -0.05122,-0.1975717 -0.153996,-0.2516643 -0.09737,-0.059502 -0.218786,-0.099802 -0.364835,-0.1214396 -0.14605,-0.027047 -0.295025,-0.040824 -0.446485,-0.040824 z m -25.412919,0.00827 c -0.156866,0 -0.267366,0.04316 -0.332279,0.1297078 -0.06491,0.081139 -0.124708,0.1731762 -0.178801,0.2759522 l -1.168404,2.2396573 -0.04858,0.09715 h -0.10542 c -0.124412,0 -0.221651,0.01378 -0.291972,0.04082 -0.06491,0.02164 -0.132767,0.09704 -0.203088,0.22686 -0.06491,0.129822 -0.118991,0.267878 -0.162264,0.413928 -0.03787,0.14064 -0.05684,0.297676 -0.05684,0.470772 0,0.119005 0.05694,0.186345 0.170532,0.202572 l -0.227376,0.519348 c -0.01082,0.02705 -0.02408,0.06215 -0.04031,0.10542 -0.01623,0.03787 -0.02429,0.07062 -0.02429,0.09767 0,0.08655 0.02132,0.156747 0.0646,0.21084 0.04327,0.05409 0.105413,0.102454 0.186552,0.145728 0.08655,0.04327 0.194705,0.08409 0.324528,0.121956 0.135231,0.03787 0.251966,0.05684 0.349332,0.05684 0.09736,0 0.170422,-0.03796 0.219109,-0.113688 0.05409,-0.07573 0.10817,-0.172968 0.162264,-0.291972 l 0.413411,-0.876432 h 0.365352 c 0.113594,0 0.197571,-0.0403 0.251665,-0.12144 0.05409,-0.08114 0.118573,-0.211134 0.194303,-0.38964 l -0.0646,1.151868 -0.0083,0.227376 c 0,0.183914 0.05694,0.302991 0.170532,0.357084 0.113595,0.05409 0.275831,0.08113 0.486792,0.08113 0.22719,0 0.386567,-0.03224 0.478524,-0.09715 0.09196,-0.07032 0.137976,-0.214094 0.137976,-0.430464 l 0.06511,-1.776636 -0.02429,-2.2882333 c 0,-0.1839149 -0.02184,-0.3300309 -0.06511,-0.4382161 -0.03786,-0.1081853 -0.156941,-0.1864445 -0.357084,-0.2351278 -0.200142,-0.048683 -0.3434,-0.078582 -0.429948,-0.0894 -0.08655,-0.016228 -0.170525,-0.024288 -0.251664,-0.024288 z m 10.937834,0 c -0.156867,0 -0.267883,0.04316 -0.332797,0.1297078 -0.06491,0.081139 -0.12419,0.1731762 -0.178283,0.2759522 l -1.168404,2.2396573 -0.04909,0.09715 h -0.10542 c -0.124412,0 -0.221651,0.01378 -0.291972,0.04082 -0.06491,0.02164 -0.132251,0.09704 -0.202571,0.22686 -0.06491,0.129822 -0.119508,0.267878 -0.162781,0.413928 -0.03787,0.14064 -0.05633,0.297676 -0.05633,0.470772 0,0.119005 0.05642,0.186345 0.170015,0.202572 l -0.22686,0.519348 c -0.01082,0.02705 -0.0246,0.06215 -0.04082,0.10542 -0.01623,0.03787 -0.02429,0.07062 -0.02429,0.09767 0,0.08655 0.02184,0.156747 0.06511,0.21084 0.04327,0.05409 0.105413,0.102454 0.186552,0.145728 0.08655,0.04327 0.194706,0.08409 0.324528,0.121956 0.135232,0.03787 0.25145,0.05684 0.348816,0.05684 0.09736,0 0.170422,-0.03796 0.219108,-0.113688 0.05409,-0.07573 0.108171,-0.172968 0.162264,-0.291972 l 0.413929,-0.876432 h 0.364835 c 0.113594,0 0.197571,-0.0403 0.251664,-0.12144 0.05409,-0.08114 0.119091,-0.211134 0.194821,-0.38964 l -0.06511,1.151868 -0.0078,0.227376 c 0,0.183914 0.05642,0.302991 0.170015,0.357084 0.113595,0.05409 0.275831,0.08113 0.486792,0.08113 0.227189,0 0.387083,-0.03224 0.479041,-0.09715 0.09196,-0.07032 0.137976,-0.214094 0.137976,-0.430464 l 0.06459,-1.776636 -0.02429,-2.2882333 c 0,-0.1839149 -0.02132,-0.3300309 -0.0646,-0.4382161 -0.03787,-0.1081853 -0.156942,-0.1864445 -0.357084,-0.2351278 -0.200143,-0.048683 -0.3434,-0.078582 -0.429948,-0.0894 -0.08655,-0.016228 -0.170526,-0.024288 -0.251664,-0.024288 z M 8.2325724,8.9338217 c -0.5301076,0 -0.9978373,0.1973358 -1.4035319,0.5922119 -0.4002853,0.3894668 -0.6004801,0.8496534 -0.6004801,1.3797614 0,0.519289 0.1570351,0.968039 0.4707723,1.346688 0.3137371,0.373239 0.727388,0.559656 1.2412679,0.559656 0.2001427,0 0.4055386,-0.03744 0.6164998,-0.113172 v -1.363224 c -0.1027759,0.0595 -0.2000144,0.0894 -0.2919718,0.0894 -0.1514593,0 -0.2785961,-0.05174 -0.3813721,-0.154512 -0.102776,-0.108186 -0.1539958,-0.237665 -0.1539958,-0.389124 0,-0.140641 0.054079,-0.265436 0.162264,-0.373621 0.1081853,-0.113595 0.2324631,-0.170016 0.3731039,-0.170016 0.1785056,0 0.3113603,0.05928 0.3979085,0.178284 0.091957,0.119004 0.1374593,0.267979 0.1374593,0.446485 v 1.62264 c 0,0.243417 -0.09152,0.448813 -0.2754354,0.6165 -0.1839148,0.173096 -0.4002299,0.259932 -0.649056,0.259932 -0.1622779,0 -0.3382922,-0.05174 -0.5276163,-0.154512 v 1.347204 c 0.2921001,0.09737 0.5383135,0.145728 0.7384562,0.145728 0.600428,0 1.1193775,-0.219174 1.5575277,-0.657324 0.4435594,-0.438151 0.6655924,-0.9571 0.6655924,-1.557528 v -1.62264 c 0,-0.562564 -0.205396,-1.0417293 -0.6164998,-1.4366054 C 9.2877706,9.1311575 8.8005449,8.9338217 8.2325724,8.9338217 Z M 49.820215,9.3720378 c 0.03787,0.1298223 0.06204,0.2598181 0.07286,0.3896403 0.01082,0.124413 0.01602,0.2596099 0.01602,0.4056599 0,0.308328 -0.04316,0.6276 -0.129708,0.957565 -0.08655,0.329965 -0.170525,0.578521 -0.251664,0.746208 -0.08114,0.162278 -0.167458,0.297474 -0.259415,0.40566 -0.09196,0.108185 -0.194914,0.162264 -0.308509,0.162264 -0.129824,0 -0.224203,-0.0702 -0.283703,-0.21084 -0.0595,-0.140641 -0.0894,-0.283898 -0.0894,-0.429948 0,-0.36783 0.08918,-0.746382 0.267684,-1.135848 0.178506,-0.394877 0.359721,-0.652009 0.543636,-0.771013 0.183912,-0.1190034 0.286869,-0.1920615 0.308509,-0.2191081 0.02705,-0.032456 0.04837,-0.083675 0.06459,-0.1539958 0.02163,-0.075729 0.03827,-0.124607 0.04909,-0.1462443 z M 42.598433,9.729122 c 0.167688,0 0.319522,0.0351 0.454753,0.1054199 0.135232,0.07032 0.202572,0.1836791 0.202572,0.3405481 0,0.200142 -0.07826,0.373298 -0.235128,0.519348 -0.15146,0.14605 -0.332675,0.243805 -0.543636,0.292489 l 0.04031,-0.121957 0.07338,-0.235128 c 0.04329,-0.124413 0.06746,-0.20839 0.07286,-0.251664 0.01082,-0.04868 0.01602,-0.09756 0.01602,-0.146244 0,-0.07032 -0.0351,-0.129601 -0.105419,-0.178284 -0.07032,-0.054092 -0.145721,-0.092051 -0.22686,-0.1136882 l -0.28422,-0.0894 -0.12144,-0.040308 c 0.232598,-0.054093 0.451256,-0.081132 0.656807,-0.081132 z m -21.688081,0.1539957 -0.0894,0.8113203 -0.04858,0.486792 -0.348815,-0.0078 0.194303,-0.51108 z m 10.937316,0 -0.0894,0.8113203 -0.04858,0.486792 -0.348816,-0.0078 0.194821,-0.51108 z M 12.241113,11.189499 c -0.248825,0 -0.462798,0.09724 -0.641304,0.291971 -0.178506,0.189324 -0.267684,0.408498 -0.267684,0.657325 0,0.254235 0.09204,0.473409 0.275952,0.657324 0.183914,0.183914 0.403088,0.275952 0.657324,0.275952 0.259645,0 0.481161,-0.08918 0.665076,-0.267684 0.189324,-0.183915 0.28422,-0.405948 0.28422,-0.665592 0,-0.259645 -0.09724,-0.481161 -0.291972,-0.665076 -0.189324,-0.189325 -0.416558,-0.28422 -0.681612,-0.28422 z" />
  </g>
</svg>
