<?xml version="1.0" encoding="UTF-8" standalone="no"?>
<!-- Created with Inkscape (http://www.inkscape.org/) -->

<svg
   width="200"
   height="76"
   viewBox="0 0 52.916665 20.108333"
   version="1.1"
   id="svg1"
   inkscape:version="1.3.1 (9b9bdc1480, 2023-11-25, custom)"
   sodipodi:docname="associazione-anastasis-logo-light.svg"
   xmlns:inkscape="http://www.inkscape.org/namespaces/inkscape"
   xmlns:sodipodi="http://sodipodi.sourceforge.net/DTD/sodipodi-0.dtd"
   xmlns="http://www.w3.org/2000/svg"
   xmlns:svg="http://www.w3.org/2000/svg">
  <sodipodi:namedview
     id="namedview1"
     pagecolor="#ffffff"
     bordercolor="#000000"
     borderopacity="0.25"
     inkscape:showpageshadow="2"
     inkscape:pageopacity="0.0"
     inkscape:pagecheckerboard="0"
     inkscape:deskcolor="#d1d1d1"
     inkscape:document-units="mm"
     inkscape:zoom="2.9077441"
     inkscape:cx="117.61695"
     inkscape:cy="96.294581"
     inkscape:window-width="1850"
     inkscape:window-height="1016"
     inkscape:window-x="70"
     inkscape:window-y="27"
     inkscape:window-maximized="1"
     inkscape:current-layer="layer1" />
  <defs
     id="defs1" />
  <g
     inkscape:label="Livello 1"
     inkscape:groupmode="layer"
     id="layer1">
    <path
       style="font-size:10.5833px;font-family:'Sansita One';-inkscape-font-specification:'Sansita One';fill:#ffffff;stroke-width:0.264583"
       d="m 2.5031099,13.493739 q -0.2434158,-0.275165 -0.3598321,-0.709081 -0.105833,-0.433915 -0.105833,-1.142996 0,-0.709081 0.2434159,-1.354662 0.2434158,-0.6455818 0.6879144,-1.111247 0.9101638,-0.9736635 2.4129923,-0.9736635 0.5397483,0 0.9313304,0.1799161 L 8.1228421,8.2020895 7.3396779,12.329576 q -0.03175,0.127 -0.03175,0.359833 0,0.232832 0.1375829,0.380998 0.1481662,0.148167 0.3598322,0.169333 -0.105833,0.359832 -0.4974151,0.571498 -0.3809988,0.211666 -0.8149141,0.211666 -0.4339153,0 -0.7302477,-0.169333 -0.2857491,-0.158749 -0.3704155,-0.433915 -0.1693327,0.264583 -0.5291649,0.433915 -0.3598322,0.169333 -0.846664,0.169333 -0.4762485,0 -0.8678306,-0.126999 -0.3915821,-0.127 -0.6455813,-0.402166 z M 4.7361862,9.1969196 Q 4.6197699,9.387419 4.5139369,9.7155013 4.4081039,10.033 4.2281878,10.900831 4.058855,11.758078 4.058855,12.37191 q 0,0.613831 0.09525,0.793747 0.09525,0.179916 0.2645825,0.179916 0.3386656,0 0.5820815,-0.317499 0.2539992,-0.328082 0.3492488,-0.89958 L 5.9109324,9.0275869 Q 5.6886831,8.8370875 5.4241006,8.8370875 q -0.2539991,0 -0.4127486,0.084666 -0.1481662,0.084666 -0.2751658,0.2751657 z m 8.4348718,4.8259844 q -1.280579,0 -1.280579,-0.99483 0.01058,-0.275166 0.09525,-0.740831 l 0.190499,-0.973663 q 0.285749,-1.3758294 0.285749,-1.6827451 0,-0.6138313 -0.359832,-0.6138313 -0.603248,0 -0.920747,1.5769114 L 10.556983,13.811238 8.4297402,14.022904 9.5304033,8.4031722 11.266064,8.2020895 11.096732,9.2392528 q 0.497415,-1.0371633 2.02141,-1.0371633 0.740831,0 1.047747,0.317499 0.317499,0.3069157 0.317499,1.0054134 0,0.6561651 -0.338666,2.1907431 -0.15875,0.687914 -0.15875,0.952497 0,0.253999 0.137583,0.402165 0.148167,0.148167 0.359833,0.169333 -0.105833,0.359832 -0.476249,0.571498 -0.359832,0.211666 -0.836081,0.211666 z m 2.614064,-0.529165 q -0.243416,-0.275165 -0.359832,-0.709081 -0.105833,-0.433915 -0.105833,-1.142996 0,-0.709081 0.243416,-1.354662 0.243416,-0.6455818 0.687914,-1.111247 0.910164,-0.9736635 2.412992,-0.9736635 0.539749,0 0.931331,0.1799161 L 21.404854,8.2020895 20.62169,12.329576 q -0.03175,0.127 -0.03175,0.359833 0,0.232832 0.137583,0.380998 0.148166,0.148167 0.359832,0.169333 -0.105833,0.359832 -0.497415,0.571498 -0.380999,0.211666 -0.814914,0.211666 -0.433915,0 -0.730248,-0.169333 -0.285749,-0.158749 -0.370415,-0.433915 -0.169333,0.264583 -0.529165,0.433915 -0.359832,0.169333 -0.846664,0.169333 -0.476249,0 -0.867831,-0.126999 -0.391582,-0.127 -0.645581,-0.402166 z M 18.018198,9.1969196 Q 17.901782,9.387419 17.795949,9.7155013 17.690116,10.033 17.5102,10.900831 q -0.169333,0.857247 -0.169333,1.471079 0,0.613831 0.09525,0.793747 0.09525,0.179916 0.264582,0.179916 0.338666,0 0.582082,-0.317499 0.253999,-0.328082 0.349249,-0.89958 l 0.560914,-3.1009071 q -0.222249,-0.1904994 -0.486831,-0.1904994 -0.254,0 -0.412749,0.084666 -0.148166,0.084666 -0.275166,0.2751657 z M 25.140741,10.0965 q 0.148166,-0.391582 0.148166,-0.7302476 0,-0.6244146 -0.507998,-0.6244146 -0.264582,0 -0.486832,0.2434159 -0.211666,0.2328325 -0.211666,0.5291649 0,0.211666 0.169333,0.3809988 0.243416,0.2328326 0.867831,0.6138316 0.624414,0.380999 0.857247,0.698498 0.243416,0.306915 0.243416,0.740831 0,0.423332 -0.211666,0.814914 -0.201083,0.391582 -0.571498,0.666748 -0.793748,0.592664 -2.063744,0.592664 -0.687914,0 -1.217079,-0.359832 -0.529165,-0.349249 -0.529165,-0.761997 0,-0.412749 0.296332,-0.656165 0.306916,-0.243416 0.751414,-0.243416 0.444499,0 0.719665,0.169333 -0.137583,0.349249 -0.137583,0.582081 0,0.698498 0.592665,0.698498 0.253999,0 0.423332,-0.158749 0.169332,-0.15875 0.169332,-0.433916 0,-0.539748 -0.910163,-1.111246 -0.740831,-0.486832 -0.910164,-0.677331 -0.285749,-0.338666 -0.285749,-0.761998 0,-0.4233319 0.201083,-0.8254973 0.201082,-0.4021653 0.571498,-0.6879144 0.772581,-0.5926648 2.11666,-0.5926648 0.687914,0 1.090079,0.2751658 0.412749,0.2751658 0.412749,0.7408309 0,0.4656652 -0.285749,0.7302477 -0.275166,0.2645821 -0.783164,0.2645821 -0.349249,0 -0.518582,-0.116416 z m 2.14839,2.656408 q 0,-0.285749 0.148166,-1.005413 l 0.560915,-2.857491 h -0.624415 l 0.04233,-0.317499 q 1.269996,-0.3809988 2.497659,-1.3123292 h 0.507998 l -0.253999,1.1535797 h 0.825497 l -0.09525,0.4762485 h -0.814914 l -0.539749,2.857491 q -0.137583,0.656164 -0.137583,0.878414 0,0.507998 0.444499,0.613831 -0.105833,0.359832 -0.486832,0.571498 -0.380998,0.211666 -0.920747,0.211666 -0.539748,0 -0.846664,-0.338665 -0.306915,-0.338666 -0.306915,-0.931331 z m 4.063951,0.740831 q -0.243416,-0.275165 -0.359832,-0.709081 -0.105833,-0.433915 -0.105833,-1.142996 0,-0.709081 0.243415,-1.354662 0.243416,-0.6455818 0.687915,-1.111247 0.910164,-0.9736635 2.412992,-0.9736635 0.539749,0 0.931331,0.1799161 L 36.972814,8.2020895 36.18965,12.329576 q -0.03175,0.127 -0.03175,0.359833 0,0.232832 0.137583,0.380998 0.148166,0.148167 0.359832,0.169333 -0.105833,0.359832 -0.497415,0.571498 -0.380999,0.211666 -0.814914,0.211666 -0.433916,0 -0.730248,-0.169333 -0.285749,-0.158749 -0.370415,-0.433915 -0.169333,0.264583 -0.529165,0.433915 -0.359833,0.169333 -0.846664,0.169333 -0.476249,0 -0.867831,-0.126999 -0.391582,-0.127 -0.645581,-0.402166 z M 33.586158,9.1969196 Q 33.469742,9.387419 33.363909,9.7155013 33.258076,10.033 33.07816,10.900831 q -0.169333,0.857247 -0.169333,1.471079 0,0.613831 0.09525,0.793747 0.09525,0.179916 0.264583,0.179916 0.338666,0 0.582081,-0.317499 0.254,-0.328082 0.349249,-0.89958 l 0.560915,-3.1009071 q -0.222249,-0.1904994 -0.486832,-0.1904994 -0.253999,0 -0.412748,0.084666 -0.148166,0.084666 -0.275166,0.2751657 z M 40.7087,10.0965 q 0.148166,-0.391582 0.148166,-0.7302476 0,-0.6244146 -0.507998,-0.6244146 -0.264583,0 -0.486832,0.2434159 -0.211666,0.2328325 -0.211666,0.5291649 0,0.211666 0.169333,0.3809988 0.243416,0.2328326 0.86783,0.6138316 0.624415,0.380999 0.857248,0.698498 0.243416,0.306915 0.243416,0.740831 0,0.423332 -0.211666,0.814914 -0.201083,0.391582 -0.571499,0.666748 -0.793747,0.592664 -2.063743,0.592664 -0.687914,0 -1.217079,-0.359832 -0.529165,-0.349249 -0.529165,-0.761997 0,-0.412749 0.296332,-0.656165 0.306916,-0.243416 0.751414,-0.243416 0.444499,0 0.719665,0.169333 -0.137583,0.349249 -0.137583,0.582081 0,0.698498 0.592665,0.698498 0.253999,0 0.423331,-0.158749 0.169333,-0.15875 0.169333,-0.433916 0,-0.539748 -0.910163,-1.111246 -0.740831,-0.486832 -0.910164,-0.677331 -0.285749,-0.338666 -0.285749,-0.761998 0,-0.4233319 0.201082,-0.8254973 0.201083,-0.4021653 0.571499,-0.6879144 0.77258,-0.5926648 2.116659,-0.5926648 0.687915,0 1.09008,0.2751658 0.412749,0.2751658 0.412749,0.7408309 0,0.4656652 -0.285749,0.7302477 -0.275166,0.2645821 -0.783164,0.2645821 -0.349249,0 -0.518582,-0.116416 z m 4.519052,3.132657 q -0.328082,0.793747 -1.375829,0.793747 -0.539748,0 -0.878413,-0.370415 -0.28575,-0.328082 -0.28575,-0.656165 0,-0.857247 0.391583,-2.529408 l 0.391582,-2.0531605 2.148409,-0.211666 -0.645581,3.3443225 q -0.179916,0.783164 -0.179916,1.05833 0,0.603248 0.433915,0.624415 z M 43.661424,6.9426768 q 0,-0.4127487 0.338666,-0.634998 0.349248,-0.2222492 0.846664,-0.2222492 0.497415,0 0.793747,0.2222492 0.306916,0.2222493 0.306916,0.634998 0,0.4127487 -0.338666,0.6244147 -0.328082,0.211666 -0.825497,0.211666 -0.497415,0 -0.814914,-0.211666 -0.306916,-0.211666 -0.306916,-0.6244147 z M 49.291727,10.0965 q 0.148166,-0.391582 0.148166,-0.7302476 0,-0.6244146 -0.507998,-0.6244146 -0.264583,0 -0.486832,0.2434159 -0.211666,0.2328325 -0.211666,0.5291649 0,0.211666 0.169333,0.3809988 0.243416,0.2328326 0.86783,0.6138316 0.624415,0.380999 0.857248,0.698498 0.243416,0.306915 0.243416,0.740831 0,0.423332 -0.211666,0.814914 -0.201083,0.391582 -0.571499,0.666748 -0.793747,0.592664 -2.063743,0.592664 -0.687915,0 -1.21708,-0.359832 -0.529165,-0.349249 -0.529165,-0.761997 0,-0.412749 0.296333,-0.656165 0.306916,-0.243416 0.751414,-0.243416 0.444499,0 0.719665,0.169333 -0.137583,0.349249 -0.137583,0.582081 0,0.698498 0.592664,0.698498 0.254,0 0.423332,-0.158749 0.169333,-0.15875 0.169333,-0.433916 0,-0.539748 -0.910164,-1.111246 -0.740831,-0.486832 -0.910163,-0.677331 -0.285749,-0.338666 -0.285749,-0.761998 0,-0.4233319 0.201082,-0.8254973 0.201083,-0.4021653 0.571498,-0.6879144 0.772581,-0.5926648 2.11666,-0.5926648 0.687915,0 1.09008,0.2751658 0.412749,0.2751658 0.412749,0.7408309 0,0.4656652 -0.285749,0.7302477 -0.275166,0.2645821 -0.783164,0.2645821 -0.349249,0 -0.518582,-0.116416 z"
       id="text1"
       aria-label="anastasis" />
  </g>
</svg>
