<?xml version="1.0" encoding="UTF-8" standalone="no"?>
<!-- Created with Inkscape (http://www.inkscape.org/) -->

<svg
   width="200"
   height="76"
   viewBox="0 0 52.916665 20.108333"
   version="1.1"
   id="svg1"
   inkscape:version="1.3.1 (9b9bdc1480, 2023-11-25, custom)"
   sodipodi:docname="doro-italy-logo-dark.svg"
   xmlns:inkscape="http://www.inkscape.org/namespaces/inkscape"
   xmlns:sodipodi="http://sodipodi.sourceforge.net/DTD/sodipodi-0.dtd"
   xmlns="http://www.w3.org/2000/svg"
   xmlns:svg="http://www.w3.org/2000/svg">
  <sodipodi:namedview
     id="namedview1"
     pagecolor="#ffffff"
     bordercolor="#000000"
     borderopacity="0.25"
     inkscape:showpageshadow="2"
     inkscape:pageopacity="0.0"
     inkscape:pagecheckerboard="0"
     inkscape:deskcolor="#d1d1d1"
     inkscape:document-units="mm"
     inkscape:zoom="2.9077441"
     inkscape:cx="112.45831"
     inkscape:cy="77.723483"
     inkscape:window-width="1850"
     inkscape:window-height="1016"
     inkscape:window-x="70"
     inkscape:window-y="27"
     inkscape:window-maximized="1"
     inkscape:current-layer="layer1" />
  <defs
     id="defs1" />
  <g
     inkscape:label="Livello 1"
     inkscape:groupmode="layer"
     id="layer1">
    <path
       id="path1"
       style="fill:#434e5e;fill-opacity:1;stroke:none;stroke-width:0.057999;stroke-miterlimit:10"
       class="cls-1"
       d="m -2.9166667e-7,4.6703138 c 0,0 1.78876909166667,2.0206157 2.86291109166667,2.6661447 1.074141,0.645529 2.616312,1.14027 3.742072,1.14027 h 7.4963792 c 0,0 1.082838,-0.01394 1.082838,0.962762 0,0.9767035 -0.767898,1.0104525 -1.034694,1.0104525 H 5.9965598 l -1.359466,1.923144 c 0,0 8.9243162,-0.03306 10.0338382,0 1.006274,0.02998 2.077613,-0.477751 2.268873,-2.350774 0.208052,1.821924 1.448143,2.350774 2.204531,2.350774 h 7.771875 c 1.153061,0 1.893989,-0.980825 2.046846,-2.5086855 v 2.5058535 l 1.653539,0.01676 V 8.4767235 h 7.452879 c 0.66235,0 1.126337,0.300413 1.126337,0.962762 0,0.6623485 -0.413582,1.0104525 -0.877574,1.0104525 -0.265057,0 -0.509205,0.01682 -0.943619,0 -0.434411,-0.01682 -0.962204,-0.331773 -2.319962,-0.7290665 -1.357756,-0.397293 -3.974069,-0.31435 -3.974069,-0.31435 0,0 2.469557,0.6287105 4.375985,1.9864665 1.652972,1.17854 1.730758,2.017164 4.371454,3.361001 2.798452,1.424456 7.765984,0.182154 7.765984,0.182154 0,0 -3.60745,-0.364883 -5.745874,-1.258648 -2.138424,-0.893765 -2.667957,-1.721961 -2.667957,-1.721961 0,0 1.332196,-0.296116 1.710975,-1.718448 0.277415,1.649031 1.449221,2.13543 2.175531,2.13543 h 7.771874 c 1.299756,0 2.078107,-1.24401 2.078107,-3.1156375 0,-1.871627 -1.423938,-2.654703 -2.152986,-2.654703 h -7.534098 c -0.882743,0 -2.020222,0.446726 -2.321889,2.013429 -0.275555,-1.271905 -1.23077,-2.013429 -2.804007,-2.013429 h -9.14063 v 2.198301 c -0.20874,-1.542979 -1.455548,-2.198296 -2.122178,-2.198296 h -7.534101 c -0.930102,0 -2.144157,0.495825 -2.363008,2.277936 -0.215099,-1.920572 -1.609616,-2.277256 -2.372071,-2.277256 H 6.4767518 c -0.946545,0 -1.658195,-0.06149 -3.247948,-0.458782 C 1.5967108,5.7363455 -2.9166667e-7,4.6703138 -2.9166667e-7,4.6703138 Z M 43.503379,8.4772955 h 6.722114 c 0.647847,0 0.95234,0.563171 0.95234,0.927985 0,0.364813 -0.134514,1.0439825 -0.910541,1.0439825 h -6.781245 c -0.494732,0 -0.894455,-0.364738 -0.894455,-0.9940265 l 6.57e-4,5.7e-4 c 0,-0.629289 0.430297,-0.979087 0.911109,-0.978507 z m -23.922238,6.79e-4 h 6.722681 c 0.647269,0 0.95166,0.563171 0.95166,0.927985 0,0.364814 -0.133932,1.0439825 -0.91054,1.0439825 H 19.56313 c -0.494732,0 -0.894341,-0.364851 -0.894341,-0.9941395 0,-0.629289 0.432121,-0.978988 0.912352,-0.977828 z" />
  </g>
</svg>
