<?xml version="1.0" encoding="UTF-8" standalone="no"?>
<!-- Created with Inkscape (http://www.inkscape.org/) -->

<svg
   width="200"
   height="76"
   viewBox="0 0 52.916665 20.108333"
   version="1.1"
   id="svg1"
   inkscape:version="1.3.1 (9b9bdc1480, 2023-11-25, custom)"
   sodipodi:docname="marco-albiero-logo-light.svg"
   xmlns:inkscape="http://www.inkscape.org/namespaces/inkscape"
   xmlns:sodipodi="http://sodipodi.sourceforge.net/DTD/sodipodi-0.dtd"
   xmlns="http://www.w3.org/2000/svg"
   xmlns:svg="http://www.w3.org/2000/svg">
  <sodipodi:namedview
     id="namedview1"
     pagecolor="#ffffff"
     bordercolor="#000000"
     borderopacity="0.25"
     inkscape:showpageshadow="2"
     inkscape:pageopacity="0.0"
     inkscape:pagecheckerboard="0"
     inkscape:deskcolor="#d1d1d1"
     inkscape:document-units="mm"
     inkscape:zoom="2.9077441"
     inkscape:cx="137.56369"
     inkscape:cy="122.08777"
     inkscape:window-width="1850"
     inkscape:window-height="1016"
     inkscape:window-x="70"
     inkscape:window-y="27"
     inkscape:window-maximized="1"
     inkscape:current-layer="layer1" />
  <defs
     id="defs1" />
  <g
     inkscape:label="Livello 1"
     inkscape:groupmode="layer"
     id="layer1">
    <path
       style="font-size:8.81944px;font-family:'Futura PT';-inkscape-font-specification:'Futura PT';fill:#ffffff;stroke-width:0.264583"
       d="M 2.1520287,13.132152 2.7693895,9.5779173 4.4627219,13.405554 6.1736933,9.5867368 6.7734152,13.132152 H 7.6906369 L 6.5793875,6.8086132 4.5156386,11.377083 2.4695285,6.8086132 1.2348069,13.132152 Z M 11.48299,9.85132 C 11.130212,9.3927091 10.653962,9.3221536 10.38056,9.3221536 c -0.9789582,0 -1.8079855,0.7408334 -1.8079855,1.9490964 0,1.023055 0.6526385,1.975554 1.7991655,1.975554 0.264583,0 0.732014,-0.06174 1.11125,-0.502708 v 0.388056 h 0.864305 V 9.4191674 H 11.48299 Z m -0.996597,0.246944 c 0.546805,0 1.049513,0.388056 1.049513,1.199444 0,0.776111 -0.502708,1.172986 -1.049513,1.172986 -0.6261803,0 -1.0318745,-0.537986 -1.0318745,-1.181805 0,-0.661458 0.4056942,-1.190625 1.0318745,-1.190625 z m 2.954502,3.033888 H 14.3052 v -1.922638 c 0,-0.246945 0,-0.599722 0.238125,-0.855486 0.167569,-0.176389 0.352777,-0.202847 0.537986,-0.202847 0.08819,0 0.246944,0.0088 0.440972,0.132292 L 15.87506,9.4985424 C 15.636935,9.3574313 15.40763,9.3221536 15.195963,9.3221536 c -0.194027,0 -0.361597,0.026458 -0.529166,0.1234721 -0.123472,0.070555 -0.264583,0.1940277 -0.361597,0.3086804 V 9.4191674 h -0.864305 z m 5.529776,-3.5454152 c -0.396874,-0.220486 -0.732013,-0.2645832 -1.014235,-0.2645832 -0.732014,0 -1.199444,0.2557637 -1.490486,0.5468052 -0.273402,0.2734022 -0.564444,0.7408332 -0.564444,1.4375692 0,0.679096 0.264583,1.120068 0.529167,1.393471 0.352777,0.370417 0.793749,0.546805 1.41111,0.546805 0.573264,0 0.917222,-0.15875 1.128888,-0.291041 v -0.961319 c -0.299861,0.335139 -0.714374,0.47625 -1.067152,0.47625 -0.3175,0 -0.590902,-0.114653 -0.78493,-0.299861 -0.167569,-0.16757 -0.335139,-0.458611 -0.335139,-0.890764 0,-0.414513 0.15875,-0.696736 0.3175,-0.855485 0.15875,-0.15875 0.414514,-0.32632 0.820208,-0.32632 0.264583,0 0.652639,0.07056 1.049513,0.458611 z M 21.59003,9.3221536 c -1.120069,0 -1.984374,0.8113884 -1.984374,1.9579154 0,1.137708 0.864305,1.966735 1.984374,1.966735 1.120068,0 1.984373,-0.829027 1.984373,-1.966735 0,-1.146527 -0.864305,-1.9579154 -1.984373,-1.9579154 z m 0,3.1485404 c -0.679097,0 -1.10243,-0.467431 -1.10243,-1.181805 0,-0.846667 0.555624,-1.190625 1.10243,-1.190625 0.546805,0 1.10243,0.343958 1.10243,1.190625 0,0.714374 -0.423334,1.181805 -1.10243,1.181805 z m 9.172204,0.661458 h 0.970138 l -2.786943,-6.226525 -2.928054,6.226525 h 0.970139 l 0.643819,-1.41993 h 2.51354 z m -2.760485,-2.266596 0.908402,-1.9931939 0.873125,1.9931939 z M 32.31444,6.7027799 v 6.4293721 h 0.864305 V 6.7027799 Z m 2.822205,0 h -0.864306 v 6.4293721 h 0.864306 v -0.388056 c 0.379235,0.440972 0.846666,0.502708 1.111249,0.502708 1.146527,0 1.799166,-0.952499 1.799166,-1.975554 0,-1.208263 -0.829028,-1.9490964 -1.807985,-1.9490964 -0.273403,0 -0.749653,0.070555 -1.10243,0.5291664 z m 0.996596,3.3954841 c 0.626181,0 1.031875,0.529167 1.031875,1.190625 0,0.643819 -0.405694,1.181805 -1.031875,1.181805 -0.546805,0 -1.049513,-0.396875 -1.049513,-1.172986 0,-0.811388 0.502708,-1.199444 1.049513,-1.199444 z m 2.813392,-0.6790966 v 3.7129846 h 0.864305 V 9.4191674 Z M 38.823161,7.8845849 c 0,0.3174998 0.238125,0.5556247 0.555625,0.5556247 0.317499,0 0.555624,-0.2381249 0.555624,-0.5556247 0,-0.3174999 -0.238125,-0.5556247 -0.555624,-0.5556247 -0.3175,0 -0.555625,0.2381248 -0.555625,0.5556247 z m 4.683108,3.9952061 c -0.07938,0.141111 -0.194028,0.291042 -0.343958,0.405694 -0.176389,0.132292 -0.352778,0.185209 -0.590903,0.185209 -0.211666,0 -0.458611,-0.03528 -0.661458,-0.238125 -0.185208,-0.185209 -0.299861,-0.485069 -0.3175,-0.749653 h 2.663471 v -0.105833 c 0,-0.388055 -0.0441,-1.075972 -0.520347,-1.5698602 -0.220486,-0.2293055 -0.599722,-0.4850692 -1.190624,-0.4850692 -0.529167,0 -0.934861,0.1940276 -1.243541,0.502708 -0.388056,0.3968744 -0.590903,0.9524994 -0.590903,1.5257634 0,0.555624 0.194028,1.067152 0.546806,1.41993 0.352777,0.352777 0.758471,0.476249 1.25236,0.476249 0.396875,0 0.79375,-0.08819 1.093611,-0.282222 0.238124,-0.14993 0.46743,-0.396875 0.62618,-0.679097 z m -1.852083,-1.10243 c 0.0441,-0.185208 0.141111,-0.361597 0.264584,-0.47625 0.114652,-0.114652 0.30868,-0.238124 0.608541,-0.238124 0.282222,0 0.46743,0.105833 0.582083,0.211666 0.132292,0.123472 0.229305,0.299861 0.264583,0.502708 z m 3.501302,2.354791 h 0.864305 v -1.922638 c 0,-0.246945 0,-0.599722 0.238125,-0.855486 0.167569,-0.176389 0.352777,-0.202847 0.537985,-0.202847 0.08819,0 0.246945,0.0088 0.440972,0.132292 l 0.352778,-0.7849306 c -0.238125,-0.1411111 -0.46743,-0.1763888 -0.679097,-0.1763888 -0.194027,0 -0.361597,0.026458 -0.529166,0.1234721 -0.123472,0.070555 -0.264583,0.1940277 -0.361597,0.3086804 V 9.4191674 h -0.864305 z m 4.541998,-3.8099984 c -1.120069,0 -1.984374,0.8113884 -1.984374,1.9579154 0,1.137708 0.864305,1.966735 1.984374,1.966735 1.120069,0 1.984374,-0.829027 1.984374,-1.966735 0,-1.146527 -0.864305,-1.9579154 -1.984374,-1.9579154 z m 0,3.1485404 c -0.679097,0 -1.10243,-0.467431 -1.10243,-1.181805 0,-0.846667 0.555624,-1.190625 1.10243,-1.190625 0.546805,0 1.10243,0.343958 1.10243,1.190625 0,0.714374 -0.423333,1.181805 -1.10243,1.181805 z"
       id="text1"
       aria-label="Marco Albiero" />
  </g>
</svg>
