<?xml version="1.0" encoding="UTF-8" standalone="no"?>
<!-- Created with Inkscape (http://www.inkscape.org/) -->

<svg
   width="200"
   height="76"
   viewBox="0 0 52.916665 20.108333"
   version="1.1"
   id="svg1"
   inkscape:version="1.3.1 (9b9bdc1480, 2023-11-25, custom)"
   sodipodi:docname="onorio-belussi-logo-dark.svg"
   xmlns:inkscape="http://www.inkscape.org/namespaces/inkscape"
   xmlns:sodipodi="http://sodipodi.sourceforge.net/DTD/sodipodi-0.dtd"
   xmlns="http://www.w3.org/2000/svg"
   xmlns:svg="http://www.w3.org/2000/svg">
  <sodipodi:namedview
     id="namedview1"
     pagecolor="#ffffff"
     bordercolor="#000000"
     borderopacity="0.25"
     inkscape:showpageshadow="2"
     inkscape:pageopacity="0.0"
     inkscape:pagecheckerboard="0"
     inkscape:deskcolor="#d1d1d1"
     inkscape:document-units="mm"
     inkscape:zoom="4.1121711"
     inkscape:cx="107.24262"
     inkscape:cy="97.515397"
     inkscape:window-width="1850"
     inkscape:window-height="1016"
     inkscape:window-x="70"
     inkscape:window-y="27"
     inkscape:window-maximized="1"
     inkscape:current-layer="layer1" />
  <defs
     id="defs1" />
  <g
     inkscape:label="Livello 1"
     inkscape:groupmode="layer"
     id="layer1">
    <path
       style="font-size:7.76111px;font-family:Inter;-inkscape-font-specification:Inter;fill:#434e5e;stroke-width:0.264583"
       d="m 5.6500107,10.098263 q 0,0.892968 -0.3224608,1.543402 -0.3224609,0.650434 -0.8847004,1.003212 -0.5622395,0.352778 -1.2843314,0.352778 -0.7220919,0 -1.2843314,-0.352778 -0.5622395,-0.352778 -0.88470037,-1.003212 -0.32246088,-0.650434 -0.32246088,-1.543402 0,-0.8929688 0.32246088,-1.5434027 Q 1.3119472,7.9044263 1.8741867,7.5516486 2.4364262,7.1988709 3.1585181,7.1988709 q 0.7220919,0 1.2843314,0.3527777 0.5622395,0.3527777 0.8847004,1.0032117 0.3224608,0.6504339 0.3224608,1.5434027 z m -0.6614582,0 q 0,-0.7331164 -0.2452907,-1.2374783 Q 4.5007271,8.3564228 4.0845596,8.0973517 3.6711482,7.8382805 3.1585181,7.8382805 q -0.5126301,0 -0.9287976,0.2590712 -0.4134114,0.2590711 -0.6587021,0.763433 -0.2425347,0.5043619 -0.2425347,1.2374783 0,0.733116 0.2425347,1.237478 0.2452907,0.504362 0.6587021,0.763433 0.4161675,0.259071 0.9287976,0.259071 0.5126301,0 0.9260415,-0.259071 0.4161675,-0.259071 0.6587022,-0.763433 0.2452907,-0.504362 0.2452907,-1.237478 z m 2.3702132,0.275607 v 2.546615 H 6.7083318 V 8.6871519 h 0.6283853 v 0.6614582 h 0.055121 Q 7.5406667,9.0261492 7.8438351,8.8304679 8.1470034,8.6320304 8.6265606,8.6320304 q 0.4299479,0 0.7524088,0.1763888 Q 9.7014303,8.982052 9.8805752,9.3375858 10.05972,9.6903635 10.05972,10.230554 v 2.689931 H 9.4092862 v -2.645833 q 0,-0.4988501 -0.2590711,-0.7772138 -0.2590712,-0.2811197 -0.7110676,-0.2811197 -0.3114366,0 -0.5567274,0.1350477 Q 7.6398855,9.4864139 7.4993256,9.7454851 7.3587657,10.004556 7.3587657,10.37387 Z m 5.6113613,2.634809 q -0.573264,0 -1.005968,-0.272852 -0.429948,-0.272851 -0.672482,-0.763433 -0.239779,-0.490581 -0.239779,-1.146527 0,-0.661458 0.239779,-1.154796 0.242534,-0.4933376 0.672482,-0.7661891 0.432704,-0.2728515 1.005968,-0.2728515 0.573264,0 1.003211,0.2728515 0.432704,0.2728515 0.672483,0.7661891 0.242535,0.493338 0.242535,1.154796 0,0.655946 -0.242535,1.146527 -0.239779,0.490582 -0.672483,0.763433 -0.429947,0.272852 -1.003211,0.272852 z m 0,-0.584288 q 0.43546,0 0.71658,-0.223242 0.281119,-0.223242 0.416167,-0.587044 0.135048,-0.363802 0.135048,-0.788238 0,-0.424436 -0.135048,-0.790994 -0.135048,-0.3665581 -0.416167,-0.5925563 -0.28112,-0.2259982 -0.71658,-0.2259982 -0.43546,0 -0.71658,0.2259982 -0.28112,0.2259982 -0.416167,0.5925563 -0.135048,0.366558 -0.135048,0.790994 0,0.424436 0.135048,0.788238 0.135047,0.363802 0.416167,0.587044 0.28112,0.223242 0.71658,0.223242 z m 2.910409,0.496094 V 8.6871519 h 0.628385 v 0.6394096 h 0.0441 q 0.115756,-0.3141926 0.418924,-0.509874 0.303168,-0.1956814 0.683507,-0.1956814 0.07166,0 0.179145,0.00276 0.107487,0.00276 0.162608,0.00827 v 0.6614582 q -0.03307,-0.00827 -0.151584,-0.024805 -0.115755,-0.019292 -0.245291,-0.019292 -0.30868,0 -0.551215,0.1295356 -0.239779,0.1267795 -0.380338,0.3527777 -0.137804,0.2232421 -0.137804,0.5098743 v 2.678906 z m 2.888359,0 V 8.6871519 h 0.650434 v 4.2333331 z m 0.330729,-4.9388885 q -0.190169,0 -0.327973,-0.1295356 -0.135048,-0.1295356 -0.135048,-0.3114366 0,-0.181901 0.135048,-0.3114366 0.137804,-0.1295355 0.327973,-0.1295355 0.190169,0 0.325217,0.1295355 0.137804,0.1295356 0.137804,0.3114366 0,0.181901 -0.137804,0.3114366 -0.135048,0.1295356 -0.325217,0.1295356 z m 3.230115,5.0270825 q -0.573264,0 -1.005967,-0.272852 -0.429948,-0.272851 -0.672483,-0.763433 -0.239779,-0.490581 -0.239779,-1.146527 0,-0.661458 0.239779,-1.154796 0.242535,-0.4933376 0.672483,-0.7661891 0.432703,-0.2728515 1.005967,-0.2728515 0.573264,0 1.003212,0.2728515 0.432704,0.2728515 0.672482,0.7661891 0.242535,0.493338 0.242535,1.154796 0,0.655946 -0.242535,1.146527 -0.239778,0.490582 -0.672482,0.763433 -0.429948,0.272852 -1.003212,0.272852 z m 0,-0.584288 q 0.43546,0 0.71658,-0.223242 0.28112,-0.223242 0.416167,-0.587044 0.135048,-0.363802 0.135048,-0.788238 0,-0.424436 -0.135048,-0.790994 -0.135047,-0.3665581 -0.416167,-0.5925563 -0.28112,-0.2259982 -0.71658,-0.2259982 -0.43546,0 -0.716579,0.2259982 -0.28112,0.2259982 -0.416168,0.5925563 -0.135048,0.366558 -0.135048,0.790994 0,0.424436 0.135048,0.788238 0.135048,0.363802 0.416168,0.587044 0.281119,0.223242 0.716579,0.223242 z m 5.181401,0.496094 V 7.276041 h 1.973351 q 0.5898,0 0.972894,0.2039496 0.383095,0.2011936 0.570508,0.542947 0.187413,0.3389973 0.187413,0.7524087 0,0.3638021 -0.129535,0.6008246 -0.12678,0.2370225 -0.336242,0.3748263 -0.206705,0.1378038 -0.44924,0.2039496 v 0.055121 q 0.259071,0.01654 0.520898,0.181901 0.261828,0.165365 0.438216,0.474045 0.176389,0.308681 0.176389,0.755165 0,0.424436 -0.192925,0.763433 -0.192925,0.338998 -0.609093,0.537435 -0.416167,0.198438 -1.083138,0.198438 z m 0.683507,-0.606337 h 1.355989 q 0.669727,0 0.950847,-0.259071 0.283875,-0.261828 0.283875,-0.633898 0,-0.286632 -0.146072,-0.529166 -0.146072,-0.245291 -0.416167,-0.391363 -0.270096,-0.148828 -0.63941,-0.148828 h -1.389062 z m 0,-2.5576386 h 1.267795 q 0.30868,0 0.556727,-0.1212674 0.250803,-0.1212673 0.396875,-0.3417534 0.148828,-0.2204861 0.148828,-0.5181423 0,-0.3720702 -0.259071,-0.6311414 -0.259071,-0.2618272 -0.82131,-0.2618272 h -1.289844 z m 6.052341,3.2521696 q -0.611849,0 -1.055577,-0.270095 -0.440972,-0.272852 -0.680751,-0.760677 -0.237022,-0.490582 -0.237022,-1.141016 0,-0.650434 0.237022,-1.1465275 0.239779,-0.4988497 0.666971,-0.7772134 0.429947,-0.2811197 1.003211,-0.2811197 0.330729,0 0.65319,0.110243 0.322461,0.1102431 0.587044,0.3582899 0.264584,0.2452908 0.42168,0.6504339 0.157096,0.4051428 0.157096,0.9976998 v 0.275607 h -3.263194 v -0.562239 h 2.601736 q 0,-0.35829 -0.143316,-0.6394098 Q 35.054518,9.5415354 34.792691,9.378927 34.53362,9.2163185 34.180842,9.2163185 q -0.388606,0 -0.672482,0.1929253 -0.28112,0.1901692 -0.432704,0.4960937 -0.151584,0.3059245 -0.151584,0.6559465 v 0.374826 q 0,0.479557 0.165364,0.813042 0.168121,0.330729 0.465777,0.504362 0.297656,0.170877 0.691775,0.170877 0.256315,0 0.463021,-0.07166 0.209462,-0.07441 0.361046,-0.220486 0.151584,-0.148828 0.234266,-0.369314 l 0.628386,0.176389 q -0.09922,0.319704 -0.333486,0.562239 -0.234266,0.239779 -0.578776,0.374826 -0.344509,0.132292 -0.774457,0.132292 z m 3.395485,-5.732638 v 5.644444 H 36.992039 V 7.276041 Z m 3.858497,3.913628 V 8.6871519 h 0.650434 V 12.920485 H 41.50097 v -0.71658 h -0.0441 q -0.148828,0.322461 -0.463021,0.548459 -0.314193,0.223242 -0.79375,0.223242 -0.396875,0 -0.705555,-0.173633 -0.308681,-0.176389 -0.48507,-0.529166 -0.176388,-0.355534 -0.176388,-0.895725 V 8.6871519 h 0.650434 v 2.6458331 q 0,0.463021 0.259071,0.738628 0.261827,0.275608 0.66697,0.275608 0.242535,0 0.493338,-0.124024 0.253559,-0.124023 0.424435,-0.380338 0.173633,-0.256315 0.173633,-0.65319 z m 4.839663,-1.554427 -0.584288,0.1653646 q -0.05512,-0.146072 -0.162608,-0.2838758 -0.104731,-0.1405599 -0.286632,-0.2315104 -0.181901,-0.09095 -0.465777,-0.09095 -0.388607,0 -0.647678,0.1791449 -0.256315,0.1763889 -0.256315,0.4492404 0,0.2425348 0.176389,0.3830948 0.176389,0.14056 0.551215,0.234266 l 0.628385,0.15434 q 0.567752,0.137804 0.846116,0.42168 0.278363,0.28112 0.278363,0.724848 0,0.363802 -0.209461,0.650434 -0.206706,0.286632 -0.578776,0.451996 -0.372071,0.165365 -0.865408,0.165365 -0.647678,0 -1.072114,-0.28112 -0.424435,-0.28112 -0.537435,-0.82131 l 0.617361,-0.154341 q 0.08819,0.341754 0.333486,0.51263 0.248046,0.170877 0.647678,0.170877 0.454752,0 0.722091,-0.192925 0.270096,-0.195682 0.270096,-0.468533 0,-0.220486 -0.15434,-0.369314 -0.154341,-0.151584 -0.474045,-0.225998 L 44.41138,11.01328 q -0.581532,-0.137804 -0.854383,-0.427192 -0.270096,-0.292144 -0.270096,-0.7303599 0,-0.3582899 0.201194,-0.6338975 0.203949,-0.2756076 0.553971,-0.4327039 0.352778,-0.1570963 0.799262,-0.1570963 0.628385,0 0.986675,0.2756076 0.361046,0.2756076 0.51263,0.727604 z m 4.056935,0 -0.584288,0.1653646 Q 49.758158,9.6545346 49.650671,9.5167308 49.54594,9.3761709 49.364039,9.2852204 q -0.181901,-0.09095 -0.465777,-0.09095 -0.388606,0 -0.647678,0.1791449 -0.256315,0.1763889 -0.256315,0.4492404 0,0.2425348 0.176389,0.3830948 0.176389,0.14056 0.551215,0.234266 l 0.628386,0.15434 q 0.567751,0.137804 0.846115,0.42168 0.278364,0.28112 0.278364,0.724848 0,0.363802 -0.209462,0.650434 -0.206706,0.286632 -0.578776,0.451996 -0.37207,0.165365 -0.865408,0.165365 -0.647678,0 -1.072113,-0.28112 -0.424436,-0.28112 -0.537435,-0.82131 l 0.617361,-0.154341 q 0.08819,0.341754 0.333485,0.51263 0.248047,0.170877 0.647678,0.170877 0.454752,0 0.722092,-0.192925 0.270095,-0.195682 0.270095,-0.468533 0,-0.220486 -0.15434,-0.369314 -0.15434,-0.151584 -0.474045,-0.225998 L 48.468314,11.01328 q -0.581532,-0.137804 -0.854383,-0.427192 -0.270096,-0.292144 -0.270096,-0.7303599 0,-0.3582899 0.201194,-0.6338975 0.20395,-0.2756076 0.553971,-0.4327039 0.352778,-0.1570963 0.799262,-0.1570963 0.628386,0 0.986675,0.2756076 0.361046,0.2756076 0.512631,0.727604 z m 1.058323,3.285243 V 8.6871519 h 0.650434 V 12.920485 Z M 51.78662,7.9815965 q -0.190169,0 -0.327973,-0.1295356 Q 51.3236,7.7225253 51.3236,7.5406243 q 0,-0.181901 0.135047,-0.3114366 0.137804,-0.1295355 0.327973,-0.1295355 0.19017,0 0.325217,0.1295355 0.137804,0.1295356 0.137804,0.3114366 0,0.181901 -0.137804,0.3114366 -0.135047,0.1295356 -0.325217,0.1295356 z"
       id="text1"
       aria-label="Onorio Belussi" />
  </g>
</svg>
