<?xml version="1.0" encoding="UTF-8" standalone="no"?>
<!-- Created with Inkscape (http://www.inkscape.org/) -->

<svg
   width="200"
   height="76"
   viewBox="0 0 52.916665 20.108333"
   version="1.1"
   id="svg1"
   inkscape:version="1.3.1 (9b9bdc1480, 2023-11-25, custom)"
   sodipodi:docname="sabrina-rinaldi-logo-dark.svg"
   xmlns:inkscape="http://www.inkscape.org/namespaces/inkscape"
   xmlns:sodipodi="http://sodipodi.sourceforge.net/DTD/sodipodi-0.dtd"
   xmlns="http://www.w3.org/2000/svg"
   xmlns:svg="http://www.w3.org/2000/svg">
  <sodipodi:namedview
     id="namedview1"
     pagecolor="#ffffff"
     bordercolor="#000000"
     borderopacity="0.25"
     inkscape:showpageshadow="2"
     inkscape:pageopacity="0.0"
     inkscape:pagecheckerboard="0"
     inkscape:deskcolor="#d1d1d1"
     inkscape:document-units="mm"
     inkscape:zoom="4.1121711"
     inkscape:cx="102.62219"
     inkscape:cy="87.544994"
     inkscape:window-width="1850"
     inkscape:window-height="1016"
     inkscape:window-x="70"
     inkscape:window-y="27"
     inkscape:window-maximized="1"
     inkscape:current-layer="layer1" />
  <defs
     id="defs1" />
  <g
     inkscape:label="Livello 1"
     inkscape:groupmode="layer"
     id="layer1">
    <path
       id="text1"
       style="font-size:5.29167px;font-family:Charlemagne;-inkscape-font-specification:Charlemagne;fill:#434e5e;stroke-width:0.264583"
       d="M 3.0876668 7.6465617 L 2.9662272 7.6625814 C 2.9344772 7.8054563 2.9076678 7.963979 2.8706258 8.090979 C 2.7436258 8.059229 2.4686658 7.9958944 2.1564575 7.9958944 C 1.3732912 7.9958944 1.0660848 8.5143539 1.0660848 8.9271037 C 1.0660848 9.5250618 1.4792278 9.8214372 1.9978109 10.160103 C 2.3417691 10.382354 2.6747721 10.593957 2.6747721 11.022583 C 2.6747721 11.414166 2.3414383 11.689209 1.9233968 11.689209 C 1.558272 11.689209 1.2461668 11.451167 1.1032918 11.1125 C 1.0874168 11.01725 1.0607938 10.715687 1.0660848 10.646895 L 0.94464518 10.614856 C 0.96052017 10.741856 0.92862549 11.313397 0.92862549 11.450981 C 0.92862549 11.657355 0.85445943 12.245061 0.84387614 12.319145 L 0.96583252 12.287105 C 1.0028742 12.091314 1.0556461 11.837293 1.0821045 11.736751 C 1.230271 11.816131 1.5582926 11.869043 1.8122925 11.869043 C 2.5319589 11.869043 3.1140218 11.451166 3.1140218 10.715625 C 3.1140218 10.048875 2.669563 9.7526242 2.2303548 9.4774577 C 1.8281883 9.2234577 1.4686442 9.0380012 1.4686442 8.694043 C 1.4686442 8.4559181 1.6589997 8.1648763 2.1140828 8.1648763 C 2.4844994 8.1648763 2.7597075 8.4508331 2.8179159 8.641333 C 2.8284988 8.7365829 2.8391032 8.863459 2.8391032 9.0433757 L 2.9605428 9.0966024 C 2.9605428 8.6626858 3.0135839 8.1704365 3.0876668 7.6465617 z M 9.0516439 8.038269 C 8.718269 8.038269 7.7074986 8.074836 7.5328735 8.080127 L 7.5592285 8.191748 C 7.7126868 8.202331 7.9244983 8.212708 8.1044149 8.244458 C 8.1255819 8.4614163 8.1411051 9.2866271 8.1411051 9.667627 L 8.1411051 10.001457 C 8.1411051 10.467123 8.1414568 11.255355 8.1044149 11.620479 C 7.9932899 11.652229 7.6757692 11.683797 7.5540609 11.694377 L 7.5328735 11.805481 C 7.6863319 11.794901 8.2205421 11.784294 8.3369588 11.784294 C 8.4480837 11.784294 8.6437101 11.794891 8.8289185 11.805481 C 9.0194184 11.816061 9.1997693 11.826668 9.2738525 11.826668 C 10.009394 11.826668 10.506852 11.419251 10.506852 10.81071 C 10.506852 10.249793 9.9455219 9.8742499 9.4216471 9.7895833 L 9.4216471 9.7735636 C 9.5962727 9.6994803 9.9085015 9.5301262 10.104293 9.2232096 C 10.236585 9.011543 10.242269 8.8795406 10.242269 8.7260824 C 10.242269 8.4773741 10.083519 8.038269 9.0516439 8.038269 z M 18.597314 8.0434367 C 18.184565 8.0646037 17.68752 8.069543 17.391187 8.080127 L 17.412374 8.191748 C 17.613457 8.202331 17.872542 8.2283353 17.99425 8.2547933 C 17.99425 8.4294182 17.935896 11.39823 17.845939 11.620479 C 17.72423 11.657519 17.554856 11.673217 17.406689 11.694377 L 17.391187 11.805481 C 17.544645 11.794901 17.957065 11.784294 18.110522 11.784294 C 18.248106 11.784294 18.798687 11.794891 18.893937 11.805481 L 18.877917 11.694377 C 18.777377 11.683797 18.380583 11.646929 18.301208 11.620479 C 18.232419 11.42998 18.169062 8.6520817 18.184937 8.5462484 C 18.359561 8.7473316 19.365041 9.9747917 19.439124 10.054167 C 19.560832 10.19175 21.02652 11.90071 21.18527 12.048877 C 21.21702 11.83721 21.259307 9.6150616 21.275187 9.3663534 C 21.285767 9.1970201 21.311938 8.4508329 21.375439 8.244458 C 21.518314 8.223291 21.709208 8.1811437 21.777999 8.1705607 L 21.799186 8.0594564 C 21.688061 8.0700394 21.24846 8.080127 21.132043 8.080127 C 21.015627 8.080127 20.44452 8.0700404 20.343978 8.0594564 L 20.370333 8.1705607 C 20.5185 8.1811437 20.798834 8.223292 20.904667 8.244458 C 21.0105 8.5196245 21.015771 10.376814 21.015771 10.964189 C 20.846433 10.821314 20.005104 9.8002906 19.867521 9.652124 C 19.777562 9.556874 18.713731 8.2233532 18.597314 8.0434367 z M 34.779272 8.0434367 C 34.366523 8.0646037 33.869478 8.069543 33.573145 8.080127 L 33.594332 8.191748 C 33.795415 8.202331 34.0545 8.2283353 34.176208 8.2547933 C 34.176208 8.4294182 34.117854 11.39823 34.027897 11.620479 C 33.906188 11.657519 33.736814 11.673217 33.588647 11.694377 L 33.573145 11.805481 C 33.726603 11.794901 34.139023 11.784294 34.29248 11.784294 C 34.430064 11.784294 34.980645 11.794891 35.075895 11.805481 L 35.059875 11.694377 C 34.959335 11.683797 34.562541 11.646929 34.483167 11.620479 C 34.414377 11.42998 34.35102 8.6520817 34.366895 8.5462484 C 34.541519 8.7473316 35.546999 9.9747917 35.621082 10.054167 C 35.74279 10.19175 37.208478 11.90071 37.367228 12.048877 C 37.398978 11.83721 37.441265 9.6150616 37.457145 9.3663534 C 37.467725 9.1970201 37.493896 8.4508329 37.557397 8.244458 C 37.700272 8.223291 37.891165 8.1811437 37.959957 8.1705607 L 37.981144 8.0594564 C 37.870019 8.0700394 37.430418 8.080127 37.314001 8.080127 C 37.197585 8.080127 36.626478 8.0700404 36.525936 8.0594564 L 36.552291 8.1705607 C 36.700458 8.1811437 36.980792 8.223292 37.086625 8.244458 C 37.192458 8.5196245 37.197729 10.376814 37.197729 10.964189 C 37.02839 10.821314 36.187062 9.8002906 36.049479 9.652124 C 35.95952 9.556874 34.895689 8.2233532 34.779272 8.0434367 z M 4.5852498 8.0594564 L 4.5904175 8.1705607 C 4.7174175 8.1864357 4.8920632 8.2075404 5.0084798 8.2392904 C 4.9343969 8.4403737 3.8812307 11.287105 3.6907308 11.620479 C 3.5478558 11.652229 3.3894364 11.678507 3.2359782 11.694377 L 3.2199585 11.805481 C 3.3416668 11.794901 3.6962912 11.784294 3.8338745 11.784294 C 3.9873328 11.784294 4.4687505 11.794891 4.6327922 11.805481 L 4.6116048 11.694377 C 4.4634382 11.678507 4.2891438 11.657519 4.1568522 11.620479 C 4.2097692 11.213022 4.4951054 10.212999 4.5268555 10.138916 C 4.722647 10.107166 5.5643115 10.070186 5.7495199 10.070186 C 5.8341868 10.223644 6.2097916 11.345313 6.3050415 11.620479 C 6.141 11.657519 5.9559154 11.678507 5.7707072 11.694377 L 5.7443522 11.805481 C 5.8872272 11.794901 6.4848962 11.784294 6.6383545 11.784294 C 6.9188127 11.784294 7.4533539 11.794891 7.5168538 11.805481 L 7.5008341 11.694377 C 7.3420842 11.67321 7.1886877 11.652229 7.0352295 11.620479 C 6.7918129 11.154813 6.4635433 10.265771 6.3153768 9.858313 C 6.1142935 9.3026882 5.8233552 8.4721236 5.7598551 8.2392904 C 5.8815634 8.2075404 6.0248313 8.1864357 6.1624146 8.1705607 L 6.1779175 8.0594564 C 6.0244591 8.0700394 5.495313 8.080127 5.2730632 8.080127 C 5.1831052 8.080127 4.7439998 8.0700404 4.5852498 8.0594564 z M 15.105021 8.0594564 L 15.131376 8.1705607 C 15.231917 8.1811437 15.581582 8.223292 15.687415 8.244458 C 15.708585 8.4243746 15.71377 9.413937 15.71377 9.588562 L 15.71377 9.9006877 C 15.71377 10.419271 15.708575 11.39823 15.687415 11.620479 C 15.57629 11.641649 15.216166 11.689087 15.126208 11.694377 L 15.105021 11.805481 C 15.263771 11.794901 15.750894 11.784294 15.930811 11.784294 C 16.258893 11.784294 16.809165 11.794891 16.925582 11.805481 L 16.89871 11.694377 C 16.792877 11.683797 16.47548 11.652229 16.343188 11.620479 C 16.322018 11.514646 16.316833 10.630979 16.316833 9.9430623 L 16.316833 9.614917 C 16.316833 8.9640422 16.322028 8.3502913 16.343188 8.244458 C 16.533688 8.223291 16.792877 8.1811437 16.89871 8.1705607 L 16.925582 8.0594564 C 16.835622 8.0700394 16.380519 8.080127 16.110645 8.080127 C 15.692603 8.080127 15.205563 8.0700404 15.105021 8.0594564 z M 23.058541 8.0594564 L 23.063708 8.1705607 C 23.190708 8.1864357 23.365354 8.2075404 23.481771 8.2392904 C 23.407691 8.4403737 22.354522 11.287105 22.164022 11.620479 C 22.021147 11.652229 21.862728 11.678507 21.709269 11.694377 L 21.69325 11.805481 C 21.814958 11.794901 22.169582 11.784294 22.307166 11.784294 C 22.460623 11.784294 22.942041 11.794891 23.106083 11.805481 L 23.084896 11.694377 C 22.93673 11.678507 22.761917 11.657519 22.629626 11.620479 C 22.682546 11.213022 22.968397 10.212999 23.000146 10.138916 C 23.195937 10.107166 24.037603 10.070186 24.222811 10.070186 C 24.307481 10.223644 24.683083 11.345313 24.778333 11.620479 C 24.614291 11.657519 24.429206 11.678507 24.243998 11.694377 L 24.217126 11.805481 C 24.360001 11.794901 24.958187 11.784294 25.111646 11.784294 C 25.392103 11.784294 25.926645 11.794891 25.990145 11.805481 L 25.974125 11.694377 C 25.815375 11.673207 25.661978 11.652229 25.508521 11.620479 C 25.265104 11.154813 24.936835 10.265771 24.788668 9.858313 C 24.587585 9.3026882 24.296646 8.4721236 24.233146 8.2392904 C 24.354854 8.2075404 24.497605 8.1864357 24.635189 8.1705607 L 24.651208 8.0594564 C 24.49775 8.0700394 23.968604 8.080127 23.746354 8.080127 C 23.656394 8.080127 23.217291 8.0700404 23.058541 8.0594564 z M 31.286979 8.0594564 L 31.313334 8.1705607 C 31.413876 8.1811437 31.763023 8.223292 31.868856 8.244458 C 31.890026 8.4243746 31.895728 9.413937 31.895728 9.588562 L 31.895728 9.9006877 C 31.895728 10.419271 31.890016 11.39823 31.868856 11.620479 C 31.757731 11.641649 31.398125 11.689087 31.308167 11.694377 L 31.286979 11.805481 C 31.44573 11.794901 31.932335 11.784294 32.112252 11.784294 C 32.440335 11.784294 32.991123 11.794891 33.10754 11.805481 L 33.080668 11.694377 C 32.974834 11.683797 32.657438 11.652229 32.525146 11.620479 C 32.503977 11.514646 32.498792 10.630979 32.498792 9.9430623 L 32.498792 9.614917 C 32.498792 8.9640422 32.503987 8.3502913 32.525146 8.244458 C 32.715646 8.223291 32.974834 8.1811437 33.080668 8.1705607 L 33.10754 8.0594564 C 33.01758 8.0700394 32.562477 8.080127 32.292603 8.080127 C 31.874561 8.080127 31.387521 8.0700404 31.286979 8.0594564 z M 39.240499 8.0594564 L 39.245667 8.1705607 C 39.372666 8.1864357 39.547312 8.2075404 39.663729 8.2392904 C 39.589649 8.4403737 38.53648 11.287105 38.34598 11.620479 C 38.203105 11.652229 38.044686 11.678507 37.891227 11.694377 L 37.875208 11.805481 C 37.996916 11.794901 38.351541 11.784294 38.489124 11.784294 C 38.642581 11.784294 39.123999 11.794891 39.288041 11.805481 L 39.266854 11.694377 C 39.118688 11.678507 38.943876 11.657519 38.811584 11.620479 C 38.864504 11.213022 39.150355 10.212999 39.182104 10.138916 C 39.377895 10.107166 40.219561 10.070186 40.404769 10.070186 C 40.489439 10.223644 40.865041 11.345313 40.960291 11.620479 C 40.796249 11.657519 40.610648 11.678507 40.425439 11.694377 L 40.399084 11.805481 C 40.541959 11.794901 41.140146 11.784294 41.293604 11.784294 C 41.574061 11.784294 42.108603 11.794891 42.172103 11.805481 L 42.156083 11.694377 C 41.997333 11.673207 41.843937 11.652229 41.690479 11.620479 C 41.447062 11.154813 41.118793 10.265771 40.970626 9.858313 C 40.769543 9.3026882 40.478604 8.4721236 40.415104 8.2392904 C 40.536812 8.2075404 40.679563 8.1864357 40.817147 8.1705607 L 40.833167 8.0594564 C 40.679708 8.0700394 40.150562 8.080127 39.928312 8.080127 C 39.838352 8.080127 39.399249 8.0700404 39.240499 8.0594564 z M 42.187606 8.0594564 L 42.203625 8.1705607 C 42.341208 8.1811437 42.653582 8.223292 42.769999 8.244458 C 42.791169 8.4137912 42.796354 9.2337104 42.796354 9.5353353 L 42.796354 9.8422933 C 42.796354 10.366169 42.791159 11.387647 42.769999 11.620479 C 42.658874 11.657519 42.288168 11.689087 42.208793 11.694377 L 42.187606 11.805481 C 42.335773 11.794901 42.822709 11.784294 43.087292 11.784294 C 43.373042 11.784294 44.516002 11.805753 44.632418 11.816333 C 44.632418 11.959208 44.606063 12.361334 44.606063 12.435417 L 44.728019 12.461772 C 44.802099 11.752688 44.902273 11.191751 45.008105 10.720793 L 44.881498 10.74198 C 44.839168 10.890147 44.770187 11.165645 44.690812 11.345561 C 44.489728 11.477853 44.055997 11.615312 43.42629 11.615312 C 43.40512 11.498895 43.399418 10.482791 43.399418 9.7895833 L 43.399418 9.5988973 C 43.399418 9.1755641 43.40513 8.4137912 43.42629 8.244458 C 43.637956 8.223291 43.923541 8.1811437 44.050541 8.1705607 L 44.076896 8.0594564 C 43.971063 8.0700394 43.457854 8.080127 43.103312 8.080127 C 42.78052 8.080127 42.319898 8.0700404 42.187606 8.0594564 z M 45.304728 8.0594564 L 45.315063 8.1705607 C 45.442063 8.1811437 45.738687 8.218 45.87627 8.244458 C 45.90273 8.3502913 45.91296 9.3183978 45.91296 9.5565226 L 45.91296 9.974585 C 45.91296 10.588418 45.90273 11.530521 45.87627 11.620479 C 45.74927 11.657519 45.426456 11.689087 45.325916 11.694377 L 45.304728 11.805481 C 45.431728 11.800181 46.553521 11.795146 46.849854 11.795146 C 48.881853 11.795146 49.76027 10.699936 49.76027 9.5833944 C 49.76027 9.1018529 49.511231 8.5991856 48.892106 8.3028524 C 48.542856 8.133519 48.019332 8.0594564 47.400208 8.0594564 C 46.99275 8.0594564 46.362752 8.080127 46.177543 8.080127 C 45.955293 8.080127 45.384103 8.0700404 45.304728 8.0594564 z M 50.25223 8.0594564 L 50.278585 8.1705607 C 50.379127 8.1811437 50.72879 8.223292 50.834623 8.244458 C 50.855793 8.4243746 50.860978 9.413937 50.860978 9.588562 L 50.860978 9.9006877 C 50.860978 10.419271 50.855783 11.39823 50.834623 11.620479 C 50.723498 11.641649 50.363376 11.689087 50.273417 11.694377 L 50.25223 11.805481 C 50.41098 11.794901 50.898102 11.784294 51.078019 11.784294 C 51.406103 11.784294 51.956374 11.794891 52.072791 11.805481 L 52.045919 11.694377 C 51.940085 11.683797 51.622689 11.652229 51.490397 11.620479 C 51.469227 11.514646 51.464042 10.630979 51.464042 9.9430623 L 51.464042 9.614917 C 51.464042 8.9640422 51.469237 8.3502913 51.490397 8.244458 C 51.680897 8.223291 51.940085 8.1811437 52.045919 8.1705607 L 52.072791 8.0594564 C 51.982831 8.0700394 51.527728 8.080127 51.257853 8.080127 C 50.839812 8.080127 50.352771 8.0700404 50.25223 8.0594564 z M 12.284521 8.064624 L 11.141439 8.0697917 L 11.157458 8.180896 C 11.273874 8.191479 11.633874 8.223291 11.723832 8.244458 C 11.745002 8.3449996 11.750187 9.360855 11.750187 9.551355 L 11.750187 9.8743327 C 11.750187 10.429958 11.744992 11.467021 11.723832 11.620479 C 11.575665 11.657519 11.23671 11.689087 11.162626 11.694377 L 11.141439 11.805481 C 11.263147 11.794901 11.818999 11.784294 12.035958 11.784294 C 12.279375 11.784294 12.813688 11.794891 12.94598 11.805481 L 12.924792 11.694377 C 12.808377 11.683797 12.459229 11.646929 12.369271 11.620479 C 12.353401 11.377063 12.342916 10.561939 12.342916 10.217981 L 12.342916 10.080522 C 12.432876 10.080522 12.649811 10.064879 12.850895 10.048999 C 12.935565 10.160124 14.342897 11.784459 14.713314 11.953792 L 14.946375 11.916585 C 14.396051 11.334501 13.544207 9.9482299 13.485999 9.8159383 C 13.893457 9.5883967 14.232206 9.1493742 14.232206 8.8159993 C 14.232206 8.5249577 14.057396 8.3235436 13.776937 8.2124186 C 13.417104 8.0695437 12.78723 8.064624 12.284521 8.064624 z M 28.466479 8.064624 L 27.323397 8.0697917 L 27.339417 8.180896 C 27.455832 8.191479 27.815832 8.223291 27.90579 8.244458 C 27.92696 8.3449996 27.932145 9.360855 27.932145 9.551355 L 27.932145 9.8743327 C 27.932145 10.429958 27.92695 11.467021 27.90579 11.620479 C 27.757624 11.657519 27.418668 11.689087 27.344584 11.694377 L 27.323397 11.805481 C 27.445105 11.794901 28.000957 11.784294 28.217916 11.784294 C 28.461333 11.784294 28.995646 11.794891 29.127938 11.805481 L 29.10675 11.694377 C 28.990335 11.683797 28.641187 11.646929 28.551229 11.620479 C 28.535359 11.377063 28.524874 10.561939 28.524874 10.217981 L 28.524874 10.080522 C 28.614834 10.080522 28.83177 10.064879 29.032853 10.048999 C 29.117523 10.160124 30.524855 11.784459 30.895272 11.953792 L 31.128333 11.916585 C 30.57801 11.334501 29.726165 9.9482299 29.667957 9.8159383 C 30.075415 9.5883967 30.413647 9.1493742 30.413647 8.8159993 C 30.413647 8.5249577 30.239354 8.3235436 29.958895 8.2124186 C 29.599062 8.0695437 28.969188 8.064624 28.466479 8.064624 z M 8.9405396 8.180896 C 9.3744561 8.180896 9.6547078 8.4880402 9.6547078 8.9431234 C 9.6547078 9.2129983 9.5435414 9.4668744 9.3477498 9.6097493 C 9.1466666 9.7579157 8.8766881 9.7895833 8.7126465 9.7895833 L 8.7126465 9.4934774 C 8.7126465 9.0172276 8.7180812 8.2653353 8.7286662 8.2124186 C 8.7762911 8.1912516 8.8558729 8.180896 8.9405396 8.180896 z M 12.369271 8.2124186 C 13.284729 8.2124186 13.591418 8.6256441 13.591418 8.9643107 C 13.591418 9.4881855 13.215896 9.7312716 12.988354 9.8159383 C 12.760814 9.9006052 12.533416 9.9167074 12.342916 9.9167074 L 12.342916 9.7523763 C 12.342916 9.3766682 12.353391 8.4293769 12.369271 8.2124186 z M 28.551229 8.2124186 C 29.466687 8.2124186 29.773376 8.6256441 29.773376 8.9643107 C 29.773376 9.4881855 29.397854 9.7312716 29.170312 9.8159383 C 28.942772 9.9006052 28.715374 9.9167074 28.524874 9.9167074 L 28.524874 9.7523763 C 28.524874 9.3766682 28.535349 8.4293769 28.551229 8.2124186 z M 47.018835 8.2547933 C 47.51096 8.2547933 48.146148 8.3607507 48.532438 8.6465007 C 48.971647 8.9745838 49.109147 9.4193735 49.109147 9.869165 C 49.109147 10.996289 48.141165 11.588957 47.130457 11.588957 C 46.992874 11.588957 46.786064 11.583305 46.553231 11.493355 C 46.532061 11.302855 46.516541 10.308394 46.516541 10.022644 L 46.516541 9.8159383 C 46.516541 9.583105 46.537361 8.3662076 46.553231 8.2868327 C 46.664356 8.2656657 46.897127 8.2547933 47.018835 8.2547933 z M 5.1619588 8.3292074 L 5.1728109 8.3292074 C 5.2627688 8.620249 5.5958958 9.5622899 5.7123128 9.9115397 L 4.6012695 9.8903524 C 4.6541862 9.7157275 4.9979173 8.8001655 5.1619588 8.3292074 z M 23.63525 8.3292074 L 23.645585 8.3292074 C 23.735545 8.620249 24.069187 9.5622899 24.185604 9.9115397 L 23.074561 9.8903524 C 23.12748 9.7157275 23.471208 8.8001655 23.63525 8.3292074 z M 39.817208 8.3292074 L 39.827543 8.3292074 C 39.917503 8.620249 40.251145 9.5622899 40.367562 9.9115397 L 39.256002 9.8903524 C 39.308922 9.7157275 39.653166 8.8001655 39.817208 8.3292074 z M 8.7126465 9.94823 C 8.8396465 9.932355 9.125748 9.9642287 9.3374146 10.075354 C 9.6972477 10.265854 9.9141235 10.673064 9.9141235 11.011731 C 9.9141235 11.376856 9.7021466 11.657686 9.1994385 11.657686 C 9.0936052 11.657686 8.8979168 11.631247 8.7762085 11.546582 C 8.7497505 11.477792 8.7126465 10.689083 8.7126465 10.234001 L 8.7126465 9.94823 z " />
  </g>
</svg>
