<?xml version="1.0" encoding="UTF-8" standalone="no"?>
<!-- Created with Inkscape (http://www.inkscape.org/) -->

<svg
   width="200"
   height="76"
   viewBox="0 0 52.916666 20.108333"
   version="1.1"
   id="svg1"
   inkscape:version="1.3.1 (9b9bdc1480, 2023-11-25, custom)"
   sodipodi:docname="sailor-moon-world-logo-dark.svg"
   xmlns:inkscape="http://www.inkscape.org/namespaces/inkscape"
   xmlns:sodipodi="http://sodipodi.sourceforge.net/DTD/sodipodi-0.dtd"
   xmlns="http://www.w3.org/2000/svg"
   xmlns:svg="http://www.w3.org/2000/svg">
  <sodipodi:namedview
     id="namedview1"
     pagecolor="#ffffff"
     bordercolor="#000000"
     borderopacity="0.25"
     inkscape:showpageshadow="2"
     inkscape:pageopacity="0.0"
     inkscape:pagecheckerboard="0"
     inkscape:deskcolor="#d1d1d1"
     inkscape:document-units="mm"
     inkscape:zoom="2.9077441"
     inkscape:cx="140.65887"
     inkscape:cy="134.12459"
     inkscape:window-width="1850"
     inkscape:window-height="1016"
     inkscape:window-x="70"
     inkscape:window-y="27"
     inkscape:window-maximized="1"
     inkscape:current-layer="layer1" />
  <defs
     id="defs1" />
  <g
     inkscape:label="Livello 1"
     inkscape:groupmode="layer"
     id="layer1">
    <path
       id="text1"
       style="font-size:9.87777px;font-family:Shardee;-inkscape-font-specification:Shardee;fill:#434e5e;stroke-width:0.264583;stroke:none"
       d="M 40.701908 6.3567179 C 40.38582 6.3896439 40.132201 6.5441952 39.941231 6.8207723 C 39.756846 7.0907641 39.664762 7.3906838 39.664762 7.7199422 C 39.664762 7.8384752 39.697614 7.9467262 39.763464 8.0455037 C 39.829314 8.1442816 39.918684 8.1938151 40.030632 8.1938151 C 40.034848 8.1938151 40.037838 8.1913375 40.042 8.1912313 C 40.067759 8.1977623 40.090761 8.2103516 40.119515 8.2103516 C 40.185368 8.2103516 40.244602 8.197418 40.297282 8.1710775 L 40.573751 7.7757528 L 40.494686 7.7065063 C 40.489359 7.7232464 40.481517 7.7356197 40.475049 7.7504313 L 40.405802 7.6899699 C 40.365465 7.8167343 40.290495 7.8849169 40.184627 7.9008097 C 40.116214 7.8491997 40.079724 7.677433 40.079724 7.3706095 C 40.079724 7.1467139 40.152408 6.9528454 40.297282 6.7882161 C 40.442156 6.623587 40.619857 6.5412028 40.830583 6.5412028 C 40.855186 6.5412028 40.876709 6.5475635 40.899829 6.5505046 C 41.202051 6.647791 41.354065 7.0426895 41.354065 7.7395793 C 41.354065 9.0742751 40.394201 10.558528 38.487573 12.189954 C 38.62519 11.643007 38.696863 11.013374 38.696863 10.294462 C 38.696863 10.057396 38.690399 9.7973102 38.677226 9.5141479 C 38.769418 9.277082 38.815202 9.0202294 38.815202 8.7436523 C 38.815202 8.4209792 38.749502 8.2599609 38.617798 8.2599609 C 38.608953 8.2599609 38.602992 8.2654107 38.594543 8.2661621 C 38.574277 8.2545237 38.553947 8.2434245 38.528914 8.2434245 C 38.33136 8.2434245 38.232808 8.4308263 38.232808 8.8061808 C 38.232808 9.2408019 38.239305 9.500888 38.252445 9.586495 C 37.7261 10.512355 36.889486 11.472862 35.758541 12.465906 C 35.884334 12.008879 36.008266 11.551988 36.128544 11.09493 C 36.273418 10.49568 36.346102 9.9421412 36.346102 9.435083 C 36.346102 8.9477807 36.254017 8.5002929 36.069633 8.0920125 C 35.808091 7.5108088 35.404631 7.1867153 34.860921 7.1184285 C 34.76107 7.1000622 34.658215 7.0874227 34.548279 7.0874227 C 34.054391 7.0874227 33.662388 7.301725 33.37264 7.7297607 C 33.082893 8.1512115 32.938041 8.66815 32.938041 9.2805705 C 32.938041 9.6559253 33.043576 10.008095 33.254301 10.337354 C 33.471612 10.660027 33.672462 10.821562 33.856848 10.821562 C 33.860014 10.821562 33.861484 10.820555 33.8646 10.820528 C 33.891695 10.82716 33.919312 10.838098 33.945732 10.838098 C 34.018172 10.838098 34.077405 10.831118 34.123499 10.817944 L 34.419604 10.255188 L 34.350875 10.19576 C 34.344955 10.213521 34.334007 10.220063 34.327104 10.235551 L 34.261991 10.179224 C 34.216864 10.314596 34.14274 10.383062 34.040816 10.385929 C 33.922411 10.347406 33.801832 10.230618 33.679081 10.027812 C 33.534207 9.7709901 33.461523 9.5012042 33.461523 9.218042 C 33.461523 8.6846434 33.553608 8.2366389 33.737992 7.8744548 C 33.948717 7.453004 34.255105 7.242452 34.656799 7.242452 C 34.693149 7.242452 34.727053 7.2497841 34.761702 7.2548543 C 35.132563 7.3605902 35.397957 7.7806219 35.555969 8.5198934 C 35.648159 8.9610996 35.693945 9.454888 35.693945 10.001457 C 35.693945 10.673143 35.657866 11.246082 35.585425 11.720215 L 35.407658 12.826607 C 35.401058 12.839777 35.298771 12.951778 35.101217 13.162504 C 34.962929 13.307377 34.893994 13.438779 34.893994 13.557312 C 34.893994 13.66926 34.930075 13.72526 35.002515 13.72526 C 35.016426 13.72526 35.029269 13.719117 35.042822 13.716992 C 35.057936 13.726885 35.069868 13.741797 35.091398 13.741797 C 35.236272 13.741797 35.361723 13.626562 35.467086 13.396082 C 35.526354 13.238038 35.581837 13.080253 35.634517 12.922209 C 36.082309 12.500758 36.533547 12.079137 36.987923 11.657686 C 37.509739 11.135871 37.919875 10.63718 38.228674 10.15907 C 38.223546 10.764178 38.19391 11.291931 38.13359 11.720215 C 38.06774 12.088984 38.00527 12.457837 37.946004 12.826607 C 37.939404 12.839777 37.837635 12.951778 37.64008 13.162504 C 37.501792 13.307377 37.43234 13.438779 37.43234 13.557312 C 37.43234 13.66926 37.468941 13.72526 37.541378 13.72526 C 37.555275 13.72526 37.568154 13.719173 37.581685 13.716992 C 37.596864 13.726885 37.608732 13.741797 37.630261 13.741797 C 37.775135 13.741797 37.900069 13.623329 38.005432 13.386263 C 38.0647 13.221634 38.120701 13.060614 38.173381 12.902572 C 39.444317 11.730411 40.27411 10.916787 40.662634 10.46241 C 41.591142 9.395614 42.055314 8.4769709 42.055314 7.7065063 C 42.055314 7.3640777 41.940079 7.0544579 41.709599 6.7778809 C 41.508988 6.5361199 41.277027 6.4045487 41.016101 6.3758382 C 40.915528 6.3547101 40.811911 6.3444954 40.701908 6.3567179 z M 25.282694 6.7716797 C 25.197085 6.7716797 25.088837 6.8535468 24.957133 7.0181763 C 23.73937 7.7195059 22.786287 8.8914807 22.093225 10.524939 C 22.017005 9.9322576 21.973853 9.3653281 21.973853 8.8325358 C 21.973853 8.0159751 22.056237 7.4166524 22.220866 7.0347127 L 22.161438 7.0052572 C 22.149097 7.0199609 22.136149 7.0298977 22.123714 7.0440145 C 22.126892 7.0363266 22.128741 7.0256957 22.131982 7.0181763 L 22.072555 6.9887207 C 21.763052 7.35749 21.423815 7.5416585 21.055046 7.5416585 C 20.877246 7.5416585 20.687019 7.5286173 20.484538 7.5023844 C 20.309997 7.4797715 20.121914 7.4428368 19.929016 7.4005819 C 19.925385 7.3996872 19.922817 7.3994023 19.919198 7.3985148 C 19.689541 7.3422078 19.483455 7.3009924 19.299597 7.2734578 C 19.088801 7.2382755 18.899109 7.216097 18.744076 7.216097 C 18.32921 7.216097 17.97329 7.3674151 17.676957 7.6703328 C 17.387209 7.9732505 17.242358 8.3318874 17.242358 8.7467529 C 17.242358 8.9248862 17.286059 9.091173 17.369482 9.2459473 C 17.315018 9.3634396 17.250638 9.4357093 17.173629 9.4516195 C 17.127871 9.4393715 17.075252 9.4228365 16.956071 9.3658366 C 16.811197 9.2868146 16.699196 9.2474976 16.620174 9.2474976 C 16.618867 9.2474976 16.617352 9.2485075 16.61604 9.2485311 C 16.586859 9.2416259 16.554691 9.2309611 16.531291 9.2309611 C 16.379832 9.2309611 16.195147 9.3892624 15.977836 9.7053507 C 15.931261 9.7688616 15.77587 10.028238 15.647624 10.238652 C 15.671951 10.159355 15.67406 10.144492 15.711186 10.027812 C 15.770452 9.8236715 15.800069 9.6723533 15.800069 9.5735758 C 15.800069 9.3957764 15.754286 9.3069255 15.662093 9.3069255 C 15.656084 9.3069255 15.645842 9.3124898 15.639355 9.3131266 C 15.62073 9.299007 15.599196 9.290389 15.57321 9.290389 C 15.415166 9.290389 15.092096 9.5106418 14.604793 9.9518473 L 14.664221 10.030912 C 14.685068 10.015388 14.694604 10.010251 14.714347 9.9957723 L 14.753105 10.047449 C 15.018396 9.84989 15.175788 9.7547565 15.262118 9.7265381 C 15.261799 9.737962 15.263224 9.7475277 15.25695 9.7642619 C 14.743307 11.212997 14.486454 12.401944 14.486454 13.330452 C 14.53191 13.322373 14.536595 13.324011 14.577405 13.317017 C 14.577353 13.326409 14.575338 13.33765 14.575338 13.346989 C 14.87167 13.294322 15.06929 13.264705 15.168066 13.258105 C 15.168066 12.678612 15.260151 11.957587 15.444535 11.09493 C 15.976815 10.199142 16.329418 9.7470723 16.503385 9.7342896 C 16.553073 9.7497936 16.61194 9.7730933 16.689421 9.8138713 C 16.785626 9.859445 16.866267 9.881895 16.939018 9.8924194 C 16.995969 9.9093463 17.04829 9.9192912 17.094047 9.9192912 C 17.226726 9.9192912 17.357177 9.7436382 17.485238 9.4221639 C 17.4868 9.4241704 17.487763 9.4263701 17.489372 9.4283651 C 17.629093 9.596031 17.791659 9.6881889 17.974097 9.713619 C 18.034254 9.7303876 18.096003 9.7415243 18.161165 9.7415243 C 18.358721 9.7415243 18.533188 9.6656068 18.684648 9.5141479 L 18.872233 8.9612101 L 18.812805 8.9415731 C 18.788753 9.0077179 18.758759 9.0641627 18.725472 9.1152059 L 18.78335 8.9446737 L 18.723922 8.9250366 C 18.61856 9.2147973 18.42469 9.3596354 18.141528 9.3596354 C 18.115788 9.3596354 18.091503 9.3539614 18.066597 9.3508504 C 17.942096 9.3150501 17.828309 9.239582 17.726567 9.11934 C 17.581693 8.9481257 17.509009 8.7569737 17.509009 8.5462484 C 17.509009 8.2828416 17.664076 8.0523727 17.97358 7.8548177 C 18.256742 7.6704331 18.549678 7.5783488 18.852596 7.5783488 C 19.069907 7.5783488 19.409143 7.6176659 19.870105 7.6966878 C 20.337653 7.7757098 20.693055 7.8150269 20.936707 7.8150269 C 21.081495 7.8150269 21.17808 7.8001302 21.273637 7.7850545 C 20.977358 8.1273891 20.690556 8.7839238 20.413224 9.7642619 C 20.06421 11.008858 19.813825 11.785883 19.662366 12.095386 C 19.306767 12.846096 18.842595 13.221415 18.269686 13.221415 C 18.209245 13.221415 18.150533 13.214021 18.091919 13.205396 C 17.889896 13.159777 17.6983 13.064252 17.518827 12.91239 C 17.262007 12.688494 17.133838 12.418191 17.133838 12.102104 C 17.133838 11.865037 17.179621 11.657719 17.271814 11.479919 C 17.368799 11.279482 17.501348 11.178672 17.668172 11.175028 C 17.777421 11.21389 17.835087 11.333253 17.835087 11.542448 C 17.835087 11.601718 17.82859 11.657716 17.81545 11.710396 L 17.874361 11.759489 L 17.905884 11.711947 C 17.904816 11.716693 17.905507 11.722239 17.904333 11.726933 L 17.963245 11.776025 L 18.319295 11.242725 C 18.156339 11.112361 17.988509 11.038728 17.816484 11.015865 C 17.75081 10.9999 17.684468 10.988993 17.617529 10.988993 C 17.294856 10.988993 17.028303 11.114445 16.817578 11.364681 C 16.606853 11.608333 16.514769 11.904501 16.541109 12.253516 C 16.567449 12.602529 16.745152 12.882532 17.07441 13.093258 C 17.299543 13.238343 17.549663 13.327162 17.824235 13.361975 C 17.939124 13.382042 18.056921 13.396082 18.180802 13.396082 C 19.076386 13.396082 19.711791 13.047145 20.087146 12.349117 C 20.284702 11.986933 20.485553 11.229826 20.689693 10.077421 C 20.86206 9.1442677 21.091125 8.4827735 21.370789 8.064624 C 21.337 9.6117591 21.449966 10.751231 21.717021 11.463383 C 21.539237 11.924344 21.447152 12.171497 21.440552 12.204423 C 21.381282 12.388809 21.351668 12.602593 21.351668 12.846244 C 21.351668 13.116235 21.394219 13.251388 21.479826 13.251388 C 21.489724 13.251388 21.500231 13.241314 21.510315 13.238468 C 21.526901 13.257227 21.546154 13.267924 21.568709 13.267924 C 21.687243 13.267924 21.81916 13.063839 21.964034 12.655558 C 22.115491 12.240694 22.181191 11.901456 22.161438 11.638049 C 22.398504 10.400039 22.892292 9.3263271 23.643001 8.4175741 C 23.899354 8.1131559 24.188804 7.8473898 24.497213 7.6036702 C 24.079927 8.2234247 23.726879 9.000276 23.445597 9.9518473 C 23.215117 10.748652 23.099882 11.347975 23.099882 11.74967 C 23.099882 12.738643 23.308586 13.260315 23.720516 13.326835 C 23.773272 13.345298 23.829397 13.355952 23.890015 13.356807 L 24.66051 12.843144 L 24.621236 12.75426 C 24.595371 12.770177 24.579065 12.776401 24.555607 12.789917 L 24.532353 12.737724 C 24.366285 12.839921 24.252029 12.890194 24.185087 12.89327 C 24.009705 12.849388 23.892348 12.670707 23.840922 12.339299 C 23.814582 12.174669 23.801131 11.815515 23.801131 11.262362 C 23.801131 10.919933 23.886749 10.419678 24.057963 9.7611613 C 24.308199 8.8194823 24.670587 7.943907 25.144718 7.1339315 C 25.381785 7.0614947 25.500252 6.9855771 25.500252 6.9065552 C 25.500252 6.8275332 25.457185 6.7882161 25.371578 6.7882161 C 25.367318 6.7882161 25.361481 6.7940118 25.357109 6.7944173 C 25.336789 6.7827332 25.315661 6.7716797 25.282694 6.7716797 z M 4.6384766 7.0579671 C 4.1643446 7.0579671 3.745957 7.1995852 3.3837728 7.4827474 C 3.0018332 7.7790799 2.8111979 8.1479336 2.8111979 8.5891398 C 2.8111979 8.8459613 3.0346834 9.05328 3.4824748 9.2113241 C 3.8973404 9.3496126 4.3124944 9.4912305 4.72736 9.6361043 C 5.1751514 9.8534141 5.3991536 10.163034 5.3991536 10.56473 C 5.3991536 11.262758 5.0432333 11.901398 4.3320353 12.480892 C 3.6998593 12.994536 3.1042868 13.251388 2.5445475 13.251388 C 2.4514361 13.251388 2.3624325 13.243916 2.2758301 13.232267 C 2.0200474 13.184517 1.7921869 13.086926 1.596285 12.932027 C 1.2933673 12.688375 1.1415324 12.369056 1.1415324 11.973946 C 1.1415324 11.499815 1.3127675 11.084661 1.6551961 10.729061 C 2.0042101 10.373462 2.3994473 10.19576 2.8406535 10.19576 C 2.8889516 10.19576 2.9348381 10.201509 2.9806966 10.207646 C 3.136574 10.243493 3.2785587 10.314299 3.4039266 10.426237 C 3.5948964 10.584281 3.690214 10.785132 3.690214 11.028784 C 3.690214 11.292192 3.587913 11.516194 3.3837728 11.700578 C 3.1796327 11.884963 2.9394636 11.977047 2.6628866 11.977047 C 2.5944792 11.977047 2.5306625 11.968935 2.4675496 11.959477 C 2.4054333 11.945148 2.3443494 11.928971 2.2877157 11.9047 L 2.2835815 11.914001 C 2.2556754 11.904772 2.2255237 11.899601 2.1988322 11.888163 L 2.1590413 11.977047 L 2.8602905 12.283488 C 2.8741757 12.283198 2.8864123 12.279586 2.9000814 12.278837 L 2.949174 12.300024 C 3.265262 12.293439 3.5253479 12.167989 3.7294881 11.924337 C 3.9402135 11.680686 4.0457479 11.394216 4.0457479 11.064958 C 4.0457479 10.768625 3.9272801 10.525223 3.690214 10.334253 C 3.5074212 10.177573 3.298541 10.085627 3.0659627 10.053133 C 2.9776325 10.034139 2.8869154 10.021094 2.7910441 10.021094 C 2.2049642 10.021094 1.6880259 10.212246 1.2402344 10.594185 C 0.76610248 10.989295 0.52916667 11.47015 0.52916667 12.036475 C 0.52916667 12.46451 0.74023545 12.80323 1.1616862 13.053467 C 1.3736614 13.183627 1.6090088 13.272766 1.8629354 13.329419 C 1.9462388 13.348005 2.0293554 13.366803 2.1171834 13.377478 C 2.1176913 13.377557 2.1182257 13.377399 2.1187337 13.377478 C 2.2647874 13.40015 2.4149683 13.415719 2.5740031 13.415719 C 3.3839787 13.415719 4.1545363 13.149167 4.8854899 12.615767 C 5.7020506 12.023103 6.1102214 11.308545 6.1102214 10.472229 C 6.1102214 10.031022 5.8862192 9.7084696 5.4384277 9.5043294 C 5.0169771 9.366041 4.5991062 9.2308896 4.1842407 9.0991862 C 3.7364494 8.9213867 3.5124471 8.6548341 3.5124471 8.299235 C 3.5124471 8.0094877 3.6341483 7.7591019 3.8777995 7.5483765 C 4.1280358 7.3310659 4.411272 7.2228149 4.72736 7.2228149 C 4.7846293 7.2228149 4.8347396 7.238944 4.8865234 7.251237 C 4.9618036 7.2808615 5.0304449 7.3250553 5.0927124 7.3840454 C 5.2244157 7.4959932 5.2901164 7.6376114 5.2901164 7.8088257 C 5.2901164 7.9734549 5.2341163 8.1183064 5.122168 8.2434245 L 5.2312052 8.3121541 L 5.2518758 8.2857992 L 5.3200887 8.3286906 L 5.7546875 7.7757528 L 5.7546875 7.5979858 C 5.7546875 7.4531122 5.6426864 7.3314109 5.4187907 7.2326335 C 5.2913474 7.1708428 5.157898 7.133154 5.0213989 7.1075765 C 4.8973291 7.0767331 4.7702549 7.0579671 4.6384766 7.0579671 z M 12.530501 7.0874227 C 12.352701 7.0874227 12.089382 7.4201927 11.740369 8.0852946 C 11.391355 8.7438112 11.091951 9.4847531 10.841715 10.307898 C 10.561856 11.191999 10.420742 11.927974 10.411251 12.523267 C 10.402078 12.533856 10.396936 12.536843 10.387996 12.547038 L 10.328052 12.500529 C 10.09922 12.765493 9.9455381 12.903166 9.8598633 12.925826 C 9.7969744 12.872618 9.7647786 12.731413 9.7647786 12.497428 C 9.7647786 12.214267 9.8670796 11.667711 10.07122 10.857735 C 10.27536 10.041175 10.377144 9.6130871 10.377144 9.5735758 C 10.377144 9.3957764 10.331361 9.3069255 10.239168 9.3069255 C 10.233159 9.3069255 10.222916 9.3124898 10.216431 9.3131266 C 10.197805 9.299007 10.176271 9.290389 10.150285 9.290389 C 9.9922403 9.290389 9.6696878 9.5106418 9.1823853 9.9518473 L 9.2412964 10.030912 C 9.2622872 10.015281 9.2720672 10.010344 9.2919393 9.9957723 L 9.3301799 10.047449 C 9.5954724 9.84989 9.7528645 9.7547565 9.8391927 9.7265381 C 9.8388739 9.737962 9.8402988 9.7475277 9.8340251 9.7642619 C 9.5903743 10.455705 9.4256056 10.962941 9.3399984 11.285616 C 9.2334143 11.711952 9.1812931 12.125464 9.1761841 12.527917 L 9.1622314 12.517065 C 9.1505612 12.530578 9.144589 12.534672 9.1332926 12.547555 L 9.073348 12.500529 C 8.8463045 12.763422 8.6937816 12.90043 8.6077433 12.924792 C 8.5500563 12.870205 8.5204102 12.72884 8.5204102 12.497428 C 8.5204102 11.852083 8.6916451 10.930205 9.0340739 9.7317057 L 9.17205 9.7218872 C 9.2247313 9.5111619 9.3302658 9.3463936 9.4883097 9.2278605 L 9.4588542 9.1880697 C 9.4432515 9.1954604 9.4132515 9.1981375 9.3947754 9.2046061 L 9.3699707 9.1715332 C 9.2448525 9.2308001 9.0273169 9.2604167 8.7178141 9.2604167 C 7.9868606 9.2604167 7.3875379 9.6459535 6.919991 10.416418 C 6.5248809 11.061766 6.3272624 11.720322 6.3272624 12.392008 C 6.3272624 12.63566 6.3703295 12.849446 6.4559367 13.03383 C 6.5463186 13.232669 6.6714524 13.336273 6.828007 13.35319 C 6.8692777 13.368204 6.9130656 13.376444 6.9597819 13.376444 C 7.179682 13.376444 7.5058959 13.018178 7.9297485 12.332581 C 7.9249682 12.416945 7.917863 12.497837 7.917863 12.589412 C 7.917863 12.773798 7.9442469 12.935333 7.9969279 13.073621 C 8.0627798 13.244835 8.1483972 13.330452 8.2537598 13.330452 C 8.2571494 13.330452 8.2602032 13.328468 8.2635783 13.328385 C 8.2885894 13.340264 8.3148922 13.346989 8.3426432 13.346989 C 8.4677614 13.346989 8.5829959 13.290987 8.6883586 13.179041 L 9.1767008 12.664343 C 9.1888999 13.102807 9.2969928 13.330452 9.5079468 13.330452 C 9.5153152 13.330452 9.5218342 13.325673 9.5291341 13.325285 C 9.5519982 13.331871 9.5709837 13.346989 9.5968302 13.346989 C 9.7219485 13.346989 9.8371829 13.290987 9.9425456 13.179041 L 10.413318 12.683464 C 10.428394 13.108296 10.535366 13.330452 10.743014 13.330452 C 10.750382 13.330452 10.756901 13.325673 10.764201 13.325285 C 10.787065 13.331871 10.80605 13.346989 10.831897 13.346989 C 10.957016 13.346989 11.07225 13.290987 11.177612 13.179041 L 11.740369 12.586312 L 11.651485 12.517065 C 11.639815 12.530578 11.633845 12.534672 11.622546 12.547555 L 11.562602 12.500529 C 11.33377 12.765493 11.180088 12.903166 11.094413 12.925826 C 11.031665 12.872618 10.999845 12.731413 10.999845 12.497428 C 10.999845 11.733549 11.210398 10.682989 11.631848 9.3461995 C 12.030766 8.07867 12.32861 7.4353193 12.526367 7.4062663 C 12.58526 7.4269546 12.650213 7.4628323 12.728422 7.53184 C 12.846955 7.6306179 12.94874 7.6801514 13.034347 7.6801514 C 13.037597 7.6801514 13.040914 7.6763698 13.044165 7.6760173 C 13.07079 7.6838345 13.099172 7.6966878 13.12323 7.6966878 C 13.175913 7.6966878 13.22868 7.6503873 13.28136 7.558195 L 13.468945 7.242452 L 13.399699 7.2228149 C 13.371328 7.2732522 13.342796 7.3097964 13.314433 7.3359863 L 13.380062 7.2259155 L 13.310815 7.2062785 C 13.25465 7.3061227 13.19851 7.3545686 13.14235 7.3597575 C 13.078706 7.3405462 13.008982 7.3071292 12.925826 7.242452 C 12.807293 7.1502596 12.704992 7.1039591 12.619385 7.1039591 C 12.617093 7.1039591 12.613953 7.1069492 12.611633 7.1070597 C 12.584291 7.0994252 12.555098 7.0874227 12.530501 7.0874227 z M 48.376892 7.0874227 C 48.199092 7.0874227 47.935773 7.4201927 47.586759 8.0852946 C 47.36914 8.4958968 47.173248 8.9423886 46.994031 9.4169963 C 46.967707 9.4362164 46.938695 9.4436367 46.909281 9.4490356 C 46.862793 9.4358809 46.813683 9.4211994 46.697925 9.3658366 C 46.553051 9.2868146 46.44105 9.2474976 46.362028 9.2474976 C 46.360721 9.2474976 46.359206 9.2485075 46.357894 9.2485311 C 46.328713 9.2416259 46.296544 9.2309611 46.273145 9.2309611 C 46.121686 9.2309611 45.937517 9.3892632 45.720207 9.7053507 C 45.673526 9.7690057 45.517683 10.02846 45.388961 10.239685 C 45.41325 10.160161 45.415712 10.145127 45.45304 10.027812 C 45.512305 9.8236715 45.541923 9.6723533 45.541923 9.5735758 C 45.541923 9.3957764 45.49614 9.3069255 45.403947 9.3069255 C 45.397938 9.3069255 45.387694 9.3124898 45.381209 9.3131266 C 45.362584 9.299007 45.34105 9.290389 45.315063 9.290389 C 45.15702 9.290389 44.834466 9.5106408 44.347164 9.9518473 L 44.406075 10.030912 C 44.427066 10.015281 44.436846 10.010344 44.456718 9.9957723 L 44.494958 10.047449 C 44.76025 9.84989 44.917642 9.7547565 45.003971 9.7265381 C 45.003653 9.737962 45.005077 9.7475277 44.998804 9.7642619 C 44.485161 11.212998 44.228308 12.401943 44.228308 13.330452 C 44.273764 13.322373 44.278449 13.324011 44.319259 13.317017 C 44.319207 13.326409 44.317192 13.33765 44.317192 13.346989 C 44.613524 13.294322 44.811143 13.264705 44.90992 13.258105 C 44.90992 12.678612 45.002004 11.957587 45.186389 11.09493 C 45.718669 10.199142 46.071273 9.7470723 46.245239 9.7342896 C 46.294927 9.7497936 46.353794 9.7730933 46.431274 9.8138713 C 46.52748 9.859445 46.608121 9.881895 46.680872 9.8924194 C 46.730512 9.9071732 46.77514 9.9142969 46.816264 9.9161906 C 46.772624 10.045234 46.728815 10.173999 46.688106 10.307898 C 46.39836 11.223237 46.253507 11.983577 46.253507 12.589412 C 46.253507 13.083301 46.365509 13.330452 46.589404 13.330452 C 46.596773 13.330452 46.603292 13.325673 46.610592 13.325285 C 46.633456 13.331871 46.652441 13.346989 46.678288 13.346989 C 46.803406 13.346989 46.91864 13.290987 47.024003 13.179041 L 47.586759 12.586312 L 47.497876 12.517065 C 47.486206 12.530578 47.480236 12.534672 47.468937 12.547555 L 47.408993 12.500529 C 47.180159 12.765493 47.026479 12.903166 46.940804 12.925826 C 46.878056 12.872618 46.846236 12.731413 46.846236 12.497428 C 46.846236 11.733549 47.056788 10.682989 47.478239 9.3461995 C 47.877157 8.07867 48.174507 7.4353193 48.372241 7.4062663 C 48.431286 7.4269546 48.496604 7.4628323 48.574813 7.53184 C 48.693346 7.6306179 48.795129 7.6801514 48.880737 7.6801514 C 48.883988 7.6801514 48.887304 7.6763698 48.890556 7.6760173 C 48.917181 7.6838345 48.945563 7.6966878 48.969621 7.6966878 C 49.022303 7.6966878 49.075071 7.6503873 49.127751 7.558195 L 49.315336 7.242452 L 49.24609 7.2228149 C 49.217719 7.2732522 49.189187 7.3097964 49.160824 7.3359863 L 49.226453 7.2259155 L 49.157206 7.2062785 C 49.101041 7.3061227 49.0449 7.3545686 48.988741 7.3597575 C 48.925097 7.3405462 48.855373 7.3071292 48.772217 7.242452 C 48.653684 7.1502596 48.551382 7.1039591 48.465776 7.1039591 C 48.463484 7.1039591 48.460344 7.1069492 48.458024 7.1070597 C 48.430682 7.0994253 48.401489 7.0874227 48.376892 7.0874227 z M 51.360173 7.0874227 C 51.221884 7.0874227 51.027498 7.291508 50.777262 7.6997884 C 50.533611 8.1080688 50.290208 8.6153072 50.046558 9.2211426 C 49.348529 9.2277326 48.769124 9.622966 48.308162 10.4066 C 47.913053 11.065118 47.715434 11.726906 47.715434 12.392008 C 47.715434 12.635661 47.757983 12.849446 47.843591 13.03383 C 47.933975 13.23267 48.059107 13.336273 48.215662 13.35319 C 48.256932 13.368204 48.30072 13.376444 48.347437 13.376444 C 48.554107 13.376444 48.854734 13.059455 49.240922 12.453503 C 49.239554 12.50003 49.236271 12.528961 49.236271 12.589412 C 49.236271 13.083302 49.348273 13.330452 49.572168 13.330452 C 49.579536 13.330452 49.586055 13.325673 49.593355 13.325285 C 49.616219 13.331871 49.635205 13.346989 49.661051 13.346989 C 49.786169 13.346989 49.901404 13.290987 50.006767 13.179041 L 50.57004 12.586312 L 50.481156 12.517065 C 50.469486 12.530578 50.463516 12.534672 50.452218 12.547555 L 50.392273 12.500529 C 50.16344 12.765493 50.009759 12.903166 49.924084 12.925826 C 49.861196 12.872618 49.829 12.731413 49.829 12.497428 C 49.829 11.733549 50.043302 10.682989 50.471338 9.3461995 C 50.871291 8.0753808 51.166181 7.4316572 51.357589 7.4057495 C 51.420246 7.4260914 51.488218 7.4619776 51.567395 7.53184 C 51.679344 7.6306179 51.778411 7.6801514 51.864018 7.6801514 C 51.867476 7.6801514 51.870894 7.6758995 51.874353 7.6755005 C 51.900789 7.6834651 51.928618 7.6966878 51.952901 7.6966878 C 52.005584 7.6966878 52.058351 7.6503873 52.111031 7.558195 L 52.298617 7.242452 L 52.22937 7.2228149 C 52.200999 7.2732522 52.172467 7.3097964 52.144104 7.3359863 L 52.209733 7.2259155 L 52.140487 7.2062785 C 52.084321 7.3061227 52.028181 7.3545686 51.972021 7.3597575 C 51.908378 7.3405462 51.838654 7.3071292 51.755497 7.242452 C 51.636964 7.1502596 51.534663 7.1039591 51.449056 7.1039591 C 51.446241 7.1039591 51.442615 7.1068907 51.439754 7.1070597 C 51.412953 7.0996978 51.384326 7.0874225 51.360173 7.0874227 z M 10.397298 7.7788534 C 10.22608 7.7788534 10.117314 7.9043047 10.07122 8.154541 C 10.02512 8.4047774 10.081119 8.5297119 10.239168 8.5297119 C 10.24274 8.5297119 10.245468 8.5277725 10.248987 8.5276449 C 10.272375 8.5375686 10.29656 8.5462484 10.328052 8.5462484 C 10.486098 8.5462484 10.591632 8.4213138 10.644312 8.1710775 C 10.696992 7.9208411 10.644225 7.7953898 10.486182 7.7953898 C 10.482211 7.7953898 10.479233 7.7973219 10.47533 7.7974569 C 10.452328 7.7876718 10.428517 7.7788534 10.397298 7.7788534 z M 13.923698 9.2309611 C 13.436396 9.2309611 12.949074 9.6261985 12.461772 10.416418 C 12.01398 11.147374 11.789978 11.779545 11.789978 12.312944 C 11.789978 12.596105 11.858908 12.833041 11.997201 13.024011 C 12.122866 13.204314 12.292151 13.305405 12.499495 13.336137 C 12.568119 13.354585 12.639966 13.366626 12.718604 13.366626 C 13.054446 13.366626 13.442701 13.060239 13.883907 12.447819 C 14.377795 11.756377 14.624947 10.999269 14.624947 10.176123 C 14.624947 9.9061312 14.568947 9.6853623 14.456999 9.5141479 C 14.364398 9.3578844 14.236921 9.2741672 14.07821 9.255249 C 14.030041 9.2403038 13.979076 9.2309611 13.923698 9.2309611 z M 26.991634 9.2309611 C 26.504332 9.2309611 26.01701 9.6261985 25.529708 10.416418 C 25.081917 11.147374 24.857914 11.779545 24.857914 12.312944 C 24.857914 12.596105 24.927365 12.833041 25.065653 13.024011 C 25.191319 13.204314 25.360209 13.305405 25.567432 13.336137 C 25.635993 13.354585 25.707902 13.366626 25.78654 13.366626 C 26.122383 13.366626 26.511154 13.060239 26.95236 12.447819 C 27.446248 11.756377 27.692883 10.999269 27.692883 10.176123 C 27.692883 9.9061312 27.636883 9.6853623 27.524935 9.5141479 C 27.432334 9.3578844 27.304857 9.2741672 27.146147 9.255249 C 27.097977 9.2403038 27.047012 9.2309611 26.991634 9.2309611 z M 29.658655 9.2309611 C 29.171352 9.2309611 28.684031 9.6261985 28.196729 10.416418 C 27.748937 11.147374 27.524935 11.779545 27.524935 12.312944 C 27.524935 12.596105 27.594384 12.833041 27.732674 13.024011 C 27.858339 13.204314 28.02723 13.305405 28.234452 13.336137 C 28.303013 13.354585 28.374923 13.366626 28.45356 13.366626 C 28.789404 13.366626 29.178174 13.060239 29.619381 12.447819 C 30.113268 11.756377 30.359904 10.999269 30.359904 10.176123 C 30.359904 10.114689 30.346582 10.065024 30.340784 10.008691 C 30.348214 10.002729 30.352614 10.000532 30.359904 9.9947388 L 30.399695 10.047449 C 30.63606 9.8550583 30.801853 9.7479969 30.90509 9.7162028 C 30.907367 9.7288982 30.908865 9.7429627 30.90354 9.7642619 C 30.383312 11.239339 30.123226 12.428284 30.123226 13.330452 C 30.169509 13.322226 30.17289 13.323601 30.214176 13.3165 C 30.21412 13.325981 30.212109 13.337571 30.212109 13.346989 C 30.508442 13.294322 30.70231 13.264705 30.794503 13.258105 C 30.794503 12.678612 30.896804 11.917754 31.100944 10.976074 C 31.691649 10.213874 32.087351 9.8228186 32.292086 9.7957845 C 32.307594 9.8105889 32.315857 9.8326448 32.315857 9.8629639 C 32.315857 9.8432039 32.217307 10.225512 32.019751 11.009147 C 31.822196 11.792782 31.723128 12.319421 31.723128 12.589412 C 31.723128 13.083301 31.838363 13.330452 32.068844 13.330452 C 32.0753 13.330452 32.081528 13.326174 32.087964 13.325802 C 32.111434 13.332347 32.131204 13.346989 32.157727 13.346989 C 32.269676 13.346989 32.378443 13.290987 32.483805 13.179041 L 33.046562 12.586312 L 32.957678 12.517065 C 32.946008 12.530578 32.940036 12.534672 32.928739 12.547555 L 32.868795 12.500529 C 32.639963 12.765493 32.486725 12.903166 32.401123 12.925826 C 32.338234 12.872618 32.306038 12.731413 32.306038 12.497428 C 32.306038 12.220852 32.414806 11.680762 32.632117 10.877372 C 32.849427 10.073982 32.957678 9.6491274 32.957678 9.6030314 C 32.957678 9.4054764 32.895211 9.3069255 32.770093 9.3069255 C 32.766747 9.3069255 32.763114 9.3079086 32.759757 9.307959 C 32.737019 9.296708 32.711093 9.290389 32.681209 9.290389 C 32.282356 9.290389 31.802335 9.6658461 31.248222 10.381278 C 31.274949 10.287049 31.28969 10.229081 31.347957 10.03763 C 31.413811 9.8269052 31.446659 9.6723533 31.446659 9.5735758 C 31.446659 9.3957764 31.397126 9.3069255 31.298348 9.3069255 C 31.293346 9.3069255 31.284596 9.3121293 31.279228 9.3126099 C 31.259381 9.2988658 31.236934 9.290389 31.209465 9.290389 C 31.067496 9.290389 30.764384 9.5022272 30.327348 9.8898356 C 30.300731 9.7483125 30.26035 9.6187526 30.191956 9.5141479 C 30.099354 9.3578844 29.971877 9.2741672 29.813167 9.255249 C 29.764998 9.2403038 29.714033 9.2309611 29.658655 9.2309611 z M 43.665552 9.2309611 C 43.178249 9.2309611 42.690928 9.6261985 42.203625 10.416418 C 41.755834 11.147374 41.531832 11.779545 41.531832 12.312944 C 41.531832 12.596105 41.600762 12.833041 41.739054 13.024011 C 41.864719 13.204314 42.034005 13.305405 42.241349 13.336137 C 42.309973 13.354585 42.38182 13.366626 42.460457 13.366626 C 42.796301 13.366626 43.184554 13.060239 43.625761 12.447819 C 44.119648 11.756377 44.366801 10.999269 44.366801 10.176123 C 44.366801 9.9061312 44.3108 9.6853623 44.198853 9.5141479 C 44.106252 9.3578844 43.978775 9.2741672 43.820064 9.255249 C 43.771895 9.2403038 43.72093 9.2309611 43.665552 9.2309611 z M 13.793473 9.6335205 C 13.917229 9.6705154 13.982609 9.7866079 13.982609 9.9916382 C 13.982609 10.788443 13.824824 11.503 13.508736 12.135177 C 13.230341 12.69844 12.961374 12.981453 12.702067 12.990938 C 12.568509 12.920819 12.501046 12.65199 12.501046 12.181169 C 12.501046 11.588503 12.636197 11.015565 12.906189 10.46241 C 13.182297 9.9101967 13.477989 9.6344574 13.793473 9.6335205 z M 26.861926 9.6335205 C 26.985682 9.6705154 27.051062 9.7866079 27.051062 9.9916382 C 27.051062 10.788443 26.89276 11.503 26.576672 12.135177 C 26.298278 12.69844 26.02981 12.981453 25.77052 12.990938 C 25.636962 12.920819 25.569499 12.65199 25.569499 12.181169 C 25.569499 11.588503 25.704133 11.015565 25.974125 10.46241 C 26.250232 9.9101967 26.54644 9.6344574 26.861926 9.6335205 z M 29.528947 9.6335205 C 29.652703 9.6705154 29.718083 9.7866079 29.718083 9.9916382 C 29.718083 10.788443 29.559782 11.503 29.243693 12.135177 C 28.965298 12.69844 28.69683 12.981453 28.437541 12.990938 C 28.303983 12.920819 28.236519 12.65199 28.236519 12.181169 C 28.236519 11.588503 28.371153 11.015565 28.641146 10.46241 C 28.917253 9.9101967 29.213462 9.6344574 29.528947 9.6335205 z M 43.535327 9.6335205 C 43.659083 9.6705154 43.724463 9.7866079 43.724463 9.9916382 C 43.724463 10.788443 43.566679 11.503 43.25059 12.135177 C 42.972196 12.69844 42.703227 12.981453 42.443921 12.990938 C 42.310363 12.920819 42.2429 12.65199 42.2429 12.181169 C 42.2429 11.588503 42.37805 11.015565 42.648043 10.46241 C 42.92415 9.9101967 43.219844 9.6344574 43.535327 9.6335205 z M 8.443929 9.7513428 C 8.287856 10.255572 8.1191326 10.912685 7.9375 11.730033 C 7.5446105 12.478979 7.2704807 12.874036 7.1122274 12.924792 C 7.0508873 12.868626 7.018693 12.712392 7.018693 12.447819 C 7.018693 10.755432 7.3945301 9.8664056 8.1452393 9.7807983 L 8.443929 9.7513428 z M 49.822799 9.7658122 C 49.679177 10.225962 49.513714 10.878265 49.325155 11.730033 C 48.932265 12.478979 48.658135 12.874036 48.499882 12.924792 C 48.438678 12.868626 48.406864 12.712392 48.406864 12.447819 C 48.406864 11.802473 48.469331 11.255917 48.59445 10.808126 C 48.78542 10.149609 49.098272 9.807139 49.532894 9.7807983 C 49.676702 9.7708803 49.750009 9.7682282 49.822799 9.7658122 z " />
  </g>
</svg>
