<?xml version="1.0" encoding="UTF-8" standalone="no"?>
<!-- Created with Inkscape (http://www.inkscape.org/) -->

<svg
   width="200"
   height="76"
   viewBox="0 0 52.916665 20.108333"
   version="1.1"
   id="svg1"
   inkscape:version="1.3.1 (9b9bdc1480, 2023-11-25, custom)"
   sodipodi:docname="thyroid-life-logo-light.svg"
   xmlns:inkscape="http://www.inkscape.org/namespaces/inkscape"
   xmlns:sodipodi="http://sodipodi.sourceforge.net/DTD/sodipodi-0.dtd"
   xmlns="http://www.w3.org/2000/svg"
   xmlns:svg="http://www.w3.org/2000/svg">
  <sodipodi:namedview
     id="namedview1"
     pagecolor="#ffffff"
     bordercolor="#000000"
     borderopacity="0.25"
     inkscape:showpageshadow="2"
     inkscape:pageopacity="0.0"
     inkscape:pagecheckerboard="0"
     inkscape:deskcolor="#d1d1d1"
     inkscape:document-units="mm"
     inkscape:zoom="2.9077441"
     inkscape:cx="134.81241"
     inkscape:cy="86.321214"
     inkscape:window-width="1850"
     inkscape:window-height="1016"
     inkscape:window-x="70"
     inkscape:window-y="27"
     inkscape:window-maximized="1"
     inkscape:current-layer="layer1" />
  <defs
     id="defs1" />
  <g
     inkscape:label="Livello 1"
     inkscape:groupmode="layer"
     id="layer1">
    <path
       id="text1"
       style="font-size:9.87778px;font-family:Roboto;-inkscape-font-specification:Roboto;fill:#ffffff;stroke-width:0.264583"
       d="M 46.582686 5.2456746 C 46.036065 5.2456746 45.61358 5.3980629 45.314547 5.7035278 C 45.015512 6.0089927 44.865995 6.44164 44.865995 7.001123 L 44.865995 7.5364909 L 44.041239 7.5364909 L 44.041239 8.2263713 L 44.865995 8.2263713 L 44.865995 12.755294 L 45.757931 12.755294 L 45.757931 8.2263713 L 46.872074 8.2263713 L 46.872074 7.5364909 L 45.757931 7.5364909 L 45.757931 6.9866536 C 45.757931 6.6715425 45.837053 6.4303854 45.994609 6.2631836 C 46.152164 6.0927664 46.375464 6.0073853 46.664852 6.0073853 C 46.835269 6.0073853 46.995868 6.0218548 47.146993 6.0507935 L 47.195569 5.3273234 C 46.992998 5.2726615 46.788473 5.2456746 46.582686 5.2456746 z M 7.3080811 5.3469604 L 7.3080811 12.755294 L 8.200533 12.755294 L 8.200533 9.0366577 C 8.322719 8.785855 8.4929644 8.5832831 8.711613 8.4289429 C 8.9302615 8.2746027 9.1844526 8.1974325 9.4738403 8.1974325 C 9.8307519 8.1974325 10.092637 8.2871199 10.259839 8.4671834 C 10.430256 8.6472469 10.517073 8.9255537 10.520288 9.3017578 L 10.520288 12.755294 L 11.41274 12.755294 L 11.41274 9.3064087 C 11.403094 8.0620412 10.84648 7.439856 9.7435913 7.439856 C 9.1101536 7.439856 8.5960297 7.6829653 8.200533 8.1684937 L 8.200533 5.3469604 L 7.3080811 5.3469604 z M 31.992879 5.3469604 L 31.992879 8.0672078 C 31.635968 7.6492033 31.152218 7.439856 30.541288 7.439856 C 29.927143 7.439856 29.43036 7.6844007 29.05094 8.1731445 C 28.67152 8.6586729 28.481466 9.3015862 28.481466 10.102226 L 28.481466 10.169922 C 28.481466 10.967346 28.67152 11.613647 29.05094 12.108822 C 29.433575 12.603996 29.926971 12.851412 30.53147 12.851412 C 31.168123 12.851412 31.664906 12.632935 32.021818 12.195638 L 32.065226 12.755294 L 32.885331 12.755294 L 32.885331 5.3469604 L 31.992879 5.3469604 z M 26.831954 5.6363485 C 26.658321 5.6363485 26.526661 5.6860153 26.436629 5.7856934 C 26.349813 5.8853714 26.306405 6.0073854 26.306405 6.1520793 C 26.306405 6.2967732 26.349813 6.4173517 26.436629 6.5138143 C 26.526661 6.6102769 26.658321 6.6585083 26.831954 6.6585083 C 27.005587 6.6585083 27.137764 6.6102769 27.227795 6.5138143 C 27.317827 6.4173517 27.362671 6.2967732 27.362671 6.1520793 C 27.362671 6.0073854 27.317827 5.8853714 27.227795 5.7856934 C 27.137764 5.6860153 27.005587 5.6363485 26.831954 5.6363485 z M 42.560193 5.6363485 C 42.38656 5.6363485 42.2549 5.6860153 42.164868 5.7856934 C 42.078052 5.8853714 42.034644 6.0073854 42.034644 6.1520793 C 42.034644 6.2967732 42.078052 6.4173517 42.164868 6.5138143 C 42.2549 6.6102769 42.38656 6.6585083 42.560193 6.6585083 C 42.733826 6.6585083 42.866003 6.6102769 42.956034 6.5138143 C 43.046066 6.4173517 43.09091 6.2967732 43.09091 6.1520793 C 43.09091 6.0073854 43.046066 5.8853714 42.956034 5.7856934 C 42.866003 5.6860153 42.733826 5.6363485 42.560193 5.6363485 z M 0.97513428 5.7324666 L 0.97513428 6.494694 L 3.22771 6.494694 L 3.22771 12.755294 L 4.1491007 12.755294 L 4.1491007 6.494694 L 6.4063273 6.494694 L 6.4063273 5.7324666 L 0.97513428 5.7324666 z M 36.854598 5.7324666 L 36.854598 12.755294 L 41.113253 12.755294 L 41.113253 11.997717 L 37.785291 11.997717 L 37.785291 5.7324666 L 36.854598 5.7324666 z M 19.549194 7.439856 C 19.01222 7.439856 18.597429 7.673319 18.304826 8.1395549 L 18.290356 7.5364909 L 17.422192 7.5364909 L 17.422192 12.755294 L 18.314644 12.755294 L 18.314644 9.0511271 C 18.523647 8.552737 18.92058 8.3033691 19.505786 8.3033691 C 19.663342 8.3033691 19.809472 8.3144508 19.944519 8.3369588 L 19.944519 7.5075521 C 19.854488 7.4625361 19.722827 7.439856 19.549194 7.439856 z M 22.800159 7.439856 C 22.340354 7.439856 21.930387 7.5507882 21.57026 7.7726522 C 21.213348 7.9945162 20.933606 8.3099726 20.731034 8.7183309 C 20.531679 9.1266892 20.431828 9.586323 20.431828 10.097575 L 20.431828 10.160103 C 20.431828 10.970389 20.650305 11.621514 21.087602 12.113472 C 21.528115 12.605432 22.102068 12.851412 22.80946 12.851412 C 23.278911 12.851412 23.693702 12.739045 24.053829 12.513965 C 24.417171 12.288886 24.695478 11.975381 24.888403 11.573454 C 25.084544 11.168311 25.182442 10.711548 25.182442 10.203512 L 25.182442 10.140983 C 25.182442 9.3242665 24.96253 8.6697547 24.522017 8.1777954 C 24.084721 7.6858362 23.510767 7.439856 22.800159 7.439856 z M 49.794893 7.439856 C 49.380104 7.439856 48.994253 7.5556113 48.637341 7.7871216 C 48.283645 8.0154164 48.00729 8.3337437 47.807935 8.7421021 C 47.611793 9.147245 47.513896 9.6088309 47.513896 10.126514 L 47.513896 10.290328 C 47.513896 11.06846 47.73576 11.690645 48.179488 12.156881 C 48.623216 12.619902 49.198606 12.851412 49.905998 12.851412 C 50.780592 12.851412 51.436539 12.515744 51.873836 11.843722 L 51.32865 11.418941 C 51.164663 11.631159 50.97369 11.801921 50.755042 11.930538 C 50.536393 12.059155 50.269168 12.123291 49.954057 12.123291 C 49.510329 12.123291 49.14377 11.965563 48.854382 11.650452 C 48.568208 11.332125 48.418691 10.9159 48.405831 10.401432 L 51.941532 10.401432 L 51.941532 10.029879 C 51.941532 9.197085 51.75343 8.5575595 51.377226 8.110616 C 51.001022 7.6636727 50.473347 7.439856 49.794893 7.439856 z M 12.179618 7.5364909 L 14.041003 12.697416 L 13.843599 13.227616 C 13.734276 13.552374 13.594405 13.776191 13.423987 13.898376 C 13.256785 14.020562 13.021886 14.081311 12.719637 14.081311 L 12.478308 14.062191 L 12.478308 14.785661 L 12.811104 14.848189 L 12.980086 14.862659 C 13.687479 14.862659 14.203555 14.428576 14.528312 13.560413 L 16.626375 7.5364909 L 15.671395 7.5364909 L 14.455965 11.44788 L 13.153719 7.5364909 L 12.179618 7.5364909 z M 26.378752 7.5364909 L 26.378752 12.755294 L 27.271204 12.755294 L 27.271204 7.5364909 L 26.378752 7.5364909 z M 42.106991 7.5364909 L 42.106991 12.755294 L 42.999443 12.755294 L 42.999443 7.5364909 L 42.106991 7.5364909 z M 22.800159 8.1731445 C 23.250318 8.1731445 23.610101 8.3516008 23.880196 8.7085124 C 24.153507 9.0622086 24.290507 9.5252301 24.290507 10.097575 C 24.290507 10.737444 24.156894 11.235662 23.890015 11.592574 C 23.623135 11.94627 23.262835 12.123291 22.80946 12.123291 C 22.359302 12.123291 21.999519 11.948223 21.729423 11.597742 C 21.462543 11.247261 21.328931 10.782287 21.328931 10.203512 C 21.328931 9.5507813 21.463979 9.0491746 21.734074 8.6986938 C 22.00417 8.3482131 22.359646 8.1731445 22.800159 8.1731445 z M 49.794893 8.1731445 C 50.167882 8.1731445 50.464046 8.2985462 50.682694 8.549349 C 50.901343 8.7969363 51.023357 9.1475901 51.04908 9.6009644 L 51.04908 9.6681437 L 48.43477 9.6681437 C 48.492648 9.195477 48.644117 8.8289182 48.888489 8.5684692 C 49.132861 8.3048048 49.434766 8.1731445 49.794893 8.1731445 z M 30.76298 8.1974325 C 31.316032 8.1974325 31.725999 8.4434126 31.992879 8.9353719 L 31.992879 11.332125 C 31.73243 11.840162 31.319075 12.094352 30.753162 12.094352 C 30.322295 12.094352 29.984676 11.926978 29.740304 11.592574 C 29.495932 11.25817 29.373918 10.795149 29.373918 10.203512 C 29.373918 9.541135 29.495932 9.0414806 29.740304 8.7038615 C 29.984676 8.3662424 30.325683 8.1974325 30.76298 8.1974325 z " />
  </g>
</svg>
