<?xml version="1.0" encoding="UTF-8"?>
<!DOCTYPE svg PUBLIC "-//W3C//DTD SVG 1.1//EN" "http://www.w3.org/Graphics/SVG/1.1/DTD/svg11.dtd">
<svg xmlns="http://www.w3.org/2000/svg" version="1.1" width="400px" height="400px" style="shape-rendering:geometricPrecision; text-rendering:geometricPrecision; image-rendering:optimizeQuality; fill-rule:evenodd; clip-rule:evenodd" xmlns:xlink="http://www.w3.org/1999/xlink">
<g><path style="opacity:1" fill="#222222" d="M -0.5,-0.5 C 132.833,-0.5 266.167,-0.5 399.5,-0.5C 399.5,132.833 399.5,266.167 399.5,399.5C 266.167,399.5 132.833,399.5 -0.5,399.5C -0.5,266.167 -0.5,132.833 -0.5,-0.5 Z"/></g>
<g><path style="opacity:1" fill="#fdfdfd" d="M 234.5,175.5 C 230.5,175.5 226.5,175.5 222.5,175.5C 222.17,194.008 222.503,212.341 223.5,230.5C 223.071,234.459 224.071,237.959 226.5,241C 230.5,241.333 234.5,241.667 238.5,242C 239.308,242.308 239.975,242.808 240.5,243.5C 241.606,247.777 241.772,252.11 241,256.5C 240.535,257.931 239.701,259.097 238.5,260C 231.833,260.667 225.167,260.667 218.5,260C 207.262,255.392 201.595,246.892 201.5,234.5C 201.5,214.833 201.5,195.167 201.5,175.5C 199.5,175.5 197.5,175.5 195.5,175.5C 193.589,175.426 192.422,174.426 192,172.5C 191.333,167.833 191.333,163.167 192,158.5C 194.546,155.814 197.713,154.814 201.5,155.5C 201.454,141.482 201.954,127.482 203,113.5C 204.877,110.008 207.877,108.674 212,109.5C 215.84,109.039 219.173,110.039 222,112.5C 222.5,126.829 222.667,141.163 222.5,155.5C 226.846,155.334 231.179,155.501 235.5,156C 236.025,156.692 236.692,157.192 237.5,157.5C 238.663,162.802 238.829,168.136 238,173.5C 237.184,174.823 236.017,175.489 234.5,175.5 Z"/></g>
<g><path style="opacity:1" fill="#f9f9f9" d="M 154.5,255.5 C 154.833,217.494 154.5,179.494 153.5,141.5C 152.893,141.624 152.56,141.957 152.5,142.5C 149.887,143.435 147.221,143.602 144.5,143C 143.874,142.25 143.374,141.416 143,140.5C 142.333,134.833 142.333,129.167 143,123.5C 143.374,122.584 143.874,121.75 144.5,121C 154.95,117.386 165.617,115.052 176.5,114C 177.701,114.903 178.535,116.069 179,117.5C 179.667,162.5 179.667,207.5 179,252.5C 178.771,255.458 177.604,257.958 175.5,260C 169.5,260.667 163.5,260.667 157.5,260C 155.859,258.871 154.859,257.371 154.5,255.5 Z"/></g>
<g><path style="opacity:1" fill="#fdfdfd" d="M 121.5,113.5 C 124.652,112.959 127.152,113.959 129,116.5C 129.98,163.879 129.647,211.212 128,258.5C 127.25,259.126 126.416,259.626 125.5,260C 119.5,260.667 113.5,260.667 107.5,260C 106.299,259.097 105.465,257.931 105,256.5C 104.5,218.501 104.333,180.501 104.5,142.5C 102.152,142.67 99.8183,143.003 97.5,143.5C 95.4205,143.314 93.9205,142.314 93,140.5C 92.0906,134.388 92.424,128.388 94,122.5C 102.968,118.802 112.135,115.802 121.5,113.5 Z"/></g>
<g><path style="opacity:1" fill="#c6c6c6" d="M 152.5,142.5 C 152.56,141.957 152.893,141.624 153.5,141.5C 154.5,179.494 154.833,217.494 154.5,255.5C 153.833,217.833 153.167,180.167 152.5,142.5 Z"/></g>
<g><path style="opacity:1" fill="#fbfbfb" d="M 247.5,155.5 C 252.844,155.334 258.177,155.501 263.5,156C 264.5,156.833 265.5,157.667 266.5,158.5C 270.658,177.761 274.491,197.094 278,216.5C 280.918,197.486 283.918,178.486 287,159.5C 287.833,158 289,156.833 290.5,156C 295.229,155.004 299.729,155.504 304,157.5C 304.667,161.167 304.667,164.833 304,168.5C 297.573,201.162 291.239,233.829 285,266.5C 282.37,282.556 273.204,288.723 257.5,285C 255.376,283.878 253.543,282.378 252,280.5C 251.333,276.167 251.333,271.833 252,267.5C 253.126,266.056 254.626,265.39 256.5,265.5C 259.154,266.268 261.821,266.434 264.5,266C 266.943,258.618 267.11,251.118 265,243.5C 258.789,217.441 252.456,191.441 246,165.5C 245.153,161.928 245.653,158.594 247.5,155.5 Z"/></g>
<g><path style="opacity:1" fill="#898989" d="M 195.5,175.5 C 197.5,175.5 199.5,175.5 201.5,175.5C 201.5,195.167 201.5,214.833 201.5,234.5C 200.503,215.341 200.17,196.007 200.5,176.5C 198.585,176.784 196.919,176.451 195.5,175.5 Z"/></g>
<g><path style="opacity:1" fill="#5a5a5a" d="M 234.5,175.5 C 231.038,176.482 227.371,176.815 223.5,176.5C 223.5,194.5 223.5,212.5 223.5,230.5C 222.503,212.341 222.17,194.008 222.5,175.5C 226.5,175.5 230.5,175.5 234.5,175.5 Z"/></g>
</svg>
