<?xml version="1.0" encoding="UTF-8"?>
<svg xmlns="http://www.w3.org/2000/svg" xmlns:xlink="http://www.w3.org/1999/xlink" width="150px" height="150px" viewBox="0 0 150 150" version="1.1">
<g id="surface1">
<path style=" stroke:none;fill-rule:evenodd;fill:rgb(0%,9.803922%,20.392157%);fill-opacity:1;" d="M 6.25 6.410156 L 143.75 6.410156 L 143.75 143.589844 L 6.25 143.589844 Z M 6.25 6.410156 "/>
<path style=" stroke:none;fill-rule:nonzero;fill:rgb(32.941176%,69.019608%,100%);fill-opacity:1;" d="M 6.25 6.410156 L 143.75 6.410156 L 143.75 143.589844 L 6.25 143.589844 Z M 0 150 L 150 150 L 150 0 L 0 0 Z M 0 150 "/>
<path style=" stroke:none;fill-rule:nonzero;fill:rgb(32.941176%,69.019608%,100%);fill-opacity:1;" d="M 38.25 37.949219 C 38.25 37.5625 38.375 37.242188 38.875 37.242188 C 42.8125 37.050781 48.5625 36.921875 54.5625 36.921875 C 71.4375 36.921875 78.8125 46.410156 78.8125 58.589844 C 78.8125 74.488281 67.625 81.28125 53.875 81.28125 C 51.5625 81.28125 50.75 81.152344 49.125 81.152344 L 49.125 105.191406 C 49.125 105.707031 48.9375 105.898438 48.4375 105.898438 L 39 105.898438 C 38.5 105.898438 38.3125 105.707031 38.3125 105.191406 L 38.3125 37.949219 Z M 49.125 71.152344 C 50.5625 71.28125 51.625 71.28125 54.0625 71.28125 C 61.1875 71.28125 67.875 68.71875 67.875 58.78125 C 67.875 50.832031 63.125 46.792969 55 46.792969 C 52.5625 46.792969 50.25 46.921875 49.1875 46.988281 L 49.1875 71.152344 Z M 49.125 71.152344 "/>
<path style=" stroke:none;fill-rule:nonzero;fill:rgb(32.941176%,69.019608%,100%);fill-opacity:1;" d="M 85.375 66.730469 C 85 66.730469 84.875 66.539062 84.875 66.027344 L 84.875 57.5 C 84.875 56.988281 85 56.859375 85.375 56.859375 L 91 56.859375 L 91 53.652344 C 91 49.808594 91.625 46.539062 93 43.71875 C 95.5 38.460938 99.8125 36.089844 105.875 36.089844 C 107.6875 36.089844 109 36.21875 110 36.601562 C 110.5 36.792969 110.625 36.988281 110.625 37.5 L 110.625 45.769531 C 110.625 46.28125 110.4375 46.472656 109.9375 46.410156 C 109.125 46.21875 108 46.089844 107.25 46.089844 C 103.75 46.089844 102 48.652344 102 53.652344 L 102 56.859375 L 109.9375 56.859375 C 110.4375 56.859375 110.5625 56.988281 110.5625 57.371094 L 110.5625 65.960938 C 110.5625 66.472656 110.4375 66.601562 109.9375 66.667969 L 102 66.667969 L 102 105.191406 C 102 105.578125 101.875 105.898438 101.3125 105.898438 L 91.75 105.898438 C 91.25 105.898438 91.0625 105.578125 91.0625 105.191406 L 91.0625 66.667969 L 85.375 66.667969 Z M 85.375 66.730469 "/>
</g>
</svg>
