<?xml version="1.0" encoding="UTF-8"?>
<!DOCTYPE svg PUBLIC "-//W3C//DTD SVG 1.1//EN" "http://www.w3.org/Graphics/SVG/1.1/DTD/svg11.dtd">
<svg xmlns="http://www.w3.org/2000/svg" version="1.1" width="400px" height="400px" style="shape-rendering:geometricPrecision; text-rendering:geometricPrecision; image-rendering:optimizeQuality; fill-rule:evenodd; clip-rule:evenodd" xmlns:xlink="http://www.w3.org/1999/xlink">
<g><path style="opacity:1" fill="#fefefe" d="M -0.5,-0.5 C 132.833,-0.5 266.167,-0.5 399.5,-0.5C 399.5,132.833 399.5,266.167 399.5,399.5C 266.167,399.5 132.833,399.5 -0.5,399.5C -0.5,266.167 -0.5,132.833 -0.5,-0.5 Z"/></g>
<g><path style="opacity:1" fill="#929292" d="M 53.5,152.5 C 47.1308,152.347 40.7974,152.68 34.5,153.5C 37.8646,151.961 41.5313,151.294 45.5,151.5C 48.3555,151.503 51.0221,151.836 53.5,152.5 Z"/></g>
<g><path style="opacity:1" fill="#939393" d="M 338.5,152.5 C 340.978,151.836 343.645,151.503 346.5,151.5C 350.469,151.294 354.135,151.961 357.5,153.5C 351.203,152.68 344.869,152.347 338.5,152.5 Z"/></g>
<g><path style="opacity:1" fill="#222222" d="M 53.5,152.5 C 63.129,154.615 69.9624,160.282 74,169.5C 74.994,174.118 75.494,178.785 75.5,183.5C 71.5,183.5 67.5,183.5 63.5,183.5C 62.849,164.362 53.5157,158.196 35.5,165C 33.5612,166.432 32.2279,168.265 31.5,170.5C 30.0744,172.679 29.4078,175.179 29.5,178C 29.5085,179.707 29.8418,181.207 30.5,182.5C 32.9493,188.795 37.116,193.795 43,197.5C 46.4987,201.827 49.4987,206.494 52,211.5C 53.3482,224.125 53.8482,236.791 53.5,249.5C 49.5,249.5 45.5,249.5 41.5,249.5C 41.9394,237.091 41.4394,224.758 40,212.5C 32.9602,205.129 26.2935,197.462 20,189.5C 14.0691,173.043 18.9024,161.043 34.5,153.5C 40.7974,152.68 47.1308,152.347 53.5,152.5 Z"/></g>
<g><path style="opacity:1" fill="#232323" d="M 338.5,152.5 C 344.869,152.347 351.203,152.68 357.5,153.5C 374.768,161.462 379.268,174.129 371,191.5C 364.086,198.426 357.753,205.76 352,213.5C 350.635,225.453 350.135,237.453 350.5,249.5C 346.5,249.5 342.5,249.5 338.5,249.5C 338.099,236.448 338.599,223.448 340,210.5C 341.667,207.833 343.333,205.167 345,202.5C 352.211,196.635 357.877,189.635 362,181.5C 362.438,165.95 354.938,159.784 339.5,163C 331.422,167.357 327.756,174.19 328.5,183.5C 324.5,183.5 320.5,183.5 316.5,183.5C 316.208,167.497 323.542,157.163 338.5,152.5 Z"/></g>
<g><path style="opacity:1" fill="#7f7f7f" d="M 31.5,170.5 C 30.8379,174.466 30.5045,178.466 30.5,182.5C 29.8418,181.207 29.5085,179.707 29.5,178C 29.4078,175.179 30.0744,172.679 31.5,170.5 Z"/></g>
<g><path style="opacity:1" fill="#6e6e6e" d="M 275.5,182.5 C 270.12,182.324 264.787,182.658 259.5,183.5C 259.918,182.778 260.584,182.278 261.5,182C 266.352,181.185 271.019,181.352 275.5,182.5 Z"/></g>
<g><path style="opacity:1" fill="#222222" d="M 275.5,182.5 C 289.357,187.167 295.19,196.834 293,211.5C 287.073,228.047 275.573,233.881 258.5,229C 245.893,221.525 241.727,210.692 246,196.5C 249.07,190.595 253.57,186.262 259.5,183.5C 264.787,182.658 270.12,182.324 275.5,182.5 Z"/></g>
<g><path style="opacity:1" fill="#222222" d="M 111.5,181.5 C 125.492,179.579 135.659,184.912 142,197.5C 145.474,211.409 140.974,221.909 128.5,229C 108.229,234.214 96.8956,226.548 94.5,206C 93.8794,198.245 96.5461,191.912 102.5,187C 105.596,185.128 108.596,183.295 111.5,181.5 Z"/></g>
<g><path style="opacity:1" fill="#222222" d="M 186.5,191.5 C 196.372,190.305 205.372,192.472 213.5,198C 217.212,203.95 218.379,210.45 217,217.5C 213.749,222.755 209.749,227.422 205,231.5C 204.333,232.167 204.333,232.833 205,233.5C 207.66,234.834 210.494,235.668 213.5,236C 218.823,236.499 224.156,236.666 229.5,236.5C 229.5,240.833 229.5,245.167 229.5,249.5C 216.676,250.293 204.676,247.626 193.5,241.5C 182.324,247.626 170.324,250.293 157.5,249.5C 157.5,245.167 157.5,240.833 157.5,236.5C 163.176,236.666 168.843,236.499 174.5,236C 177.149,235.548 179.649,234.714 182,233.5C 182.667,232.833 182.667,232.167 182,231.5C 177.251,227.422 173.251,222.755 170,217.5C 167.232,203.335 172.732,194.668 186.5,191.5 Z"/></g>
</svg>
