<?xml version="1.0" encoding="utf-8"?>
<!-- Generator: Adobe Illustrator 24.3.0, SVG Export Plug-In . SVG Version: 6.00 Build 0)  -->
<svg version="1.1" id="Layer_1" xmlns="http://www.w3.org/2000/svg" xmlns:xlink="http://www.w3.org/1999/xlink" x="0px" y="0px"
	 viewBox="0 0 512 512" style="enable-background:new 0 0 512 512;" xml:space="preserve">
<style type="text/css">
	.st0{fill:#00A8E9;}
</style>
<g id="XMLID_1_">
	<path id="XMLID_15_" class="st0" d="M29.36,467.99c7.86,3.65,15.58,5.19,23.43,5.19c7.44,0,14.59-1.54,21.61-5.05
		c2.95-1.4,5.33-2.25,7.02-2.67c2.95-0.56,5.19-1.4,6.03-2.25c2.25-1.96,4.21-4.63,5.75-8c1.54-3.37,2.39-6.46,2.39-9.26
		c0-2.25-0.56-4.07-1.82-5.61c-1.26-1.54-2.67-2.25-4.21-2.25c-1.26,0-2.67,0.84-4.35,2.67c-1.96,1.96-5.05,3.65-8.56,5.05
		c-3.79,1.26-7.44,1.82-11.23,1.82c-10.24,0-18.24-4.35-23.57-13.33c-4.07-6.6-6.17-14.03-6.17-22.17c0-5.75,1.4-10.66,4.21-14.03
		c2.81-3.37,6.6-5.19,11.37-5.19c5.05,0,9.82,1.54,14.17,4.77c1.82,1.4,3.37,2.81,4.63,4.35c1.26,1.54,2.81,4.21,5.05,8
		c1.4,2.67,2.81,4.35,4.35,5.33c1.54,0.98,3.37,1.54,5.75,1.54c2.67,0,5.05-0.84,7.02-2.25c3.79-2.67,5.75-6.74,5.75-12.35
		c0-8-2.25-14.73-6.74-20.21c-1.82-2.25-4.07-3.37-6.46-3.37c-0.84,0-1.4,0-1.96,0.14c-1.82,0.42-3.23,0.56-4.07,0.56
		c-1.26,0-3.23-0.84-6.17-2.25c-6.46-2.95-13.05-4.35-19.79-4.35c-7.16,0-14.45,1.4-21.19,4.35c-8.98,4.07-16.42,9.54-22.03,16.98
		c-6.46,8.56-9.54,17.96-9.54,28.35c0,8.98,2.67,17.4,7.86,25.54C13.08,457.61,20.1,464.06,29.36,467.99z M106.54,397.27
		c2.67,1.54,4.21,4.07,5.05,7.16c0.56,3.23,0.98,10.66,0.98,22.03c0,11.23-0.42,19.79-1.26,25.96c-0.42,3.65-1.54,5.75-3.37,6.6
		c-1.96,0.84-3.23,1.54-3.79,2.25c-0.56,0.56-0.84,1.4-0.84,2.67c0,1.4,0.56,2.81,1.54,4.07c0.98,1.26,2.39,2.25,4.21,2.81
		c3.65,1.4,9.96,1.96,18.94,1.96c8,0,13.61-0.56,16.98-1.54c1.82-0.56,3.23-1.4,4.35-2.67c0.98-1.26,1.54-2.67,1.54-4.21
		c0-1.26-0.14-2.25-0.84-2.81c-0.56-0.56-1.82-1.4-3.37-2.25c-1.96-0.84-3.65-2.25-3.79-3.79c-0.42-1.54-0.84-7.44-0.84-17.4v-22.59
		c0-7.02,0.84-14.59,1.4-23.01c0.42-5.33,0.98-8.84,0.98-10.38c0-4.63-1.82-6.74-5.33-6.74c-2.39,0-6.03,0.42-11.23,1.4
		c-5.19,0.84-9.26,1.82-12.63,2.81c-4.77,1.4-8.42,2.95-10.66,4.77c-2.25,1.82-3.23,3.79-3.23,6.03c0,1.4,0.42,2.67,0.98,3.65
		C103.31,395.02,104.72,396.29,106.54,397.27z M192.14,473.33c11.37,0,21.61-3.37,30.59-10.24c9.4-7.16,14.03-15.86,14.03-25.82
		c0-5.75-1.4-11.37-4.35-16.84c-2.81-5.19-6.6-9.26-11.23-12.35c-6.46-4.35-14.03-6.6-22.59-6.6c-12.21,0-22.73,3.65-31.43,10.95
		c-8.14,7.02-12.35,16-12.35,26.94c0,9.96,3.37,17.96,9.96,24.14C171.93,470.1,181.05,473.33,192.14,473.33z M188.07,419.86
		c1.26-1.54,2.81-2.25,5.05-2.25c2.81,0,5.05,1.82,6.46,5.05c1.4,3.23,2.81,7.16,3.79,12.21c0.98,5.05,1.54,9.4,1.54,13.33
		c0,5.19-1.96,8-6.17,8c-3.23,0-5.61-1.96-7.02-5.75c-1.4-3.79-2.81-8-3.79-12.77c-0.98-4.77-1.54-8.56-1.54-11.37
		C186.24,423.51,186.95,421.4,188.07,419.86z M297.24,472.06c0.84,0.56,2.39,0.84,4.63,0.84c5.33,0,11.23-0.56,16.98-1.96
		c9.96-2.25,15.01-5.61,15.01-9.82c0-2.25-0.84-3.79-2.95-5.05c-2.81-1.4-3.65-2.81-3.65-4.35V420.7c0-3.23-0.42-6.03-0.42-8.14
		c0-1.54-0.14-2.67-0.14-3.23c0-5.05-2.39-7.58-7.16-7.58c-8.42,0-17.26,0.98-25.82,3.23c-4.63,1.26-7.02,3.23-7.02,6.03
		c0,2.25,1.4,4.07,4.07,5.33c1.4,0.84,2.25,1.4,2.67,1.82c0.42,0.56,0.84,1.4,0.98,2.67c0.56,2.81,0.84,8,0.84,15.86
		c0,7.86-0.56,12.77-1.54,15.01c-0.56,1.26-1.4,1.96-2.81,2.81c-1.4,0.84-2.67,1.26-4.07,1.26c-5.33,0-8-4.07-8-12.21v-38.03
		c0-2.39-1.4-3.65-4.21-3.65c-9.26,0-18.38,0.98-27.64,2.95c-5.33,1.26-8,3.65-8,7.02c0,0.98,0.14,1.82,0.84,2.39
		c0.42,0.56,1.54,1.4,3.37,2.25c1.96,0.98,2.95,2.67,3.79,4.35c0.84,1.82,0.98,4.77,0.98,8.84v3.23v9.82
		c0,10.24,1.54,17.54,4.77,22.03c3.65,5.19,9.96,7.86,18.94,7.86c5.33,0,10.66-1.54,15.16-4.77c2.39-1.54,3.79-2.67,4.21-2.81
		c0.42-0.14,0.98-0.42,1.54-0.42c1.54,0,2.39,1.4,2.67,4.35C295.84,470.66,296.54,471.64,297.24,472.06z M349.87,465.19
		c5.75,5.33,12.35,8,19.65,8c5.75,0,11.23-1.96,16-5.75c1.54-1.4,2.95-2.25,3.79-2.25c1.4,0,2.25,1.26,2.67,3.65
		c0.14,1.54,0.42,2.81,0.84,3.23c0.42,0.42,1.4,0.56,2.95,0.56c6.74,0,13.61-0.84,20.35-2.67c7.58-1.96,11.23-4.77,11.23-8.56
		c0-1.26-0.14-2.39-0.84-3.23c-0.56-0.84-1.82-1.96-3.37-2.95c-1.4-0.98-3.23-1.96-3.37-2.95c-0.42-0.98-1.4-3.37-1.4-7.02v-63.99
		c0-3.79-1.26-5.75-5.19-5.75c-4.07,0-11.65,1.54-23.57,5.05c-6.74,1.96-9.96,4.63-9.96,8c0,2.39,1.54,4.07,4.63,5.05
		c2.25,0.56,3.65,1.4,4.35,2.39c0.84,0.98,1.26,2.25,1.26,4.07c0,4.07-0.84,6.03-2.25,6.03c-0.42,0-0.98-0.14-1.54-0.56
		c-4.21-2.39-9.26-3.65-14.59-3.65c-4.77,0-9.54,1.26-14.45,3.79c-5.75,2.95-10.38,7.44-13.75,13.05
		c-3.65,6.17-5.33,12.35-5.33,18.94c0,5.61,1.4,11.23,4.21,16.56C343.69,458.31,346.5,462.1,349.87,465.19z M374.42,421.4
		c1.82-3.23,4.21-4.77,7.16-4.77c2.39,0,4.21,0.98,5.61,2.95c1.54,2.39,2.39,7.16,2.39,14.45c0,7.86-0.56,13.61-1.96,16.98
		c-1.4,3.65-3.65,5.19-6.6,5.19c-2.81,0-5.05-1.26-6.6-3.65c-2.25-3.23-3.37-8-3.37-14.45C370.92,431.23,372.04,425.61,374.42,421.4
		z M461.15,455.5c2.67-0.14,4.21-0.42,4.77-0.42c1.82,0,2.81,0.84,2.81,2.67c0,2.25-1.26,5.19-3.37,8.84
		c-2.39,4.07-5.33,7.02-8.84,9.26c-2.81,1.82-4.21,3.23-4.21,4.21c0,1.4,2.25,3.37,6.74,5.75c4.35,2.39,8.14,3.65,10.95,3.65
		c1.54,0,3.65-0.84,6.03-2.67c9.96-7.44,18.66-17.4,25.96-29.75c6.6-11.23,9.96-22.03,9.96-32.13c0-12.63-5.05-21.75-15.16-27.64
		c-7.86-4.21-16.14-6.46-25.54-6.46c-11.65,0-21.33,2.95-29.47,8.84c-7.58,5.33-11.37,13.19-11.37,23.15
		c0,5.05,0.98,9.82,2.81,14.45c1.82,4.63,4.63,8.56,8,11.79c4.63,4.35,10.66,6.46,17.96,6.46
		C460.02,455.64,460.72,455.64,461.15,455.5z M465.07,413.41c1.4-1.54,2.95-2.67,5.05-2.67c2.25,0,4.21,0.98,6.03,2.95
		c1.4,1.54,2.67,4.07,3.65,7.16c0.98,3.23,1.54,6.03,1.54,8.56c0,2.25-0.56,4.07-1.82,5.33c-1.26,1.4-2.81,2.25-4.63,2.25
		c-3.23,0-6.03-1.82-8.42-5.19c-2.39-3.37-3.65-7.58-3.65-12.35C463.11,417.2,463.95,415.23,465.07,413.41z M482.05,157.31
		c-27.22-27.22-65.95-36.06-100.33-26.24c-6.03-60.76-57.39-108.33-119.56-108.33c-57.53,0-105.81,40.55-117.45,94.86
		c-38.03-12.21-81.25-3.23-111.42,26.94c-42.94,42.94-42.94,112.54,0,155.62c35.64,35.64,87.56,45.75,114.65,45.75h12.77h197.44
		c40.84,0.14,85.04-4.35,123.77-42.94C522.05,262.41,522.05,197.44,482.05,157.31z M310.86,243.89c-8,13.61-36.77,56.13-50.8,56.13
		c-7.44,0-34.66-13.61-34.66-23.15c0-3.37,3.79-7.02,5.75-8.14c12.63-8.14,26.38-32.13,26.38-45.47c0-4.35-2.39-6.17-5.61-6.17
		c-4.21,0-8.56,0.98-12.77,0.98c-38.59,0-56.41-41.82-56.41-79.42c0-53.04,41.26-77.18,78.86-77.18c39.99,0,80.41,24.56,80.41,80.41
		C342.15,180.04,328.68,213.86,310.86,243.89z M259.64,110.3c-8.84,0-13.61,11.65-13.61,21.61c0,16.56,7.44,42.8,23.15,42.8
		c8.14,0,12.63-9.26,12.63-18.66C281.67,141.87,275.07,110.3,259.64,110.3z"/>
</g>
</svg>
