<?xml version="1.0" encoding="UTF-8"?>
<!DOCTYPE svg PUBLIC "-//W3C//DTD SVG 1.1//EN" "http://www.w3.org/Graphics/SVG/1.1/DTD/svg11.dtd">
<svg xmlns="http://www.w3.org/2000/svg" version="1.1" width="364px" height="364px" style="shape-rendering:geometricPrecision; text-rendering:geometricPrecision; image-rendering:optimizeQuality; fill-rule:evenodd; clip-rule:evenodd" xmlns:xlink="http://www.w3.org/1999/xlink">
<g><path style="opacity:0.986" fill="#795de7" d="M 161.5,22.5 C 208.142,19.7403 244.642,37.407 271,75.5C 293.702,114.623 294.035,153.957 272,193.5C 264.113,205.557 254.613,216.224 243.5,225.5C 249.591,233.808 257.591,236.641 267.5,234C 272.833,230.667 278.167,227.333 283.5,224C 287.5,223.333 291.5,223.333 295.5,224C 302.99,228.979 304.49,235.479 300,243.5C 284.84,261.329 266.007,266.829 243.5,260C 238.84,258.005 234.506,255.505 230.5,252.5C 230.167,253.333 229.833,254.167 229.5,255C 234.503,279.635 232.003,303.468 222,326.5C 214.079,333.305 206.413,332.971 199,325.5C 196.123,321.211 195.123,316.544 196,311.5C 202.44,292.951 203.107,274.285 198,255.5C 198.554,287.851 187.72,315.684 165.5,339C 153.29,342.644 145.956,338.144 143.5,325.5C 144.178,322.456 145.011,319.456 146,316.5C 161.172,298.65 168.172,277.984 167,254.5C 160.536,279.599 147.37,300.433 127.5,317C 119.881,324.289 112.381,324.122 105,316.5C 100.495,309.316 100.828,302.316 106,295.5C 120.093,284.432 129.76,270.432 135,253.5C 119.314,275.393 98.8145,281.56 73.5,272C 64.801,265.291 64.4676,258.291 72.5,251C 79.1009,248.038 85.9342,247.204 93,248.5C 103.772,248.23 110.605,242.896 113.5,232.5C 109.039,227.889 104.039,223.722 98.5,220C 62.8873,185.385 52.3873,144.218 67,96.5C 84.9499,54.3688 116.45,29.7021 161.5,22.5 Z M 228.5,111.5 C 241.63,110.463 247.463,116.463 246,129.5C 241.741,137.05 235.575,139.55 227.5,137C 219.257,131.907 217.424,125.074 222,116.5C 223.965,114.45 226.132,112.783 228.5,111.5 Z M 131.5,124.5 C 145.146,127.458 148.813,135.125 142.5,147.5C 135.116,153.922 127.949,153.588 121,146.5C 116.206,135.091 119.706,127.758 131.5,124.5 Z"/></g>
</svg>
