<?xml version="1.0" encoding="UTF-8"?>
<!DOCTYPE svg PUBLIC "-//W3C//DTD SVG 1.1//EN" "http://www.w3.org/Graphics/SVG/1.1/DTD/svg11.dtd">
<svg xmlns="http://www.w3.org/2000/svg" version="1.1" width="225px" height="225px" style="shape-rendering:geometricPrecision; text-rendering:geometricPrecision; image-rendering:optimizeQuality; fill-rule:evenodd; clip-rule:evenodd" xmlns:xlink="http://www.w3.org/1999/xlink">
<g><path style="opacity:1" fill="#000000" d="M -0.5,-0.5 C 74.5,-0.5 149.5,-0.5 224.5,-0.5C 224.5,74.5 224.5,149.5 224.5,224.5C 149.5,224.5 74.5,224.5 -0.5,224.5C -0.5,149.5 -0.5,74.5 -0.5,-0.5 Z"/></g>
<g><path style="opacity:1" fill="#ed0563" d="M 128.5,53.5 C 127.063,54.7255 125.396,55.7255 123.5,56.5C 123.036,57.6364 122.702,58.6364 122.5,59.5C 115.324,55.0782 107.991,50.9116 100.5,47C 90.726,45.303 84.226,49.1364 81,58.5C 80.5003,66.1594 80.3336,73.8261 80.5,81.5C 80.1667,81.5 79.8333,81.5 79.5,81.5C 76.8333,79.5 74.1667,77.5 71.5,75.5C 69.1011,63.0234 72.1011,52.1901 80.5,43C 88.0936,37.3609 96.427,36.0276 105.5,39C 113.568,43.358 121.235,48.1914 128.5,53.5 Z"/></g>
<g><path style="opacity:1" fill="#010000" d="M 122.5,59.5 C 139.295,70.4029 156.295,81.0695 173.5,91.5C 177.871,94.4535 182.037,97.7869 186,101.5C 189.909,109.779 188.409,116.945 181.5,123C 155.167,139.333 128.833,155.667 102.5,172C 96.3247,174.38 90.658,173.547 85.5,169.5C 83.4862,166.806 81.9862,163.806 81,160.5C 80.5006,155.177 80.334,149.844 80.5,144.5C 88.8053,139.344 97.1387,134.178 105.5,129C 113.821,119.829 114.654,109.995 108,99.5C 105.751,96.6294 102.918,94.6294 99.5,93.5C 93.3717,89.2639 87.0384,85.2639 80.5,81.5C 80.3336,73.8261 80.5003,66.1594 81,58.5C 84.226,49.1364 90.726,45.303 100.5,47C 107.991,50.9116 115.324,55.0782 122.5,59.5 Z"/></g>
<g><path style="opacity:1" fill="#d8116a" d="M 128.5,53.5 C 146.208,64.0142 163.541,75.0142 180.5,86.5C 177.326,87.0102 174.992,88.6769 173.5,91.5C 156.295,81.0695 139.295,70.4029 122.5,59.5C 122.702,58.6364 123.036,57.6364 123.5,56.5C 125.396,55.7255 127.063,54.7255 128.5,53.5 Z"/></g>
<g><path style="opacity:1" fill="#000001" d="M 70.5,85.5 C 70.5,86.1667 70.8333,86.5 71.5,86.5C 71.5,104.167 71.5,121.833 71.5,139.5C 66.5282,142.656 61.5282,145.823 56.5,149C 46.3992,154.239 39.3992,151.739 35.5,141.5C 35.5,136.167 35.5,130.833 35.5,125.5C 35.3334,111.829 35.5001,98.1626 36,84.5C 38.2557,75.9404 43.7557,72.7737 52.5,75C 58.3635,78.764 64.3635,82.264 70.5,85.5 Z"/></g>
<g><path style="opacity:1" fill="#22cef6" d="M 79.5,81.5 C 79.8333,81.5 80.1667,81.5 80.5,81.5C 87.0384,85.2639 93.3717,89.2639 99.5,93.5C 97.9776,93.6629 96.311,94.4962 94.5,96C 93.9205,97.3349 93.5872,98.5015 93.5,99.5C 89.299,96.8998 84.9656,94.5665 80.5,92.5C 77.7089,90.2651 74.7089,88.2651 71.5,86.5C 70.8333,86.5 70.5,86.1667 70.5,85.5C 72.1733,84.657 73.34,83.3237 74,81.5C 75.6255,81.8541 77.4588,81.8541 79.5,81.5 Z"/></g>
<g><path style="opacity:1" fill="#0fe4fa" d="M 71.5,75.5 C 74.1667,77.5 76.8333,79.5 79.5,81.5C 77.4588,81.8541 75.6255,81.8541 74,81.5C 73.34,83.3237 72.1733,84.657 70.5,85.5C 64.3635,82.264 58.3635,78.764 52.5,75C 43.7557,72.7737 38.2557,75.9404 36,84.5C 35.5001,98.1626 35.3334,111.829 35.5,125.5C 34.6733,120.349 34.1733,115.016 34,109.5C 29.1631,111.959 27.1631,115.959 28,121.5C 27.5001,108.838 27.3334,96.1711 27.5,83.5C 30.5018,69.4859 39.1685,63.6526 53.5,66C 59.6804,68.9224 65.6804,72.0891 71.5,75.5 Z"/></g>
<g><path style="opacity:1" fill="#070204" d="M 80.5,92.5 C 84.9656,94.5665 89.299,96.8998 93.5,99.5C 105.131,106.02 106.464,114.187 97.5,124C 91.7789,127.191 86.1122,130.358 80.5,133.5C 80.5,119.833 80.5,106.167 80.5,92.5 Z"/></g>
<g><path style="opacity:1" fill="#d51167" d="M 71.5,86.5 C 74.7089,88.2651 77.7089,90.2651 80.5,92.5C 80.5,106.167 80.5,119.833 80.5,133.5C 77.7089,135.735 74.7089,137.735 71.5,139.5C 71.5,121.833 71.5,104.167 71.5,86.5 Z"/></g>
<g><path style="opacity:1" fill="#b82a88" d="M 180.5,86.5 C 195.457,93.4223 200.29,104.756 195,120.5C 193.167,123 191.333,125.5 189.5,128C 161.335,145.917 133.001,163.584 104.5,181C 95.2272,183.931 86.8938,182.264 79.5,176C 78.7476,175.329 78.4142,174.496 78.5,173.5C 80.6626,171.917 82.9959,170.584 85.5,169.5C 90.658,173.547 96.3247,174.38 102.5,172C 128.833,155.667 155.167,139.333 181.5,123C 188.409,116.945 189.909,109.779 186,101.5C 182.037,97.7869 177.871,94.4535 173.5,91.5C 174.992,88.6769 177.326,87.0102 180.5,86.5 Z"/></g>
<g><path style="opacity:1" fill="#36bcf6" d="M 99.5,93.5 C 102.918,94.6294 105.751,96.6294 108,99.5C 114.654,109.995 113.821,119.829 105.5,129C 97.1387,134.178 88.8053,139.344 80.5,144.5C 77.2911,146.265 74.2911,148.265 71.5,150.5C 65.8878,153.642 60.2211,156.809 54.5,160C 40.9471,162.562 31.9471,157.395 27.5,144.5C 28.8906,141.34 31.0573,138.674 34,136.5C 34.3333,138.833 34.6667,141.167 35,143.5C 35.4643,142.906 35.631,142.239 35.5,141.5C 39.3992,151.739 46.3992,154.239 56.5,149C 61.5282,145.823 66.5282,142.656 71.5,139.5C 74.7089,137.735 77.7089,135.735 80.5,133.5C 86.1122,130.358 91.7789,127.191 97.5,124C 106.464,114.187 105.131,106.02 93.5,99.5C 93.5872,98.5015 93.9205,97.3349 94.5,96C 96.311,94.4962 97.9776,93.6629 99.5,93.5 Z"/></g>
<g><path style="opacity:1" fill="#1dc8ed" d="M 27.5,83.5 C 27.3334,96.1711 27.5001,108.838 28,121.5C 27.1631,115.959 29.1631,111.959 34,109.5C 34.1733,115.016 34.6733,120.349 35.5,125.5C 35.5,130.833 35.5,136.167 35.5,141.5C 35.631,142.239 35.4643,142.906 35,143.5C 34.6667,141.167 34.3333,138.833 34,136.5C 31.0573,138.674 28.8906,141.34 27.5,144.5C 26.1849,124.039 26.1849,103.706 27.5,83.5 Z"/></g>
<g><path style="opacity:1" fill="#c31e78" d="M 80.5,144.5 C 80.334,149.844 80.5006,155.177 81,160.5C 81.9862,163.806 83.4862,166.806 85.5,169.5C 82.9959,170.584 80.6626,171.917 78.5,173.5C 75.9493,171.422 74.116,168.756 73,165.5C 71.7497,160.58 71.2497,155.58 71.5,150.5C 74.2911,148.265 77.2911,146.265 80.5,144.5 Z"/></g>
</svg>
