<?xml version="1.0" encoding="UTF-8"?>
<!DOCTYPE svg PUBLIC "-//W3C//DTD SVG 1.1//EN" "http://www.w3.org/Graphics/SVG/1.1/DTD/svg11.dtd">
<svg xmlns="http://www.w3.org/2000/svg" version="1.1" width="310px" height="310px" style="shape-rendering:geometricPrecision; text-rendering:geometricPrecision; image-rendering:optimizeQuality; fill-rule:evenodd; clip-rule:evenodd" xmlns:xlink="http://www.w3.org/1999/xlink">
<g><path style="opacity:0.99" fill="#0e83cd" d="M 130.5,-0.5 C 146.5,-0.5 162.5,-0.5 178.5,-0.5C 236.799,11.2875 277.633,44.6208 301,99.5C 304.165,109.865 306.998,120.199 309.5,130.5C 309.5,146.5 309.5,162.5 309.5,178.5C 297.712,236.799 264.379,277.633 209.5,301C 199.135,304.165 188.801,306.998 178.5,309.5C 162.5,309.5 146.5,309.5 130.5,309.5C 72.2006,297.712 31.3673,264.379 8,209.5C 4.8354,199.135 2.00207,188.801 -0.5,178.5C -0.5,162.5 -0.5,146.5 -0.5,130.5C 11.2875,72.2006 44.6208,31.3673 99.5,8C 109.865,4.8354 120.199,2.00207 130.5,-0.5 Z"/></g>
<g><path style="opacity:1" fill="#76b4e0" d="M 104.5,72.5 C 128.661,71.5024 152.994,71.169 177.5,71.5C 177.825,78.6866 177.491,85.6866 176.5,92.5C 176.5,85.8333 176.5,79.1667 176.5,72.5C 152.5,72.5 128.5,72.5 104.5,72.5 Z"/></g>
<g><path style="opacity:1" fill="#fefefe" d="M 104.5,72.5 C 128.5,72.5 152.5,72.5 176.5,72.5C 176.5,79.1667 176.5,85.8333 176.5,92.5C 175.142,124.342 173.808,156.342 172.5,188.5C 171.51,194.31 171.177,200.31 171.5,206.5C 176.032,206.818 180.366,206.485 184.5,205.5C 193.431,205.309 202.264,204.309 211,202.5C 211.833,202.833 212.667,203.167 213.5,203.5C 210.393,212.26 208.393,221.26 207.5,230.5C 206.596,231.209 206.263,232.209 206.5,233.5C 175.167,233.5 143.833,233.5 112.5,233.5C 112.815,229.629 112.482,225.962 111.5,222.5C 110.542,172.43 108.209,122.43 104.5,72.5 Z"/></g>
<g><path style="opacity:1" fill="#5da5da" d="M 172.5,188.5 C 172.5,194.167 172.5,199.833 172.5,205.5C 176.5,205.5 180.5,205.5 184.5,205.5C 180.366,206.485 176.032,206.818 171.5,206.5C 171.177,200.31 171.51,194.31 172.5,188.5 Z"/></g>
<g><path style="opacity:1" fill="#d8eaf6" d="M 111.5,222.5 C 112.482,225.962 112.815,229.629 112.5,233.5C 143.833,233.5 175.167,233.5 206.5,233.5C 206.263,232.209 206.596,231.209 207.5,230.5C 207.5,231.833 207.5,233.167 207.5,234.5C 175.5,234.5 143.5,234.5 111.5,234.5C 111.5,230.5 111.5,226.5 111.5,222.5 Z"/></g>
</svg>
