<?xml version="1.0" encoding="UTF-8"?>
<!DOCTYPE svg PUBLIC "-//W3C//DTD SVG 1.1//EN" "http://www.w3.org/Graphics/SVG/1.1/DTD/svg11.dtd">
<svg xmlns="http://www.w3.org/2000/svg" version="1.1" width="256px" height="256px" style="shape-rendering:geometricPrecision; text-rendering:geometricPrecision; image-rendering:optimizeQuality; fill-rule:evenodd; clip-rule:evenodd" xmlns:xlink="http://www.w3.org/1999/xlink">
<g><path style="opacity:1" fill="#00a153" d="M -0.5,-0.5 C 84.8333,-0.5 170.167,-0.5 255.5,-0.5C 255.5,84.8333 255.5,170.167 255.5,255.5C 170.167,255.5 84.8333,255.5 -0.5,255.5C -0.5,170.167 -0.5,84.8333 -0.5,-0.5 Z"/></g>
<g><path style="opacity:1" fill="#fcfefd" d="M 31.5,89.5 C 97.1675,89.3333 162.834,89.5 228.5,90C 232.843,91.0095 236.01,93.5095 238,97.5C 238.667,115.833 238.667,134.167 238,152.5C 236.895,155.937 234.728,158.437 231.5,160C 167.167,160.333 102.833,160.667 38.5,161C 33.3333,166.167 28.1667,171.333 23,176.5C 22.3333,150.5 22.3333,124.5 23,98.5C 24.6878,94.3148 27.5212,91.3148 31.5,89.5 Z"/></g>
<g><path style="opacity:1" fill="#0fa357" d="M 112.5,109.5 C 113.496,109.414 114.329,109.748 115,110.5C 115.5,120.161 115.666,129.828 115.5,139.5C 114.178,139.67 113.011,139.337 112,138.5C 111.194,128.756 111.361,119.089 112.5,109.5 Z"/></g>
<g><path style="opacity:1" fill="#1ea860" d="M 167.5,110.5 C 168.822,110.33 169.989,110.663 171,111.5C 171.667,120.5 171.667,129.5 171,138.5C 169.667,139.833 168.333,139.833 167,138.5C 166.195,129.089 166.362,119.756 167.5,110.5 Z"/></g>
<g><path style="opacity:1" fill="#28aa63" d="M 101.5,110.5 C 105.161,110.35 106.161,111.85 104.5,115C 100.707,115.487 99.7071,113.987 101.5,110.5 Z"/></g>
<g><path style="opacity:1" fill="#3aaf6c" d="M 178.5,110.5 C 183.161,111.324 183.661,113.324 180,116.5C 177.327,115.142 176.827,113.142 178.5,110.5 Z"/></g>
<g><path style="opacity:1" fill="#27a860" d="M 191.5,115.5 C 192.5,115.5 193.5,115.5 194.5,115.5C 194.5,116.5 194.5,117.5 194.5,118.5C 198.676,117.831 200.009,119.331 198.5,123C 197.207,123.49 195.873,123.657 194.5,123.5C 194.5,127.5 194.5,131.5 194.5,135.5C 196.199,135.34 197.866,135.506 199.5,136C 200.833,137 200.833,138 199.5,139C 196.007,140.004 192.841,139.504 190,137.5C 189.501,132.845 189.334,128.179 189.5,123.5C 188.5,123.5 187.5,123.5 186.5,123.5C 186.351,122.448 186.517,121.448 187,120.5C 188.707,118.963 190.207,117.296 191.5,115.5 Z"/></g>
<g><path style="opacity:1" fill="#2dab65" d="M 42.5,118.5 C 44.3904,118.297 45.8904,118.963 47,120.5C 51.0589,117.741 54.8922,118.075 58.5,121.5C 63.7431,117.124 68.2431,117.79 72,123.5C 72.6667,128.5 72.6667,133.5 72,138.5C 70.6667,139.833 69.3333,139.833 68,138.5C 67.6667,133.5 67.3333,128.5 67,123.5C 64.5008,122.202 62.1675,122.536 60,124.5C 59.6667,129.167 59.3333,133.833 59,138.5C 57.9505,139.517 56.7839,139.684 55.5,139C 54.6929,133.917 54.1929,128.75 54,123.5C 51.5008,122.202 49.1675,122.536 47,124.5C 46.6667,129.167 46.3333,133.833 46,138.5C 44.9505,139.517 43.7839,139.684 42.5,139C 41.1842,132.167 41.1842,125.334 42.5,118.5 Z"/></g>
<g><path style="opacity:1" fill="#1da65d" d="M 81.5,118.5 C 91.267,117.101 95.6003,121.268 94.5,131C 94.4748,133.755 94.1414,136.422 93.5,139C 88.9552,139.269 84.2885,139.269 79.5,139C 75.9083,136.029 75.5749,132.696 78.5,129C 82.4285,127.971 86.4285,127.137 90.5,126.5C 89.9598,125.252 89.2931,124.085 88.5,123C 85.123,122.631 81.7897,122.631 78.5,123C 78.0426,122.586 77.7093,122.086 77.5,121.5C 78.9014,120.479 80.2347,119.479 81.5,118.5 Z"/></g>
<g><path style="opacity:1" fill="#2eab66" d="M 101.5,118.5 C 102.583,118.539 103.583,118.873 104.5,119.5C 105.664,125.807 105.831,132.141 105,138.5C 103.667,139.833 102.333,139.833 101,138.5C 100.208,131.753 100.374,125.086 101.5,118.5 Z"/></g>
<g><path style="opacity:1" fill="#1ba55b" d="M 127.5,118.5 C 136.364,117.7 140.697,121.7 140.5,130.5C 135.456,130.173 130.456,130.506 125.5,131.5C 126.04,132.748 126.707,133.915 127.5,135C 131.213,135.405 134.879,135.405 138.5,135C 139.727,136.587 139.394,137.921 137.5,139C 124.841,142.006 119.675,137.172 122,124.5C 123.36,121.977 125.193,119.977 127.5,118.5 Z"/></g>
<g><path style="opacity:1" fill="#14a459" d="M 146.5,118.5 C 148.017,118.511 149.184,119.177 150,120.5C 152.666,118.013 155.166,118.013 157.5,120.5C 154.841,121.812 152.341,123.479 150,125.5C 149.667,129.833 149.333,134.167 149,138.5C 147.989,139.337 146.822,139.67 145.5,139.5C 145.205,132.412 145.538,125.412 146.5,118.5 Z"/></g>
<g><path style="opacity:1" fill="#24a962" d="M 178.5,118.5 C 179.822,118.33 180.989,118.663 182,119.5C 182.667,125.833 182.667,132.167 182,138.5C 180.667,139.833 179.333,139.833 178,138.5C 177.208,131.753 177.374,125.086 178.5,118.5 Z"/></g>
<g><path style="opacity:1" fill="#22a75e" d="M 208.5,118.5 C 215.838,117.495 220.504,120.495 222.5,127.5C 222.471,129.029 221.804,130.196 220.5,131C 216.167,131.333 211.833,131.667 207.5,132C 208.5,133 209.5,134 210.5,135C 214.188,135.45 217.854,135.283 221.5,134.5C 221.67,135.822 221.337,136.989 220.5,138C 208.208,142.458 202.375,138.291 203,125.5C 203.967,122.379 205.8,120.046 208.5,118.5 Z"/></g>
<g><path style="opacity:1" fill="#f6fbf8" d="M 135.5,125.5 C 132.375,126.479 129.042,126.813 125.5,126.5C 126.865,122.746 129.532,121.579 133.5,123C 134.381,123.708 135.047,124.542 135.5,125.5 Z"/></g>
<g><path style="opacity:1" fill="#e0f3e9" d="M 210.5,122.5 C 213.9,122.032 216.233,123.365 217.5,126.5C 214.167,127.833 210.833,127.833 207.5,126.5C 208.172,124.84 209.172,123.507 210.5,122.5 Z"/></g>
<g><path style="opacity:1" fill="#9bdaba" d="M 135.5,125.5 C 136.043,125.56 136.376,125.893 136.5,126.5C 132.685,127.808 129.019,127.808 125.5,126.5C 129.042,126.813 132.375,126.479 135.5,125.5 Z"/></g>
<g><path style="opacity:1" fill="#f0f9f5" d="M 82.5,130.5 C 85.1667,130.5 87.8333,130.5 90.5,130.5C 90.7035,132.39 90.0368,133.89 88.5,135C 86.1902,135.497 83.8568,135.663 81.5,135.5C 81.366,133.708 81.6993,132.042 82.5,130.5 Z"/></g>
</svg>
