<?xml version="1.0" encoding="UTF-8"?>
<!DOCTYPE svg PUBLIC "-//W3C//DTD SVG 1.1//EN" "http://www.w3.org/Graphics/SVG/1.1/DTD/svg11.dtd">
<svg xmlns="http://www.w3.org/2000/svg" version="1.1" width="381px" height="381px" style="shape-rendering:geometricPrecision; text-rendering:geometricPrecision; image-rendering:optimizeQuality; fill-rule:evenodd; clip-rule:evenodd" xmlns:xlink="http://www.w3.org/1999/xlink">
<g><path style="opacity:1" fill="#3397da" d="M 380.5,181.5 C 380.5,187.167 380.5,192.833 380.5,198.5C 352.627,247.901 324.461,297.235 296,346.5C 291.561,352.604 285.728,356.77 278.5,359C 219.5,359.667 160.5,359.667 101.5,359C 94.2723,356.77 88.439,352.604 84,346.5C 55.5394,297.235 27.3727,247.901 -0.5,198.5C -0.5,192.833 -0.5,187.167 -0.5,181.5C 27.3727,132.099 55.5394,82.7653 84,33.5C 88.439,27.3963 94.2723,23.2296 101.5,21C 160.5,20.3333 219.5,20.3333 278.5,21C 285.728,23.2296 291.561,27.3963 296,33.5C 324.461,82.7653 352.627,132.099 380.5,181.5 Z"/></g>
<g><path style="opacity:1" fill="#fefefe" d="M 99.5,124.5 C 161.168,124.333 222.834,124.5 284.5,125C 291.428,127.594 295.928,132.427 298,139.5C 298.667,173.5 298.667,207.5 298,241.5C 295.833,249 291,253.833 283.5,256C 222.5,256.667 161.5,256.667 100.5,256C 93.5724,253.406 89.0724,248.573 87,241.5C 86.3333,207.167 86.3333,172.833 87,138.5C 89.6359,132.369 93.8026,127.703 99.5,124.5 Z"/></g>
<g><path style="opacity:0.998" fill="#3698db" d="M 103.5,137.5 C 163.208,137.171 222.875,137.504 282.5,138.5C 283.333,139.5 284.167,140.5 285,141.5C 285.667,174.167 285.667,206.833 285,239.5C 284.167,241 283,242.167 281.5,243C 222.167,243.667 162.833,243.667 103.5,243C 102.667,242.167 101.833,241.333 101,240.5C 100.333,207.167 100.333,173.833 101,140.5C 102.045,139.627 102.878,138.627 103.5,137.5 Z"/></g>
<g><path style="opacity:1" fill="#fcfdfe" d="M 120.5,157.5 C 127.2,157.17 133.866,157.503 140.5,158.5C 146.591,167.013 152.924,175.346 159.5,183.5C 166.186,175.475 172.519,167.141 178.5,158.5C 185.468,157.503 192.468,157.17 199.5,157.5C 199.5,179.5 199.5,201.5 199.5,223.5C 192.833,223.5 186.167,223.5 179.5,223.5C 179.667,208.83 179.5,194.163 179,179.5C 172.743,188.346 166.243,197.012 159.5,205.5C 152.757,197.012 146.257,188.346 140,179.5C 139.5,194.163 139.333,208.83 139.5,223.5C 133.167,223.5 126.833,223.5 120.5,223.5C 120.5,201.5 120.5,179.5 120.5,157.5 Z"/></g>
<g><path style="opacity:1" fill="#fdfefe" d="M 232.5,157.5 C 238.833,157.5 245.167,157.5 251.5,157.5C 251.5,168.5 251.5,179.5 251.5,190.5C 258.175,190.334 264.842,190.5 271.5,191C 261.55,201.739 251.717,212.572 242,223.5C 232.536,212.368 222.703,201.534 212.5,191C 219.158,190.5 225.825,190.334 232.5,190.5C 232.5,179.5 232.5,168.5 232.5,157.5 Z"/></g>
</svg>
