<?xml version="1.0" encoding="UTF-8"?>
<!DOCTYPE svg PUBLIC "-//W3C//DTD SVG 1.1//EN" "http://www.w3.org/Graphics/SVG/1.1/DTD/svg11.dtd">
<svg xmlns="http://www.w3.org/2000/svg" version="1.1" width="200px" height="200px" style="shape-rendering:geometricPrecision; text-rendering:geometricPrecision; image-rendering:optimizeQuality; fill-rule:evenodd; clip-rule:evenodd" xmlns:xlink="http://www.w3.org/1999/xlink">
<g><path style="opacity:1" fill="#f67575" d="M 86.5,-0.5 C 95.5,-0.5 104.5,-0.5 113.5,-0.5C 124.88,1.73777 135.88,5.40443 146.5,10.5C 146.821,12.0481 147.821,12.7148 149.5,12.5C 163.42,19.7541 174.42,30.0874 182.5,43.5C 182.427,45.0269 183.094,46.0269 184.5,46.5C 192.065,58.5318 197.065,71.5318 199.5,85.5C 199.5,95.1667 199.5,104.833 199.5,114.5C 189.5,161.167 161.167,189.5 114.5,199.5C 104.833,199.5 95.1667,199.5 85.5,199.5C 71.5318,197.065 58.5318,192.065 46.5,184.5C 46.0269,183.094 45.0269,182.427 43.5,182.5C 30.0874,174.42 19.7541,163.42 12.5,149.5C 12.7148,147.821 12.0481,146.821 10.5,146.5C 5.40443,135.88 1.73777,124.88 -0.5,113.5C -0.5,104.5 -0.5,95.5 -0.5,86.5C 2.60813,64.9515 11.6081,46.2849 26.5,30.5C 29.0892,29.5806 31.0892,27.914 32.5,25.5C 47.6197,10.9408 65.6197,2.27409 86.5,-0.5 Z"/></g>
<g><path style="opacity:0.922" fill="#743939" d="M 146.5,10.5 C 147.71,10.9321 148.71,11.5987 149.5,12.5C 147.821,12.7148 146.821,12.0481 146.5,10.5 Z"/></g>
<g><path style="opacity:0.757" fill="#7b3c3c" d="M 32.5,25.5 C 31.0892,27.914 29.0892,29.5806 26.5,30.5C 27.9108,28.086 29.9108,26.4194 32.5,25.5 Z"/></g>
<g><path style="opacity:0.498" fill="#743838" d="M 182.5,43.5 C 183.906,43.9731 184.573,44.9731 184.5,46.5C 183.094,46.0269 182.427,45.0269 182.5,43.5 Z"/></g>
<g><path style="opacity:1" fill="#feeeee" d="M 35.5,75.5 C 36.5,75.5 37.5,75.5 38.5,75.5C 40.7567,83.353 43.5901,91.0196 47,98.5C 49.863,91.578 52.5297,84.578 55,77.5C 55.7096,76.0267 56.8762,75.3601 58.5,75.5C 59.6014,86.1505 60.6014,96.8172 61.5,107.5C 61.1667,108.833 60.8333,110.167 60.5,111.5C 58.7462,101.889 57.2462,92.2223 56,82.5C 52.9965,89.3454 50.4965,96.3454 48.5,103.5C 47.5,103.5 46.5,103.5 45.5,103.5C 43.3052,96.7525 40.8052,90.0859 38,83.5C 36.0954,92.4012 34.762,101.401 34,110.5C 33.586,110.957 33.086,111.291 32.5,111.5C 32.1667,110.333 31.8333,109.167 31.5,108C 32.7934,97.153 34.1267,86.3197 35.5,75.5 Z"/></g>
<g><path style="opacity:1" fill="#fffbfb" d="M 91.5,77.5 C 93.4461,82.3958 94.1128,87.7291 93.5,93.5C 104.167,94.1667 104.167,94.8333 93.5,95.5C 92.8333,116.833 92.1667,116.833 91.5,95.5C 88.7531,95.8134 86.0865,95.48 83.5,94.5C 83.6236,93.8933 83.9569,93.56 84.5,93.5C 86.8333,93.5 89.1667,93.5 91.5,93.5C 91.5,88.1667 91.5,82.8333 91.5,77.5 Z"/></g>
<g><path style="opacity:1" fill="#fbabab" d="M 91.5,77.5 C 91.5,82.8333 91.5,88.1667 91.5,93.5C 89.1667,93.5 86.8333,93.5 84.5,93.5C 86.2646,92.5386 88.2646,92.2053 90.5,92.5C 90.1795,87.3054 90.5128,82.3054 91.5,77.5 Z"/></g>
<g><path style="opacity:1" fill="#fff4f4" d="M 127.5,92.5 C 129.604,92.2011 131.604,92.5344 133.5,93.5C 130.854,95.0181 128.021,96.3514 125,97.5C 123.947,102.091 123.114,106.758 122.5,111.5C 121.167,105.5 121.167,99.5 122.5,93.5C 123.192,94.0253 123.692,94.6919 124,95.5C 125.145,94.3636 126.312,93.3636 127.5,92.5 Z"/></g>
<g><path style="opacity:1" fill="#fef2f2" d="M 68.5,93.5 C 72.2568,93.0708 75.7568,93.7375 79,95.5C 79.3076,94.6919 79.8076,94.0253 80.5,93.5C 81.8333,99.5 81.8333,105.5 80.5,111.5C 79.7492,110.624 79.2492,109.624 79,108.5C 74.0462,112.677 69.3796,112.343 65,107.5C 62.4226,101.885 63.5892,97.2183 68.5,93.5 Z"/></g>
<g><path style="opacity:1" fill="#fef0f0" d="M 105.5,93.5 C 109.131,93.0323 112.465,93.699 115.5,95.5C 116.167,94.8333 116.833,94.1667 117.5,93.5C 118.833,99.5 118.833,105.5 117.5,111.5C 116.749,110.624 116.249,109.624 116,108.5C 110.417,112.849 105.417,112.183 101,106.5C 99.3794,100.923 100.879,96.5894 105.5,93.5 Z"/></g>
<g><path style="opacity:1" fill="#ffedec" d="M 137.5,93.5 C 146.825,92.3271 150.992,96.3271 150,105.5C 146.537,111.663 141.703,112.996 135.5,109.5C 129.801,103.334 130.468,98.001 137.5,93.5 Z"/></g>
<g><path style="opacity:1" fill="#fef0f0" d="M 157.5,93.5 C 161.131,93.0323 164.465,93.699 167.5,95.5C 168.167,94.8333 168.833,94.1667 169.5,93.5C 170.833,99.5 170.833,105.5 169.5,111.5C 168.749,110.624 168.249,109.624 168,108.5C 162.417,112.849 157.417,112.183 153,106.5C 151.379,100.923 152.879,96.5894 157.5,93.5 Z"/></g>
<g><path style="opacity:1" fill="#f97979" d="M 70.5,95.5 C 79.5614,96.3771 81.5614,100.544 76.5,108C 68.6667,109.5 65.5,106.333 67,98.5C 68.1451,97.3636 69.3117,96.3636 70.5,95.5 Z"/></g>
<g><path style="opacity:1" fill="#f97a79" d="M 106.5,95.5 C 113.88,95.043 116.713,98.3763 115,105.5C 112.441,108.349 109.274,109.183 105.5,108C 101.309,103.46 101.642,99.2931 106.5,95.5 Z"/></g>
<g><path style="opacity:1" fill="#f97979" d="M 138.5,95.5 C 147.515,95.6232 149.848,99.6232 145.5,107.5C 137.765,110.258 134.265,107.591 135,99.5C 136.376,98.2949 137.542,96.9616 138.5,95.5 Z"/></g>
<g><path style="opacity:1" fill="#f97a79" d="M 158.5,95.5 C 165.88,95.043 168.713,98.3763 167,105.5C 164.441,108.349 161.274,109.183 157.5,108C 153.309,103.46 153.642,99.2931 158.5,95.5 Z"/></g>
<g><path style="opacity:0.922" fill="#743939" d="M 10.5,146.5 C 12.0481,146.821 12.7148,147.821 12.5,149.5C 11.5987,148.71 10.9321,147.71 10.5,146.5 Z"/></g>
<g><path style="opacity:0.498" fill="#743838" d="M 43.5,182.5 C 45.0269,182.427 46.0269,183.094 46.5,184.5C 44.9731,184.573 43.9731,183.906 43.5,182.5 Z"/></g>
</svg>
