<?xml version="1.0" encoding="UTF-8"?>
<!DOCTYPE svg PUBLIC "-//W3C//DTD SVG 1.1//EN" "http://www.w3.org/Graphics/SVG/1.1/DTD/svg11.dtd">
<svg xmlns="http://www.w3.org/2000/svg" version="1.1" width="256px" height="256px" style="shape-rendering:geometricPrecision; text-rendering:geometricPrecision; image-rendering:optimizeQuality; fill-rule:evenodd; clip-rule:evenodd" xmlns:xlink="http://www.w3.org/1999/xlink">
<g><path style="opacity:0.004" fill="#000100" d="M 115.5,-0.5 C 115.833,-0.5 116.167,-0.5 116.5,-0.5C 116.315,0.170143 115.981,0.170143 115.5,-0.5 Z"/></g>
<g><path style="opacity:0.004" fill="#000100" d="M 119.5,-0.5 C 119.833,-0.5 120.167,-0.5 120.5,-0.5C 120.315,0.170143 119.981,0.170143 119.5,-0.5 Z"/></g>
<g><path style="opacity:0.004" fill="#000100" d="M 134.5,-0.5 C 136.5,-0.5 138.5,-0.5 140.5,-0.5C 138.5,0.833333 136.5,0.833333 134.5,-0.5 Z"/></g>
<g><path style="opacity:0.004" fill="#000100" d="M 148.5,1.5 C 149.833,2.16667 149.833,2.16667 148.5,1.5 Z"/></g>
<g><path style="opacity:0.004" fill="#111112" d="M 93.5,5.5 C 94.2506,4.42654 95.2506,4.25988 96.5,5C 95.552,5.48278 94.552,5.64945 93.5,5.5 Z"/></g>
<g><path style="opacity:0.004" fill="#000100" d="M 162.5,4.5 C 163.833,5.16667 163.833,5.16667 162.5,4.5 Z"/></g>
<g><path style="opacity:0.004" fill="#000100" d="M 86.5,7.5 C 87.8333,8.16667 87.8333,8.16667 86.5,7.5 Z"/></g>
<g><path style="opacity:0.004" fill="#000100" d="M 168.5,7.5 C 169.833,8.16667 169.833,8.16667 168.5,7.5 Z"/></g>
<g><path style="opacity:0.004" fill="#000100" d="M 170.5,7.5 C 171.833,8.16667 171.833,8.16667 170.5,7.5 Z"/></g>
<g><path style="opacity:0.004" fill="#000100" d="M 80.5,10.5 C 81.2506,9.42654 82.2506,9.25988 83.5,10C 82.552,10.4828 81.552,10.6495 80.5,10.5 Z"/></g>
<g><path style="opacity:0.004" fill="#000100" d="M 175.5,9.5 C 176.525,9.89657 176.692,10.5632 176,11.5C 175.536,10.9056 175.369,10.2389 175.5,9.5 Z"/></g>
<g><path style="opacity:0.004" fill="#000100" d="M 75.5,13.5 C 75.8966,12.475 76.5632,12.3083 77.5,13C 76.9056,13.4643 76.2389,13.631 75.5,13.5 Z"/></g>
<g><path style="opacity:0.004" fill="#000100" d="M 68.5,17.5 C 69.8333,18.1667 69.8333,18.1667 68.5,17.5 Z"/></g>
<g><path style="opacity:0.004" fill="#000100" d="M 189.5,18.5 C 188.761,18.631 188.094,18.4643 187.5,18C 188.437,17.3083 189.103,17.475 189.5,18.5 Z"/></g>
<g><path style="opacity:0.625" fill="#0c0c0d" d="M 208.5,169.5 C 194.293,185.442 176.959,196.609 156.5,203C 152.246,204.314 147.913,205.147 143.5,205.5C 145.556,194.213 145.89,182.879 144.5,171.5C 144.238,170.022 144.571,168.689 145.5,167.5C 146.308,169.423 146.808,171.423 147,173.5C 147.383,172.944 147.883,172.611 148.5,172.5C 149.73,181.819 149.73,191.152 148.5,200.5C 184.423,191.743 208.923,170.077 222,135.5C 233.996,93.3082 223.829,57.4749 191.5,28C 156.277,1.81485 118.943,-1.51848 79.5,18C 41.1069,42.2969 24.9402,77.1302 31,122.5C 34.8533,141.208 43.1866,157.541 56,171.5C 66.5744,160.152 78.741,151.152 92.5,144.5C 94.8583,144.747 96.8583,144.081 98.5,142.5C 99.5,143.833 100.5,143.833 101.5,142.5C 109.233,141.076 116.9,141.409 124.5,143.5C 124.611,144.117 124.944,144.617 125.5,145C 124.584,145.278 123.918,145.778 123.5,146.5C 111.332,144.156 99.6655,145.656 88.5,151C 82.6631,154.418 76.9964,158.084 71.5,162C 66.6253,167.043 61.6253,171.876 56.5,176.5C 41.9284,163.389 32.4284,147.056 28,127.5C 20.7557,91.4684 29.2557,59.8018 53.5,32.5C 92.2648,-2.29839 134.932,-7.79839 181.5,16C 222.905,44.3469 238.072,83.1802 227,132.5C 222.921,145.992 216.754,158.325 208.5,169.5 Z M 148.5,172.5 C 148.461,171.417 148.127,170.417 147.5,169.5C 151.89,161.466 156.224,153.466 160.5,145.5C 162.059,143.392 163.392,141.059 164.5,138.5C 172.192,137.883 179.025,135.217 185,130.5C 186.544,132.468 187.711,134.635 188.5,137C 189.784,137.684 190.951,137.517 192,136.5C 197.817,123.732 196.317,112.065 187.5,101.5C 185.956,101.297 184.622,100.63 183.5,99.5C 182.005,90.8368 178.671,83.0035 173.5,76C 167.725,71.24 161.058,68.74 153.5,68.5C 143.416,70.543 133.75,69.3763 124.5,65C 118.941,60.4967 116.608,54.6634 117.5,47.5C 113.497,47.9713 110.331,49.9713 108,53.5C 105.867,57.2316 104.534,61.2316 104,65.5C 102.121,63.4732 100.954,61.1398 100.5,58.5C 99.4684,56.5662 98.8017,54.3995 98.5,52C 99.7537,46.8398 100.587,41.6731 101,36.5C 100.282,35.5494 99.4491,35.3828 98.5,36C 91.8272,43.0134 87.8272,51.3468 86.5,61C 86.8893,67.5184 89.556,72.8517 94.5,77C 89.8213,77.9157 85.3213,77.4157 81,75.5C 80.228,75.6448 79.5613,75.9781 79,76.5C 79.4278,80.9626 80.5945,85.2959 82.5,89.5C 88.8154,99.159 97.8154,103.826 109.5,103.5C 109.837,119.861 104.171,133.528 92.5,144.5C 78.741,151.152 66.5744,160.152 56,171.5C 43.1866,157.541 34.8533,141.208 31,122.5C 24.9402,77.1302 41.1069,42.2969 79.5,18C 118.943,-1.51848 156.277,1.81485 191.5,28C 223.829,57.4749 233.996,93.3082 222,135.5C 208.923,170.077 184.423,191.743 148.5,200.5C 149.73,191.152 149.73,181.819 148.5,172.5 Z"/></g>
<g><path style="opacity:0.004" fill="#000100" d="M 148.5,8.5 C 149.289,8.78281 149.956,9.28281 150.5,10C 149.184,10.5281 148.517,10.0281 148.5,8.5 Z"/></g>
<g><path style="opacity:0.004" fill="#000100" d="M 189.5,18.5 C 190.833,19.1667 190.833,19.1667 189.5,18.5 Z"/></g>
<g><path style="opacity:0.004" fill="#000100" d="M 191.5,20.5 C 192.833,21.1667 192.833,21.1667 191.5,20.5 Z"/></g>
<g><path style="opacity:0.004" fill="#000100" d="M 60.5,23.5 C 60.8966,22.475 61.5632,22.3083 62.5,23C 61.9056,23.4643 61.2389,23.631 60.5,23.5 Z"/></g>
<g><path style="opacity:0.004" fill="#000100" d="M 193.5,22.5 C 194.833,23.1667 194.833,23.1667 193.5,22.5 Z"/></g>
<g><path style="opacity:0.004" fill="#000100" d="M 60.5,23.5 C 61.2389,23.631 61.9056,23.4643 62.5,23C 61.5632,22.3083 60.8966,22.475 60.5,23.5 Z"/></g>
<g><path style="opacity:0.004" fill="#000100" d="M 57.5,25.5 C 58.8333,26.1667 58.8333,26.1667 57.5,25.5 Z"/></g>
<g><path style="opacity:0.004" fill="#000100" d="M 55.5,27.5 C 56.8333,28.1667 56.8333,28.1667 55.5,27.5 Z"/></g>
<g><path style="opacity:0.004" fill="#000100" d="M 55.5,28.5 C 54.8333,29.1667 54.8333,29.1667 55.5,28.5 Z"/></g>
<g><path style="opacity:0.004" fill="#000100" d="M 53.5,32.5 C 52.475,32.1034 52.3083,31.4368 53,30.5C 53.4643,31.0944 53.631,31.7611 53.5,32.5 Z"/></g>
<g><path style="opacity:0.004" fill="#000100" d="M 192.5,31.5 C 193.289,31.7828 193.956,32.2828 194.5,33C 193.184,33.5281 192.517,33.0281 192.5,31.5 Z"/></g>
<g><path style="opacity:0.004" fill="#000100" d="M 50.5,32.5 C 51.8333,33.1667 51.8333,33.1667 50.5,32.5 Z"/></g>
<g><path style="opacity:0.004" fill="#000100" d="M 50.5,33.5 C 49.8333,34.1667 49.8333,34.1667 50.5,33.5 Z"/></g>
<g><path style="opacity:0.004" fill="#000100" d="M 47.5,35.5 C 48.8333,36.1667 48.8333,36.1667 47.5,35.5 Z"/></g>
<g><path style="opacity:0.004" fill="#000100" d="M 199.5,38.5 C 197.972,38.4827 197.472,37.816 198,36.5C 198.717,37.0442 199.217,37.7109 199.5,38.5 Z"/></g>
<g><path style="opacity:0.004" fill="#000100" d="M 46.5,37.5 C 47.8333,38.1667 47.8333,38.1667 46.5,37.5 Z"/></g>
<g><path style="opacity:0.004" fill="#000100" d="M 199.5,38.5 C 200.627,39.1217 201.627,39.955 202.5,41C 200.511,41.5192 199.511,40.6859 199.5,38.5 Z"/></g>
<g><path style="opacity:0.004" fill="#000100" d="M 209.5,38.5 C 210.833,39.1667 210.833,39.1667 209.5,38.5 Z"/></g>
<g><path style="opacity:0.004" fill="#000100" d="M 212.5,41.5 C 211.833,40.1667 211.833,40.1667 212.5,41.5 Z"/></g>
<g><path style="opacity:0.004" fill="#000100" d="M 212.5,41.5 C 213.525,41.8966 213.692,42.5632 213,43.5C 212.536,42.9056 212.369,42.2389 212.5,41.5 Z"/></g>
<g><path style="opacity:0.004" fill="#000100" d="M 41.5,44.5 C 42.8333,45.1667 42.8333,45.1667 41.5,44.5 Z"/></g>
<g><path style="opacity:0.004" fill="#000100" d="M 39.5,46.5 C 40.525,46.8966 40.6917,47.5632 40,48.5C 39.5357,47.9056 39.369,47.2389 39.5,46.5 Z"/></g>
<g><path style="opacity:0.677" fill="#0342fd" d="M 94.5,47.5 C 95.1667,51.1667 95.8333,54.8333 96.5,58.5C 96.9531,62.0273 98.4531,65.0273 101,67.5C 102.734,69.4506 104.901,70.4506 107.5,70.5C 107.045,63.6401 109.045,57.6401 113.5,52.5C 115.405,62.7375 121.405,69.0708 131.5,71.5C 134.865,73.0392 138.531,73.7058 142.5,73.5C 145.355,73.4975 148.022,73.1641 150.5,72.5C 167.847,72.5129 177.18,81.1795 178.5,98.5C 160.463,105.407 154.796,117.907 161.5,136C 160.68,137.8 160.014,139.634 159.5,141.5C 154.895,149.127 150.228,156.794 145.5,164.5C 141.347,154.602 134.347,147.602 124.5,143.5C 116.9,141.409 109.233,141.076 101.5,142.5C 100.833,142.5 100.5,142.167 100.5,141.5C 109.003,129.99 113.337,116.99 113.5,102.5C 116.713,102.81 119.713,102.477 122.5,101.5C 123.404,100.791 123.737,99.791 123.5,98.5C 121.265,98.2053 119.265,98.5386 117.5,99.5C 102.095,102.88 90.9284,97.5465 84,83.5C 83.3333,82.5 83.3333,81.5 84,80.5C 87.4085,81.6219 90.9085,81.7886 94.5,81C 96.9969,80.5883 98.9969,79.4216 100.5,77.5C 89.5909,69.364 87.5909,59.364 94.5,47.5 Z"/></g>
<g><path style="opacity:0.004" fill="#000100" d="M 217.5,49.5 C 218.833,50.1667 218.833,50.1667 217.5,49.5 Z"/></g>
<g><path style="opacity:0.004" fill="#000100" d="M 119.5,54.5 C 118.402,53.3991 118.235,52.0657 119,50.5C 120.511,51.564 120.677,52.8974 119.5,54.5 Z"/></g>
<g><path style="opacity:0.004" fill="#000100" d="M 36.5,51.5 C 37.525,51.8966 37.6917,52.5632 37,53.5C 36.5357,52.9056 36.369,52.2389 36.5,51.5 Z"/></g>
<g><path style="opacity:0.004" fill="#000100" d="M 34.5,56.5 C 35.8333,57.1667 35.8333,57.1667 34.5,56.5 Z"/></g>
<g><path style="opacity:0.004" fill="#000100" d="M 31.5,61.5 C 32.525,61.8966 32.6917,62.5632 32,63.5C 31.5357,62.9056 31.369,62.2389 31.5,61.5 Z"/></g>
<g><path style="opacity:0.004" fill="#000100" d="M 225.5,65.5 C 226.833,66.1667 226.833,66.1667 225.5,65.5 Z"/></g>
<g><path style="opacity:0.004" fill="#000100" d="M 29.5,67.5 C 30.525,67.8966 30.6917,68.5632 30,69.5C 29.5357,68.9056 29.369,68.2389 29.5,67.5 Z"/></g>
<g><path style="opacity:0.008" fill="#1b1b1e" d="M 167.5,68.5 C 168.289,68.7828 168.956,69.2828 169.5,70C 168.184,70.5281 167.517,70.0281 167.5,68.5 Z"/></g>
<g><path style="opacity:0.004" fill="#000100" d="M 28.5,70.5 C 29.8333,71.1667 29.8333,71.1667 28.5,70.5 Z"/></g>
<g><path style="opacity:0.004" fill="#000100" d="M 227.5,72.5 C 228.833,73.1667 228.833,73.1667 227.5,72.5 Z"/></g>
<g><path style="opacity:0.004" fill="#000100" d="M 26.5,77.5 C 27.525,77.8966 27.6917,78.5632 27,79.5C 26.5357,78.9056 26.369,78.2389 26.5,77.5 Z"/></g>
<g><path style="opacity:0.004" fill="#000100" d="M 230.5,82.5 C 231.573,83.2506 231.74,84.2506 231,85.5C 230.517,84.552 230.351,83.552 230.5,82.5 Z"/></g>
<g><path style="opacity:0.705" fill="#131418" d="M 100.5,58.5 C 100.954,61.1398 102.121,63.4732 104,65.5C 104.534,61.2316 105.867,57.2316 108,53.5C 110.331,49.9713 113.497,47.9713 117.5,47.5C 116.608,54.6634 118.941,60.4967 124.5,65C 133.75,69.3763 143.416,70.543 153.5,68.5C 161.058,68.74 167.725,71.24 173.5,76C 178.671,83.0035 182.005,90.8368 183.5,99.5C 184.622,100.63 185.956,101.297 187.5,101.5C 196.317,112.065 197.817,123.732 192,136.5C 190.951,137.517 189.784,137.684 188.5,137C 187.711,134.635 186.544,132.468 185,130.5C 179.025,135.217 172.192,137.883 164.5,138.5C 163.392,141.059 162.059,143.392 160.5,145.5C 159.766,144.292 159.433,142.959 159.5,141.5C 160.014,139.634 160.68,137.8 161.5,136C 154.796,117.907 160.463,105.407 178.5,98.5C 177.18,81.1795 167.847,72.5129 150.5,72.5C 144.131,72.653 137.797,72.3197 131.5,71.5C 121.405,69.0708 115.405,62.7375 113.5,52.5C 109.045,57.6401 107.045,63.6401 107.5,70.5C 104.901,70.4506 102.734,69.4506 101,67.5C 98.4531,65.0273 96.9531,62.0273 96.5,58.5C 96.6658,53.8215 96.4992,49.1548 96,44.5C 94.9614,45.2438 94.4614,46.2438 94.5,47.5C 87.5909,59.364 89.5909,69.364 100.5,77.5C 98.9969,79.4216 96.9969,80.5883 94.5,81C 90.9085,81.7886 87.4085,81.6219 84,80.5C 83.3333,81.5 83.3333,82.5 84,83.5C 90.9284,97.5465 102.095,102.88 117.5,99.5C 119.781,99.0773 121.448,99.744 122.5,101.5C 119.713,102.477 116.713,102.81 113.5,102.5C 113.337,116.99 109.003,129.99 100.5,141.5C 99.8333,141.833 99.1667,142.167 98.5,142.5C 96.8583,144.081 94.8583,144.747 92.5,144.5C 104.171,133.528 109.837,119.861 109.5,103.5C 97.8154,103.826 88.8154,99.159 82.5,89.5C 80.5945,85.2959 79.4278,80.9626 79,76.5C 79.5613,75.9781 80.228,75.6448 81,75.5C 85.3213,77.4157 89.8213,77.9157 94.5,77C 89.556,72.8517 86.8893,67.5184 86.5,61C 87.8272,51.3468 91.8272,43.0134 98.5,36C 99.4491,35.3828 100.282,35.5494 101,36.5C 100.587,41.6731 99.7537,46.8398 98.5,52C 98.8017,54.3995 99.4684,56.5662 100.5,58.5 Z"/></g>
<g><path style="opacity:0.851" fill="#3954b0" d="M 131.5,71.5 C 137.797,72.3197 144.131,72.653 150.5,72.5C 148.022,73.1641 145.355,73.4975 142.5,73.5C 138.531,73.7058 134.865,73.0392 131.5,71.5 Z"/></g>
<g><path style="opacity:0.894" fill="#384572" d="M 96.5,58.5 C 95.8333,54.8333 95.1667,51.1667 94.5,47.5C 94.4614,46.2438 94.9614,45.2438 96,44.5C 96.4992,49.1548 96.6658,53.8215 96.5,58.5 Z"/></g>
<g><path style="opacity:0.004" fill="#000100" d="M 23.5,90.5 C 24.5735,91.2506 24.7401,92.2506 24,93.5C 23.5172,92.552 23.3505,91.552 23.5,90.5 Z"/></g>
<g><path style="opacity:0.004" fill="#000100" d="M 23.5,94.5 C 24.525,94.8966 24.6917,95.5632 24,96.5C 23.5357,95.9056 23.369,95.2389 23.5,94.5 Z"/></g>
<g><path style="opacity:0.004" fill="#000100" d="M 23.5,97.5 C 24.525,97.8966 24.6917,98.5632 24,99.5C 23.5357,98.9056 23.369,98.2389 23.5,97.5 Z"/></g>
<g><path style="opacity:0.918" fill="#3e549f" d="M 117.5,99.5 C 119.265,98.5386 121.265,98.2053 123.5,98.5C 123.737,99.791 123.404,100.791 122.5,101.5C 121.448,99.744 119.781,99.0773 117.5,99.5 Z"/></g>
<g><path style="opacity:0.098" fill="#373742" d="M 176.5,102.5 C 186.216,104.063 191.216,109.896 191.5,120C 191.259,123.207 190.759,126.374 190,129.5C 184.568,120.088 176.401,114.588 165.5,113C 168.404,108.593 172.071,105.093 176.5,102.5 Z"/></g>
<g><path style="opacity:0.004" fill="#000100" d="M 23.5,107.5 C 24.8333,108.167 24.8333,108.167 23.5,107.5 Z"/></g>
<g><path style="opacity:0.004" fill="#000100" d="M 23.5,109.5 C 24.6129,110.946 24.7796,112.613 24,114.5C 23.5065,112.866 23.3398,111.199 23.5,109.5 Z"/></g>
<g><path style="opacity:0.004" fill="#000100" d="M 23.5,115.5 C 24.8333,116.167 24.8333,116.167 23.5,115.5 Z"/></g>
<g><path style="opacity:0.004" fill="#000100" d="M 24.5,117.5 C 25.8333,118.167 25.8333,118.167 24.5,117.5 Z"/></g>
<g><path style="opacity:0.098" fill="#383944" d="M 162.5,117.5 C 170.263,118.193 176.93,121.193 182.5,126.5C 179.795,130.19 176.128,132.356 171.5,133C 167.219,134.458 164.053,133.292 162,129.5C 161.503,125.476 161.669,121.476 162.5,117.5 Z"/></g>
<g><path style="opacity:0.004" fill="#000100" d="M 230.5,122.5 C 231.525,122.897 231.692,123.563 231,124.5C 230.536,123.906 230.369,123.239 230.5,122.5 Z"/></g>
<g><path style="opacity:0.004" fill="#151516" d="M 26.5,129.5 C 27.525,129.897 27.6917,130.563 27,131.5C 26.5357,130.906 26.369,130.239 26.5,129.5 Z"/></g>
<g><path style="opacity:0.004" fill="#000100" d="M 227.5,134.5 C 228.833,135.167 228.833,135.167 227.5,134.5 Z"/></g>
<g><path style="opacity:0.004" fill="#000100" d="M 218.5,137.5 C 219.773,138.077 219.773,138.743 218.5,139.5C 217.537,139.03 217.537,138.363 218.5,137.5 Z"/></g>
<g><path style="opacity:0.004" fill="#000100" d="M 28.5,138.5 C 29.8333,139.167 29.8333,139.167 28.5,138.5 Z"/></g>
<g><path style="opacity:0.004" fill="#000100" d="M 225.5,141.5 C 226.833,142.167 226.833,142.167 225.5,141.5 Z"/></g>
<g><path style="opacity:0.902" fill="#40589f" d="M 100.5,141.5 C 100.5,142.167 100.833,142.5 101.5,142.5C 100.5,143.833 99.5,143.833 98.5,142.5C 99.1667,142.167 99.8333,141.833 100.5,141.5 Z"/></g>
<g><path style="opacity:0.004" fill="#000100" d="M 31.5,144.5 C 32.8333,145.167 32.8333,145.167 31.5,144.5 Z"/></g>
<g><path style="opacity:0.693" fill="#181920" d="M 159.5,141.5 C 159.433,142.959 159.766,144.292 160.5,145.5C 156.224,153.466 151.89,161.466 147.5,169.5C 148.127,170.417 148.461,171.417 148.5,172.5C 147.883,172.611 147.383,172.944 147,173.5C 146.808,171.423 146.308,169.423 145.5,167.5C 144.571,168.689 144.238,170.022 144.5,171.5C 142.104,165.049 138.437,159.382 133.5,154.5C 130.532,151.353 127.198,148.686 123.5,146.5C 123.918,145.778 124.584,145.278 125.5,145C 124.944,144.617 124.611,144.117 124.5,143.5C 134.347,147.602 141.347,154.602 145.5,164.5C 150.228,156.794 154.895,149.127 159.5,141.5 Z"/></g>
<g><path style="opacity:0.004" fill="#000100" d="M 31.5,146.5 C 32.8333,147.167 32.8333,147.167 31.5,146.5 Z"/></g>
<g><path style="opacity:0.004" fill="#000100" d="M 107.5,147.5 C 108.251,146.427 109.251,146.26 110.5,147C 109.552,147.483 108.552,147.649 107.5,147.5 Z"/></g>
<g><path style="opacity:0.004" fill="#000100" d="M 111.5,147.5 C 112.601,146.402 113.934,146.235 115.5,147C 114.207,147.49 112.873,147.657 111.5,147.5 Z"/></g>
<g><path style="opacity:0.004" fill="#0e0e10" d="M 116.5,147.5 C 117.497,146.287 118.497,146.454 119.5,148C 118.423,148.47 117.423,148.303 116.5,147.5 Z"/></g>
<g><path style="opacity:0.004" fill="#000100" d="M 98.5,148.5 C 99.8333,149.167 99.8333,149.167 98.5,148.5 Z"/></g>
<g><path style="opacity:0.008" fill="#1b1b1e" d="M 222.5,147.5 C 223.573,148.251 223.74,149.251 223,150.5C 222.517,149.552 222.351,148.552 222.5,147.5 Z"/></g>
<g><path style="opacity:0.004" fill="#000100" d="M 122.5,149.5 C 123.833,150.167 123.833,150.167 122.5,149.5 Z"/></g>
<g><path style="opacity:0.008" fill="#222226" d="M 33.5,152.5 C 33.8966,151.475 34.5632,151.308 35.5,152C 34.9056,152.464 34.2389,152.631 33.5,152.5 Z"/></g>
<g><path style="opacity:0.004" fill="#000100" d="M 90.5,151.5 C 91.8333,152.167 91.8333,152.167 90.5,151.5 Z"/></g>
<g><path style="opacity:0.004" fill="#151516" d="M 127.5,151.5 C 128.525,151.897 128.692,152.563 128,153.5C 127.536,152.906 127.369,152.239 127.5,151.5 Z"/></g>
<g><path style="opacity:0.004" fill="#000100" d="M 219.5,153.5 C 222.001,153.511 222.168,154.178 220,155.5C 219.536,154.906 219.369,154.239 219.5,153.5 Z"/></g>
<g><path style="opacity:0.004" fill="#000100" d="M 84.5,154.5 C 85.8333,155.167 85.8333,155.167 84.5,154.5 Z"/></g>
<g><path style="opacity:0.004" fill="#000100" d="M 36.5,156.5 C 37.8333,157.167 37.8333,157.167 36.5,156.5 Z"/></g>
<g><path style="opacity:0.004" fill="#0f0f11" d="M 133.5,154.5 C 133.557,155.609 133.89,156.609 134.5,157.5C 132.448,156.947 132.115,155.947 133.5,154.5 Z"/></g>
<g><path style="opacity:0.004" fill="#000100" d="M 134.5,157.5 C 135.833,158.167 135.833,158.167 134.5,157.5 Z"/></g>
<g><path style="opacity:0.004" fill="#000100" d="M 217.5,157.5 C 218.833,158.167 218.833,158.167 217.5,157.5 Z"/></g>
<g><path style="opacity:0.004" fill="#000100" d="M 39.5,159.5 C 40.8333,160.167 40.8333,160.167 39.5,159.5 Z"/></g>
<g><path style="opacity:0.004" fill="#000100" d="M 77.5,159.5 C 78.8333,160.167 78.8333,160.167 77.5,159.5 Z"/></g>
<g><path style="opacity:0.004" fill="#000100" d="M 135.5,159.5 C 136.833,160.167 136.833,160.167 135.5,159.5 Z"/></g>
<g><path style="opacity:0.004" fill="#000100" d="M 74.5,161.5 C 75.525,161.897 75.6917,162.563 75,163.5C 74.5357,162.906 74.369,162.239 74.5,161.5 Z"/></g>
<g><path style="opacity:0.004" fill="#000100" d="M 41.5,162.5 C 42.2674,163.172 42.9341,164.005 43.5,165C 41.9387,165.188 41.272,164.355 41.5,162.5 Z"/></g>
<g><path style="opacity:0.004" fill="#000100" d="M 50.5,163.5 C 51.0768,162.227 51.7435,162.227 52.5,163.5C 52.0302,164.463 51.3635,164.463 50.5,163.5 Z"/></g>
<g><path style="opacity:0.004" fill="#000100" d="M 214.5,162.5 C 215.833,163.167 215.833,163.167 214.5,162.5 Z"/></g>
<g><path style="opacity:0.004" fill="#000100" d="M 61.5,163.5 C 61.2172,164.289 60.7172,164.956 60,165.5C 59.4719,164.184 59.9719,163.517 61.5,163.5 Z"/></g>
<g><path style="opacity:0.004" fill="#000100" d="M 212.5,164.5 C 213.833,165.167 213.833,165.167 212.5,164.5 Z"/></g>
<g><path style="opacity:0.004" fill="#000100" d="M 44.5,167.5 C 45.8333,168.167 45.8333,168.167 44.5,167.5 Z"/></g>
<g><path style="opacity:0.004" fill="#000100" d="M 46.5,169.5 C 47.8333,170.167 47.8333,170.167 46.5,169.5 Z"/></g>
<g><path style="opacity:0.004" fill="#000100" d="M 208.5,169.5 C 209.239,169.369 209.906,169.536 210.5,170C 209.563,170.692 208.897,170.525 208.5,169.5 Z"/></g>
<g><path style="opacity:0.004" fill="#000100" d="M 206.5,172.5 C 207.833,173.167 207.833,173.167 206.5,172.5 Z"/></g>
<g><path style="opacity:0.004" fill="#000100" d="M 142.5,173.5 C 143.525,173.897 143.692,174.563 143,175.5C 142.536,174.906 142.369,174.239 142.5,173.5 Z"/></g>
<g><path style="opacity:0.004" fill="#000100" d="M 203.5,176.5 C 203.897,175.475 204.563,175.308 205.5,176C 204.906,176.464 204.239,176.631 203.5,176.5 Z"/></g>
<g><path style="opacity:0.004" fill="#000100" d="M 142.5,176.5 C 143.833,177.167 143.833,177.167 142.5,176.5 Z"/></g>
<g><path style="opacity:0.004" fill="#000100" d="M 54.5,178.5 C 55.2506,177.427 56.2506,177.26 57.5,178C 56.552,178.483 55.552,178.649 54.5,178.5 Z"/></g>
<g><path style="opacity:0.004" fill="#000100" d="M 58.5,178.5 C 58.8966,177.475 59.5632,177.308 60.5,178C 59.9056,178.464 59.2389,178.631 58.5,178.5 Z"/></g>
<g><path style="opacity:0.004" fill="#000100" d="M 201.5,177.5 C 202.833,178.167 202.833,178.167 201.5,177.5 Z"/></g>
<g><path style="opacity:0.004" fill="#000100" d="M 198.5,180.5 C 199.833,181.167 199.833,181.167 198.5,180.5 Z"/></g>
<g><path style="opacity:0.004" fill="#000100" d="M 193.5,185.5 C 194.833,186.167 194.833,186.167 193.5,185.5 Z"/></g>
<g><path style="opacity:0.004" fill="#000100" d="M 188.5,188.5 C 189.833,189.167 189.833,189.167 188.5,188.5 Z"/></g>
<g><path style="opacity:0.004" fill="#000100" d="M 186.5,190.5 C 187.833,191.167 187.833,191.167 186.5,190.5 Z"/></g>
<g><path style="opacity:0.004" fill="#000100" d="M 142.5,192.5 C 143.833,193.167 143.833,193.167 142.5,192.5 Z"/></g>
<g><path style="opacity:0.004" fill="#000100" d="M 177.5,196.5 C 177.897,195.475 178.563,195.308 179.5,196C 178.906,196.464 178.239,196.631 177.5,196.5 Z"/></g>
<g><path style="opacity:0.004" fill="#000100" d="M 142.5,196.5 C 143.833,197.167 143.833,197.167 142.5,196.5 Z"/></g>
<g><path style="opacity:0.004" fill="#000100" d="M 166.5,200.5 C 167.833,201.167 167.833,201.167 166.5,200.5 Z"/></g>
<g><path style="opacity:0.004" fill="#000100" d="M 158.5,204.5 C 158.897,203.475 159.563,203.308 160.5,204C 159.906,204.464 159.239,204.631 158.5,204.5 Z"/></g>
<g><path style="opacity:0.004" fill="#000100" d="M 149.5,205.5 C 150.525,205.897 150.692,206.563 150,207.5C 149.536,206.906 149.369,206.239 149.5,205.5 Z"/></g>
<g><path style="opacity:0.004" fill="#000100" d="M 145.5,207.5 C 145.897,206.475 146.563,206.308 147.5,207C 146.906,207.464 146.239,207.631 145.5,207.5 Z"/></g>
<g><path style="opacity:0.004" fill="#000100" d="M 164.5,219.5 C 165.525,219.897 165.692,220.563 165,221.5C 164.536,220.906 164.369,220.239 164.5,219.5 Z"/></g>
<g><path style="opacity:0.679" fill="#070707" d="M 43.5,246.5 C 37.8883,248.917 35.2216,246.917 35.5,240.5C 31.8333,240.5 28.1667,240.5 24.5,240.5C 24.9478,246.555 22.2811,248.721 16.5,247C 20.3299,238.342 23.6633,229.509 26.5,220.5C 28.8333,220.5 31.1667,220.5 33.5,220.5C 36.2627,229.465 39.596,238.132 43.5,246.5 Z M 29.5,226.5 C 30.9099,229.542 32.2432,232.709 33.5,236C 31.1667,236.667 28.8333,236.667 26.5,236C 28.0015,232.995 29.0015,229.829 29.5,226.5 Z"/></g>
<g><path style="opacity:0.612" fill="#171818" d="M 166.5,220.5 C 171.844,220.334 177.177,220.501 182.5,221C 183.931,221.465 185.097,222.299 186,223.5C 187.262,227.909 186.428,231.743 183.5,235C 178.949,236.215 174.282,236.881 169.5,237C 170.456,240.394 170.789,243.894 170.5,247.5C 169.167,247.5 167.833,247.5 166.5,247.5C 166.5,238.5 166.5,229.5 166.5,220.5 Z M 169.5,224.5 C 172.976,223.357 176.642,223.19 180.5,224C 183.917,226.321 184.25,228.988 181.5,232C 177.5,232.667 173.5,232.667 169.5,232C 170.814,229.395 170.814,226.895 169.5,224.5 Z"/></g>
<g><path style="opacity:0.749" fill="#0d0d10" d="M 209.5,220.5 C 210.833,220.5 212.167,220.5 213.5,220.5C 213.5,229.5 213.5,238.5 213.5,247.5C 212.167,247.5 210.833,247.5 209.5,247.5C 209.5,238.5 209.5,229.5 209.5,220.5 Z"/></g>
<g><path style="opacity:0.497" fill="#030404" d="M 216.5,220.5 C 217.5,220.5 218.5,220.5 219.5,220.5C 219.5,229.5 219.5,238.5 219.5,247.5C 218.5,247.5 217.5,247.5 216.5,247.5C 216.5,238.5 216.5,229.5 216.5,220.5 Z"/></g>
<g><path style="opacity:0.004" fill="#000100" d="M 207.5,221.5 C 208.645,225.311 208.812,229.311 208,233.5C 207.501,229.514 207.334,225.514 207.5,221.5 Z"/></g>
<g><path style="opacity:0.004" fill="#000100" d="M 23.5,222.5 C 24.525,222.897 24.6917,223.563 24,224.5C 23.5357,223.906 23.369,223.239 23.5,222.5 Z"/></g>
<g><path style="opacity:0.004" fill="#000100" d="M 35.5,222.5 C 36.8333,223.167 36.8333,223.167 35.5,222.5 Z"/></g>
<g><path style="opacity:0.004" fill="#000100" d="M 163.5,222.5 C 164.656,230.323 164.823,238.323 164,246.5C 163.5,238.507 163.334,230.507 163.5,222.5 Z"/></g>
<g><path style="opacity:0.004" fill="#000100" d="M 44.5,224.5 C 47.0009,224.511 47.1676,225.178 45,226.5C 44.5357,225.906 44.369,225.239 44.5,224.5 Z"/></g>
<g><path style="opacity:0.004" fill="#000100" d="M 50.5,224.5 C 51.0431,224.56 51.3764,224.893 51.5,225.5C 50.277,226.614 48.9437,226.781 47.5,226C 48.7375,225.768 49.7375,225.268 50.5,224.5 Z"/></g>
<g><path style="opacity:0.004" fill="#000100" d="M 55.5,225.5 C 54.7611,225.631 54.0944,225.464 53.5,225C 54.4368,224.308 55.1034,224.475 55.5,225.5 Z"/></g>
<g><path style="opacity:0.004" fill="#000100" d="M 64.5,224.5 C 65.8333,225.167 65.8333,225.167 64.5,224.5 Z"/></g>
<g><path style="opacity:0.004" fill="#000100" d="M 67.5,224.5 C 68.8333,225.167 68.8333,225.167 67.5,224.5 Z"/></g>
<g><path style="opacity:0.004" fill="#000100" d="M 80.5,224.5 C 81.525,224.897 81.6917,225.563 81,226.5C 80.5357,225.906 80.369,225.239 80.5,224.5 Z"/></g>
<g><path style="opacity:0.004" fill="#000100" d="M 83.5,225.5 C 84.2506,224.427 85.2506,224.26 86.5,225C 85.552,225.483 84.552,225.649 83.5,225.5 Z"/></g>
<g><path style="opacity:0.004" fill="#000100" d="M 89.5,225.5 C 88.8333,224.167 88.8333,224.167 89.5,225.5 Z"/></g>
<g><path style="opacity:0.004" fill="#000100" d="M 93.5,224.5 C 94.525,224.897 94.6917,225.563 94,226.5C 93.5357,225.906 93.369,225.239 93.5,224.5 Z"/></g>
<g><path style="opacity:0.004" fill="#000100" d="M 96.5,224.5 C 100.415,225.267 104.415,225.767 108.5,226C 106.5,226.167 104.5,226.333 102.5,226.5C 100.048,226.461 98.0478,225.794 96.5,224.5 Z"/></g>
<g><path style="opacity:0.004" fill="#000100" d="M 109.5,225.5 C 110.077,224.227 110.743,224.227 111.5,225.5C 111.03,226.463 110.363,226.463 109.5,225.5 Z"/></g>
<g><path style="opacity:0.004" fill="#000100" d="M 119.5,224.5 C 120.289,224.783 120.956,225.283 121.5,226C 120.184,226.528 119.517,226.028 119.5,224.5 Z"/></g>
<g><path style="opacity:0.004" fill="#000100" d="M 127.5,225.5 C 126.761,225.631 126.094,225.464 125.5,225C 126.437,224.308 127.103,224.475 127.5,225.5 Z"/></g>
<g><path style="opacity:0.004" fill="#000100" d="M 128.5,224.5 C 129.833,225.167 129.833,225.167 128.5,224.5 Z"/></g>
<g><path style="opacity:0.004" fill="#000100" d="M 136.5,224.5 C 137.833,225.167 137.833,225.167 136.5,224.5 Z"/></g>
<g><path style="opacity:0.004" fill="#000100" d="M 140.5,224.5 C 141.043,224.56 141.376,224.893 141.5,225.5C 140.635,226.583 139.635,226.749 138.5,226C 139.416,225.722 140.082,225.222 140.5,224.5 Z"/></g>
<g><path style="opacity:0.004" fill="#000100" d="M 144.5,224.5 C 145.833,225.167 145.833,225.167 144.5,224.5 Z"/></g>
<g><path style="opacity:0.004" fill="#000100" d="M 149.5,225.5 C 148.833,224.167 148.833,224.167 149.5,225.5 Z"/></g>
<g><path style="opacity:0.004" fill="#000100" d="M 192.5,224.5 C 193.525,224.897 193.692,225.563 193,226.5C 192.536,225.906 192.369,225.239 192.5,224.5 Z"/></g>
<g><path style="opacity:0.004" fill="#000100" d="M 194.5,224.5 C 195.833,225.167 195.833,225.167 194.5,224.5 Z"/></g>
<g><path style="opacity:0.004" fill="#000100" d="M 198.5,225.5 C 199.849,224.203 201.182,224.37 202.5,226C 201.181,226.195 199.847,226.028 198.5,225.5 Z"/></g>
<g><path style="opacity:0.004" fill="#000100" d="M 224.5,225.5 C 224.897,224.475 225.563,224.308 226.5,225C 225.906,225.464 225.239,225.631 224.5,225.5 Z"/></g>
<g><path style="opacity:0.004" fill="#000100" d="M 238.5,225.5 C 237.923,226.773 237.257,226.773 236.5,225.5C 236.97,224.537 237.637,224.537 238.5,225.5 Z"/></g>
<g><path style="opacity:0.004" fill="#000100" d="M 238.5,224.5 C 239.833,225.167 239.833,225.167 238.5,224.5 Z"/></g>
<g><path style="opacity:0.004" fill="#000100" d="M 55.5,225.5 C 56.8333,226.167 56.8333,226.167 55.5,225.5 Z"/></g>
<g><path style="opacity:0.004" fill="#000100" d="M 62.5,225.5 C 63.8333,226.167 63.8333,226.167 62.5,225.5 Z"/></g>
<g><path style="opacity:0.004" fill="#000100" d="M 69.5,225.5 C 70.8333,226.167 70.8333,226.167 69.5,225.5 Z"/></g>
<g><path style="opacity:0.004" fill="#000100" d="M 88.5,225.5 C 87.8333,226.167 87.8333,226.167 88.5,225.5 Z"/></g>
<g><path style="opacity:0.004" fill="#000100" d="M 89.5,225.5 C 90.8333,226.167 90.8333,226.167 89.5,225.5 Z"/></g>
<g><path style="opacity:0.004" fill="#000100" d="M 127.5,225.5 C 127.833,225.5 128.167,225.5 128.5,225.5C 128.315,226.17 127.981,226.17 127.5,225.5 Z"/></g>
<g><path style="opacity:0.004" fill="#000100" d="M 136.5,225.5 C 135.833,226.167 135.833,226.167 136.5,225.5 Z"/></g>
<g><path style="opacity:0.004" fill="#000100" d="M 144.5,225.5 C 144.103,226.525 143.437,226.692 142.5,226C 143.094,225.536 143.761,225.369 144.5,225.5 Z"/></g>
<g><path style="opacity:0.004" fill="#000100" d="M 149.5,225.5 C 150.239,225.369 150.906,225.536 151.5,226C 150.563,226.692 149.897,226.525 149.5,225.5 Z"/></g>
<g><path style="opacity:0.004" fill="#000100" d="M 224.5,225.5 C 223.749,226.573 222.749,226.74 221.5,226C 222.448,225.517 223.448,225.351 224.5,225.5 Z"/></g>
<g><path style="opacity:0.004" fill="#000100" d="M 233.5,225.5 C 234.573,226.251 234.74,227.251 234,228.5C 233.517,227.552 233.351,226.552 233.5,225.5 Z"/></g>
<g><path style="opacity:0.004" fill="#000100" d="M 225.5,226.5 C 226.833,227.167 226.833,227.167 225.5,226.5 Z"/></g>
<g><path style="opacity:0.004" fill="#000100" d="M 20.5,227.5 C 21.8333,228.167 21.8333,228.167 20.5,227.5 Z"/></g>
<g><path style="opacity:0.686" fill="#09090a" d="M 55.5,226.5 C 57.0913,227.219 58.5913,228.219 60,229.5C 63.5603,226.509 67.2269,226.176 71,228.5C 72.4155,234.715 72.9155,241.048 72.5,247.5C 70.8333,247.5 69.1667,247.5 67.5,247.5C 67.6659,242.489 67.4993,237.489 67,232.5C 65.3333,231.167 63.6667,231.167 62,232.5C 61.5007,237.489 61.3341,242.489 61.5,247.5C 59.5,247.5 57.5,247.5 55.5,247.5C 55.5,242.167 55.5,236.833 55.5,231.5C 53.5328,231.261 51.6995,231.594 50,232.5C 49.5007,237.489 49.3341,242.489 49.5,247.5C 47.3792,247.675 45.3792,247.341 43.5,246.5C 44.8125,240.666 44.8125,234.833 43.5,229C 47.5106,229.056 51.5106,228.223 55.5,226.5 Z"/></g>
<g><path style="opacity:0.004" fill="#000100" d="M 72.5,227.5 C 73.8333,228.167 73.8333,228.167 72.5,227.5 Z"/></g>
<g><path style="opacity:0.004" fill="#000100" d="M 75.5,227.5 C 76.8333,228.167 76.8333,228.167 75.5,227.5 Z"/></g>
<g><path style="opacity:0.706" fill="#0f1010" d="M 93.5,231.5 C 93.447,237.196 93.7803,242.862 94.5,248.5C 92.0637,248.683 89.897,248.016 88,246.5C 81.7022,250.114 77.2022,248.614 74.5,242C 76.5677,236.625 80.5677,234.291 86.5,235C 87.3366,233.989 87.67,232.822 87.5,231.5C 83.359,232.24 79.359,233.24 75.5,234.5C 76.1043,229.336 79.1043,226.669 84.5,226.5C 88.5147,226.601 91.5147,228.268 93.5,231.5 Z M 84.5,238.5 C 85.5,238.5 86.5,238.5 87.5,238.5C 87.7135,240.144 87.3802,241.644 86.5,243C 84.5273,243.495 82.5273,243.662 80.5,243.5C 80.4078,240.6 81.7411,238.933 84.5,238.5 Z"/></g>
<g><path style="opacity:0.004" fill="#000100" d="M 92.5,228.5 C 93.0768,227.227 93.7435,227.227 94.5,228.5C 94.0302,229.463 93.3635,229.463 92.5,228.5 Z"/></g>
<g><path style="opacity:0.673" fill="#111112" d="M 95.5,227.5 C 101.167,227.5 106.833,227.5 112.5,227.5C 112.657,228.873 112.49,230.207 112,231.5C 108.833,235.333 105.667,239.167 102.5,243C 106.167,243.333 109.833,243.667 113.5,244C 112.167,244.667 112.167,245.333 113.5,246C 107.683,247.453 101.683,247.953 95.5,247.5C 95.3398,245.801 95.5065,244.134 96,242.5C 98.6458,239.02 101.479,235.686 104.5,232.5C 101.966,232.434 99.4662,232.434 97,232.5C 95.7308,231.095 95.2308,229.429 95.5,227.5 Z"/></g>
<g><path style="opacity:0.004" fill="#000100" d="M 115.5,227.5 C 116.833,228.167 116.833,228.167 115.5,227.5 Z"/></g>
<g><path style="opacity:0.709" fill="#0a0a0b" d="M 123.5,226.5 C 133.291,228.33 136.457,233.997 133,243.5C 127.665,249.634 121.999,249.968 116,244.5C 111.884,235.565 114.384,229.565 123.5,226.5 Z M 121.5,231.5 C 124.044,231.104 126.211,231.771 128,233.5C 129.004,236.993 128.504,240.159 126.5,243C 123.975,243.896 121.808,243.396 120,241.5C 119.037,237.851 119.537,234.518 121.5,231.5 Z"/></g>
<g><path style="opacity:0.004" fill="#000100" d="M 131.5,227.5 C 132.833,228.167 132.833,228.167 131.5,227.5 Z"/></g>
<g><path style="opacity:0.644" fill="#080809" d="M 146.5,226.5 C 150.024,226.667 152.524,228.333 154,231.5C 154.499,236.823 154.666,242.156 154.5,247.5C 152.5,247.5 150.5,247.5 148.5,247.5C 148.5,242.167 148.5,236.833 148.5,231.5C 145.453,230.855 143.287,231.855 142,234.5C 141.501,238.821 141.334,243.154 141.5,247.5C 139.833,247.5 138.167,247.5 136.5,247.5C 136.5,240.833 136.5,234.167 136.5,227.5C 138.766,227.141 140.599,227.808 142,229.5C 143.409,228.219 144.909,227.219 146.5,226.5 Z"/></g>
<g><path style="opacity:0.004" fill="#000100" d="M 189.5,227.5 C 190.833,228.167 190.833,228.167 189.5,227.5 Z"/></g>
<g><path style="opacity:0.66" fill="#0f0f10" d="M 196.5,226.5 C 206.232,228.335 209.399,234.002 206,243.5C 201.657,249.236 196.657,249.903 191,245.5C 187.727,240.233 187.727,234.9 191,229.5C 192.876,228.391 194.709,227.391 196.5,226.5 Z M 194.5,230.5 C 200.755,228.798 203.755,231.131 203.5,237.5C 203.741,244.03 200.741,246.196 194.5,244C 190.686,239.539 190.686,235.039 194.5,230.5 Z"/></g>
<g><path style="opacity:0.667" fill="#0e0e0f" d="M 221.5,227.5 C 222.822,227.33 223.989,227.663 225,228.5C 226.543,232.965 228.377,237.299 230.5,241.5C 232.569,236.959 234.235,232.293 235.5,227.5C 236.5,227.5 237.5,227.5 238.5,227.5C 236.257,235.997 233.424,244.33 230,252.5C 228.211,254.229 226.044,254.896 223.5,254.5C 223.5,253.5 223.5,252.5 223.5,251.5C 226.541,251.621 228.208,250.121 228.5,247C 226.007,240.522 223.673,234.022 221.5,227.5 Z"/></g>
<g><path style="opacity:0.004" fill="#000100" d="M 41.5,228.5 C 42.8333,229.167 42.8333,229.167 41.5,228.5 Z"/></g>
<g><path style="opacity:0.008" fill="#1b1b1e" d="M 115.5,228.5 C 114.923,229.773 114.257,229.773 113.5,228.5C 113.97,227.537 114.637,227.537 115.5,228.5 Z"/></g>
<g><path style="opacity:0.004" fill="#000100" d="M 38.5,230.5 C 39.8333,231.167 39.8333,231.167 38.5,230.5 Z"/></g>
<g><path style="opacity:0.004" fill="#000100" d="M 93.5,230.5 C 94.8333,231.167 94.8333,231.167 93.5,230.5 Z"/></g>
<g><path style="opacity:0.004" fill="#000100" d="M 134.5,230.5 C 135.833,231.167 135.833,231.167 134.5,230.5 Z"/></g>
<g><path style="opacity:0.004" fill="#000100" d="M 227.5,230.5 C 228.525,230.897 228.692,231.563 228,232.5C 227.536,231.906 227.369,231.239 227.5,230.5 Z"/></g>
<g><path style="opacity:0.004" fill="#000100" d="M 52.5,232.5 C 53.8333,233.167 53.8333,233.167 52.5,232.5 Z"/></g>
<g><path style="opacity:0.004" fill="#000100" d="M 64.5,232.5 C 65.8333,233.167 65.8333,233.167 64.5,232.5 Z"/></g>
<g><path style="opacity:0.004" fill="#000100" d="M 83.5,232.5 C 84.8333,233.167 84.8333,233.167 83.5,232.5 Z"/></g>
<g><path style="opacity:0.004" fill="#000100" d="M 145.5,232.5 C 146.833,233.167 146.833,233.167 145.5,232.5 Z"/></g>
<g><path style="opacity:0.004" fill="#000100" d="M 194.5,232.5 C 196.656,232.872 196.656,233.872 194.5,235.5C 193.913,234.767 193.913,233.767 194.5,232.5 Z"/></g>
<g><path style="opacity:0.004" fill="#000100" d="M 238.5,232.5 C 239.833,233.167 239.833,233.167 238.5,232.5 Z"/></g>
<g><path style="opacity:0.004" fill="#000100" d="M 186.5,233.5 C 187.525,233.897 187.692,234.563 187,235.5C 186.536,234.906 186.369,234.239 186.5,233.5 Z"/></g>
<g><path style="opacity:0.004" fill="#000100" d="M 51.5,234.5 C 52.8333,235.167 52.8333,235.167 51.5,234.5 Z"/></g>
<g><path style="opacity:0.004" fill="#000100" d="M 64.5,235.5 C 64.56,234.957 64.8933,234.624 65.5,234.5C 66.6616,239.131 66.8283,243.798 66,248.5C 65.8247,243.981 65.3247,239.647 64.5,235.5 Z"/></g>
<g><path style="opacity:0.004" fill="#000100" d="M 111.5,234.5 C 112.525,234.897 112.692,235.563 112,236.5C 111.536,235.906 111.369,235.239 111.5,234.5 Z"/></g>
<g><path style="opacity:0.004" fill="#000100" d="M 155.5,234.5 C 156.833,235.167 156.833,235.167 155.5,234.5 Z"/></g>
<g><path style="opacity:0.004" fill="#000100" d="M 221.5,234.5 C 222.833,235.167 222.833,235.167 221.5,234.5 Z"/></g>
<g><path style="opacity:0.004" fill="#000100" d="M 238.5,234.5 C 239.833,235.167 239.833,235.167 238.5,234.5 Z"/></g>
<g><path style="opacity:0.004" fill="#000100" d="M 18.5,235.5 C 19.525,235.897 19.6917,236.563 19,237.5C 18.5357,236.906 18.369,236.239 18.5,235.5 Z"/></g>
<g><path style="opacity:0.004" fill="#000100" d="M 40.5,235.5 C 41.8333,236.167 41.8333,236.167 40.5,235.5 Z"/></g>
<g><path style="opacity:0.004" fill="#000100" d="M 98.5,235.5 C 99.8333,236.167 99.8333,236.167 98.5,235.5 Z"/></g>
<g><path style="opacity:0.004" fill="#000100" d="M 183.5,236.5 C 184.833,237.167 184.833,237.167 183.5,236.5 Z"/></g>
<g><path style="opacity:0.004" fill="#000100" d="M 186.5,236.5 C 187.525,236.897 187.692,237.563 187,238.5C 186.536,237.906 186.369,237.239 186.5,236.5 Z"/></g>
<g><path style="opacity:0.004" fill="#000100" d="M 73.5,237.5 C 74.8333,238.167 74.8333,238.167 73.5,237.5 Z"/></g>
<g><path style="opacity:0.004" fill="#000100" d="M 108.5,237.5 C 109.833,238.167 109.833,238.167 108.5,237.5 Z"/></g>
<g><path style="opacity:0.004" fill="#000100" d="M 180.5,237.5 C 181.833,238.167 181.833,238.167 180.5,237.5 Z"/></g>
<g><path style="opacity:0.004" fill="#000100" d="M 96.5,238.5 C 97.8333,239.167 97.8333,239.167 96.5,238.5 Z"/></g>
<g><path style="opacity:0.004" fill="#000100" d="M 111.5,239.5 C 112.833,240.167 112.833,240.167 111.5,239.5 Z"/></g>
<g><path style="opacity:0.004" fill="#000100" d="M 94.5,240.5 C 95.8333,241.167 95.8333,241.167 94.5,240.5 Z"/></g>
<g><path style="opacity:0.004" fill="#000100" d="M 124.5,240.5 C 127.001,240.511 127.168,241.178 125,242.5C 124.536,241.906 124.369,241.239 124.5,240.5 Z"/></g>
<g><path style="opacity:0.004" fill="#000100" d="M 235.5,240.5 C 236.525,240.897 236.692,241.563 236,242.5C 235.536,241.906 235.369,241.239 235.5,240.5 Z"/></g>
<g><path style="opacity:0.004" fill="#000100" d="M 186.5,241.5 C 187.833,242.167 187.833,242.167 186.5,241.5 Z"/></g>
<g><path style="opacity:0.004" fill="#000100" d="M 33.5,243.5 C 34.8333,244.167 34.8333,244.167 33.5,243.5 Z"/></g>
<g><path style="opacity:0.004" fill="#000100" d="M 134.5,243.5 C 135.833,244.167 135.833,244.167 134.5,243.5 Z"/></g>
<g><path style="opacity:0.004" fill="#000100" d="M 15.5,244.5 C 16.8333,245.167 16.8333,245.167 15.5,244.5 Z"/></g>
<g><path style="opacity:0.004" fill="#0d0d0f" d="M 207.5,241.5 C 208.782,242.708 208.782,244.042 207.5,245.5C 207.094,244.443 207.094,243.109 207.5,241.5 Z"/></g>
<g><path style="opacity:0.004" fill="#000100" d="M 34.5,245.5 C 35.8333,246.167 35.8333,246.167 34.5,245.5 Z"/></g>
<g><path style="opacity:0.004" fill="#000100" d="M 114.5,245.5 C 115.833,246.167 115.833,246.167 114.5,245.5 Z"/></g>
<g><path style="opacity:0.004" fill="#000100" d="M 134.5,245.5 C 135.833,246.167 135.833,246.167 134.5,245.5 Z"/></g>
<g><path style="opacity:0.004" fill="#000100" d="M 132.5,246.5 C 133.833,247.167 133.833,247.167 132.5,246.5 Z"/></g>
<g><path style="opacity:0.004" fill="#000100" d="M 142.5,246.5 C 143.833,247.167 143.833,247.167 142.5,246.5 Z"/></g>
<g><path style="opacity:0.004" fill="#000100" d="M 189.5,246.5 C 190.289,246.783 190.956,247.283 191.5,248C 190.184,248.528 189.517,248.028 189.5,246.5 Z"/></g>
<g><path style="opacity:0.004" fill="#000100" d="M 207.5,246.5 C 208.525,246.897 208.692,247.563 208,248.5C 207.536,247.906 207.369,247.239 207.5,246.5 Z"/></g>
<g><path style="opacity:0.004" fill="#000100" d="M 226.5,246.5 C 227.833,247.167 227.833,247.167 226.5,246.5 Z"/></g>
<g><path style="opacity:0.004" fill="#000100" d="M 233.5,246.5 C 234.833,247.167 234.833,247.167 233.5,246.5 Z"/></g>
<g><path style="opacity:0.004" fill="#000100" d="M 75.5,247.5 C 76.8333,248.167 76.8333,248.167 75.5,247.5 Z"/></g>
<g><path style="opacity:0.004" fill="#000100" d="M 113.5,247.5 C 114.833,248.167 114.833,248.167 113.5,247.5 Z"/></g>
<g><path style="opacity:0.004" fill="#000100" d="M 132.5,247.5 C 132.103,248.525 131.437,248.692 130.5,248C 131.094,247.536 131.761,247.369 132.5,247.5 Z"/></g>
<g><path style="opacity:0.004" fill="#000100" d="M 221.5,250.5 C 222.833,251.167 222.833,251.167 221.5,250.5 Z"/></g>
</svg>
