<?xml version="1.0" encoding="UTF-8"?>
<!DOCTYPE svg PUBLIC "-//W3C//DTD SVG 1.1//EN" "http://www.w3.org/Graphics/SVG/1.1/DTD/svg11.dtd">
<svg xmlns="http://www.w3.org/2000/svg" version="1.1" width="225px" height="225px" style="shape-rendering:geometricPrecision; text-rendering:geometricPrecision; image-rendering:optimizeQuality; fill-rule:evenodd; clip-rule:evenodd" xmlns:xlink="http://www.w3.org/1999/xlink">
<g><path style="opacity:1" fill="#fefefe" d="M -0.5,-0.5 C 74.5,-0.5 149.5,-0.5 224.5,-0.5C 224.5,44.8333 224.5,90.1667 224.5,135.5C 219.4,114.393 206.733,99.7267 186.5,91.5C 182.621,61.5639 166.955,40.3973 139.5,28C 101.483,16.2279 70.9825,26.3946 48,58.5C 41.7822,68.6528 38.2822,79.6528 37.5,91.5C 17.2667,99.7267 4.60005,114.393 -0.5,135.5C -0.5,90.1667 -0.5,44.8333 -0.5,-0.5 Z"/></g>
<g><path style="opacity:1" fill="#107ed0" d="M 186.5,91.5 C 160.314,84.1732 138.814,91.1732 122,112.5C 117.345,119.145 114.345,126.478 113,134.5C 112.17,156.671 112.337,178.671 113.5,200.5C 133.167,200.5 152.833,200.5 172.5,200.5C 152.34,201.497 132.007,201.83 111.5,201.5C 111.5,201.167 111.5,200.833 111.5,200.5C 111.667,177.831 111.5,155.164 111,132.5C 102.663,104.667 83.9958,90.0002 55,88.5C 48.9164,88.2845 43.083,89.2845 37.5,91.5C 38.2822,79.6528 41.7822,68.6528 48,58.5C 70.9825,26.3946 101.483,16.2279 139.5,28C 166.955,40.3973 182.621,61.5639 186.5,91.5 Z"/></g>
<g><path style="opacity:1" fill="#3053fe" d="M 186.5,91.5 C 187.811,109.256 183.644,125.59 174,140.5C 153.992,160.675 133.826,180.675 113.5,200.5C 112.337,178.671 112.17,156.671 113,134.5C 114.345,126.478 117.345,119.145 122,112.5C 138.814,91.1732 160.314,84.1732 186.5,91.5 Z"/></g>
<g><path style="opacity:1" fill="#0cb3e1" d="M 111.5,200.5 C 99.199,189.007 86.8656,177.507 74.5,166C 65.9691,157.803 57.8025,149.303 50,140.5C 40.3556,125.59 36.189,109.256 37.5,91.5C 43.083,89.2845 48.9164,88.2845 55,88.5C 83.9958,90.0002 102.663,104.667 111,132.5C 111.5,155.164 111.667,177.831 111.5,200.5 Z"/></g>
<g><path style="opacity:1" fill="#2fd4ed" d="M 37.5,91.5 C 36.189,109.256 40.3556,125.59 50,140.5C 57.8025,149.303 65.9691,157.803 74.5,166C 86.8656,177.507 99.199,189.007 111.5,200.5C 111.5,200.833 111.5,201.167 111.5,201.5C 90.8306,201.667 70.164,201.5 49.5,201C 22.0732,195.738 5.40654,179.571 -0.5,152.5C -0.5,146.833 -0.5,141.167 -0.5,135.5C 4.60005,114.393 17.2667,99.7267 37.5,91.5 Z"/></g>
<g><path style="opacity:1" fill="#3168ff" d="M 186.5,91.5 C 206.733,99.7267 219.4,114.393 224.5,135.5C 224.5,140.167 224.5,144.833 224.5,149.5C 219.756,179.244 202.422,196.244 172.5,200.5C 152.833,200.5 133.167,200.5 113.5,200.5C 133.826,180.675 153.992,160.675 174,140.5C 183.644,125.59 187.811,109.256 186.5,91.5 Z"/></g>
<g><path style="opacity:1" fill="#fefefe" d="M 224.5,149.5 C 224.5,174.5 224.5,199.5 224.5,224.5C 149.5,224.5 74.5,224.5 -0.5,224.5C -0.5,200.5 -0.5,176.5 -0.5,152.5C 5.40654,179.571 22.0732,195.738 49.5,201C 70.164,201.5 90.8306,201.667 111.5,201.5C 132.007,201.83 152.34,201.497 172.5,200.5C 202.422,196.244 219.756,179.244 224.5,149.5 Z"/></g>
</svg>
