<?xml version="1.0" encoding="UTF-8"?>
<!DOCTYPE svg PUBLIC "-//W3C//DTD SVG 1.1//EN" "http://www.w3.org/Graphics/SVG/1.1/DTD/svg11.dtd">
<svg xmlns="http://www.w3.org/2000/svg" version="1.1" width="640px" height="640px" style="shape-rendering:geometricPrecision; text-rendering:geometricPrecision; image-rendering:optimizeQuality; fill-rule:evenodd; clip-rule:evenodd" xmlns:xlink="http://www.w3.org/1999/xlink">
<g><path style="opacity:0.997" fill="#fdfefe" d="M 288.5,-0.5 C 288.833,-0.5 289.167,-0.5 289.5,-0.5C 289.833,0.833333 290.167,0.833333 290.5,-0.5C 309.167,-0.5 327.833,-0.5 346.5,-0.5C 370.927,1.72167 394.927,6.72167 418.5,14.5C 419.167,14.8333 419.833,15.1667 420.5,15.5C 422.722,15.178 424.556,15.8446 426,17.5C 426.414,17.0426 426.914,16.7093 427.5,16.5C 428.265,17.6119 429.265,18.2786 430.5,18.5C 432.214,19.7384 434.214,20.405 436.5,20.5C 438.316,22.4414 440.316,23.1081 442.5,22.5C 441.167,22.8333 441.167,23.1667 442.5,23.5C 443.167,23.8333 443.833,24.1667 444.5,24.5C 444.833,24.5 445.167,24.5 445.5,24.5C 446.209,25.404 447.209,25.7373 448.5,25.5C 448.842,26.3382 449.508,26.6716 450.5,26.5C 450.5,27.1667 450.833,27.5 451.5,27.5C 452.167,27.8333 452.833,28.1667 453.5,28.5C 453.833,28.5 454.167,28.5 454.5,28.5C 454.842,29.3382 455.508,29.6716 456.5,29.5C 456.833,29.5 457.167,29.5 457.5,29.5C 457.5,30.1667 457.833,30.5 458.5,30.5C 462.527,32.5133 466.527,34.5133 470.5,36.5C 474.42,38.1315 478.087,40.1315 481.5,42.5C 482.29,43.4013 483.29,44.0679 484.5,44.5C 486.463,45.8202 488.463,47.1535 490.5,48.5C 491.492,48.3284 492.158,48.6618 492.5,49.5C 493.514,50.6737 494.847,51.3404 496.5,51.5C 496.833,52.5 497.5,53.1667 498.5,53.5C 499.5,54.1667 500.5,54.8333 501.5,55.5C 502.209,56.404 503.209,56.7373 504.5,56.5C 505.167,57.5 505.833,58.5 506.5,59.5C 492.933,90.539 478.6,121.206 463.5,151.5C 435.286,125.477 403.286,105.31 367.5,91C 355.059,87.3157 342.393,84.8157 329.5,83.5C 324.35,82.3493 319.016,82.1826 313.5,83C 309.867,83.1489 306.534,83.9823 303.5,85.5C 280.711,90.7832 265.211,104.45 257,126.5C 247.327,162.144 256.494,191.978 284.5,216C 292.812,222.822 301.479,229.156 310.5,235C 339.803,251.429 369.47,267.095 399.5,282C 426.922,296.968 451.755,315.468 474,337.5C 501.553,367.789 517.219,403.456 521,444.5C 523.334,477.992 520.501,510.992 512.5,543.5C 506.849,559.799 499.849,575.465 491.5,590.5C 490.005,590.989 488.671,591.655 487.5,592.5C 486.833,592.5 486.5,592.833 486.5,593.5C 485.508,593.328 484.842,593.662 484.5,594.5C 483.833,594.5 483.5,594.833 483.5,595.5C 482.508,595.328 481.842,595.662 481.5,596.5C 480.508,596.328 479.842,596.662 479.5,597.5C 479.607,599.379 479.107,599.712 478,598.5C 469.423,603.122 460.756,607.455 452,611.5C 451.667,612.167 451.333,612.833 451,613.5C 450.023,612.226 449.189,612.226 448.5,613.5C 447.041,613.433 445.708,613.766 444.5,614.5C 443.29,614.932 442.29,615.599 441.5,616.5C 440.833,616.5 440.167,616.5 439.5,616.5C 438.833,616.5 438.5,616.833 438.5,617.5C 437.508,617.328 436.842,617.662 436.5,618.5C 436.167,618.5 435.833,618.5 435.5,618.5C 433.597,618.796 431.93,619.463 430.5,620.5C 429.167,621.167 427.833,621.833 426.5,622.5C 426.167,621.167 425.833,621.167 425.5,622.5C 425.167,622.5 424.833,622.5 424.5,622.5C 423.508,622.328 422.842,622.662 422.5,623.5C 421.833,623.5 421.167,623.5 420.5,623.5C 419.833,623.833 419.167,624.167 418.5,624.5C 417.518,625.141 416.518,625.807 415.5,626.5C 413.997,625.948 412.331,625.948 410.5,626.5C 409.833,626.833 409.167,627.167 408.5,627.5C 408.167,627.5 407.833,627.5 407.5,627.5C 403.893,628.652 400.227,629.652 396.5,630.5C 396.167,630.5 395.833,630.5 395.5,630.5C 393.694,631.024 392.028,631.691 390.5,632.5C 375.969,635.125 361.302,637.458 346.5,639.5C 326.833,639.5 307.167,639.5 287.5,639.5C 270.969,636.881 254.302,633.547 237.5,629.5C 236.609,628.89 235.609,628.557 234.5,628.5C 233.833,628.5 233.5,628.833 233.5,629.5C 232.508,629.672 231.842,629.338 231.5,628.5C 232.833,628.167 232.833,627.833 231.5,627.5C 230.833,627.5 230.167,627.5 229.5,627.5C 229.5,626.833 229.167,626.5 228.5,626.5C 227.833,626.5 227.167,626.5 226.5,626.5C 221.554,625.617 216.221,623.95 210.5,621.5C 210.5,620.833 210.167,620.5 209.5,620.5C 207.299,619.434 204.965,618.767 202.5,618.5C 201.71,617.599 200.71,616.932 199.5,616.5C 198.833,616.5 198.167,616.5 197.5,616.5C 196.71,615.599 195.71,614.932 194.5,614.5C 193.504,614.586 192.671,614.252 192,613.5C 191.536,614.094 191.369,614.761 191.5,615.5C 190.833,614.833 190.167,614.167 189.5,613.5C 189.5,612.833 189.167,612.5 188.5,612.5C 188.5,611.833 188.167,611.5 187.5,611.5C 186.609,610.89 185.609,610.557 184.5,610.5C 183.451,610.402 182.285,610.402 181,610.5C 180.722,609.584 180.222,608.918 179.5,608.5C 178.71,607.599 177.71,606.932 176.5,606.5C 175.153,605.829 173.986,605.829 173,606.5C 172.722,605.584 172.222,604.918 171.5,604.5C 168.992,602.076 165.992,600.41 162.5,599.5C 162.5,598.833 162.167,598.5 161.5,598.5C 161.167,598.5 160.833,598.5 160.5,598.5C 160.5,597.833 160.167,597.5 159.5,597.5C 159.5,596.833 159.167,596.5 158.5,596.5C 158.167,596.5 157.833,596.5 157.5,596.5C 157.5,595.833 157.167,595.5 156.5,595.5C 156.167,595.5 155.833,595.5 155.5,595.5C 155.5,594.833 155.167,594.5 154.5,594.5C 154.158,593.662 153.492,593.328 152.5,593.5C 152.5,592.833 152.167,592.5 151.5,592.5C 150.395,591.4 149.062,590.733 147.5,590.5C 147.167,589.5 146.5,588.833 145.5,588.5C 145.167,588.5 144.833,588.5 144.5,588.5C 144.158,587.662 143.492,587.328 142.5,587.5C 142.5,586.833 142.167,586.5 141.5,586.5C 139.14,584.147 136.473,582.147 133.5,580.5C 133.167,580.5 132.833,580.5 132.5,580.5C 131.833,579.167 130.833,578.167 129.5,577.5C 129.167,577.5 128.833,577.5 128.5,577.5C 141.954,548.928 155.621,520.595 169.5,492.5C 170.167,492.167 170.833,491.833 171.5,491.5C 198.912,516.208 229.578,535.875 263.5,550.5C 267.526,551.521 271.526,552.521 275.5,553.5C 280.459,556.132 285.792,557.966 291.5,559C 295.486,559.499 299.486,559.666 303.5,559.5C 307.896,561.033 312.563,561.7 317.5,561.5C 361.242,560.595 387.075,538.595 395,495.5C 395.832,484.152 395.666,472.819 394.5,461.5C 388.404,443.661 378.07,428.661 363.5,416.5C 350.132,406.816 336.132,398.149 321.5,390.5C 294.863,377.218 268.196,363.885 241.5,350.5C 232.167,344.5 222.833,338.5 213.5,332.5C 195.241,318.909 178.908,303.242 164.5,285.5C 159.07,276.226 153.403,267.059 147.5,258C 144.914,251.675 142.247,245.509 139.5,239.5C 135.554,226.289 132.221,212.956 129.5,199.5C 129.5,196.833 129.5,194.167 129.5,191.5C 129.5,169.5 129.5,147.5 129.5,125.5C 130.834,116.818 132.501,108.151 134.5,99.5C 138.13,91.0379 141.13,82.3712 143.5,73.5C 150.083,61.5115 157.417,49.8448 165.5,38.5C 168.135,37.1891 170.469,35.5224 172.5,33.5C 172.833,33.5 173.167,33.5 173.5,33.5C 174.609,33.4431 175.609,33.1098 176.5,32.5C 180.112,30.633 183.779,28.9663 187.5,27.5C 188.167,27.5 188.5,27.1667 188.5,26.5C 203.505,20.1793 217.838,15.1793 231.5,11.5C 232.167,11.1667 232.833,10.8333 233.5,10.5C 234.167,10.1667 234.833,9.83333 235.5,9.5C 235.833,10.8333 236.167,10.8333 236.5,9.5C 236.833,9.5 237.167,9.5 237.5,9.5C 242.005,8.83679 246.672,7.83679 251.5,6.5C 253.042,5.69929 254.708,5.36596 256.5,5.5C 267.147,2.844 277.814,0.844004 288.5,-0.5 Z M 194.5,614.5 C 193.791,615.404 192.791,615.737 191.5,615.5C 191.369,614.761 191.536,614.094 192,613.5C 192.671,614.252 193.504,614.586 194.5,614.5 Z"/></g>
<g><path style="opacity:0.006" fill="#000000" d="M 256.5,5.5 C 254.708,5.36596 253.042,5.69929 251.5,6.5C 251.791,5.35089 252.624,4.68423 254,4.5C 255.07,4.52804 255.903,4.86137 256.5,5.5 Z"/></g>
<g><path style="opacity:0.009" fill="#010101" d="M 237.5,9.5 C 237.167,9.5 236.833,9.5 236.5,9.5C 236.167,9.5 235.833,9.5 235.5,9.5C 236.548,7.06732 237.214,7.06732 237.5,9.5 Z"/></g>
<g><path style="opacity:0.014" fill="#030303" d="M 233.5,10.5 C 232.833,10.8333 232.167,11.1667 231.5,11.5C 231.711,9.57591 232.377,9.24258 233.5,10.5 Z"/></g>
<g><path style="opacity:0.013" fill="#010201" d="M 418.5,14.5 C 419.623,13.2426 420.289,13.5759 420.5,15.5C 419.833,15.1667 419.167,14.8333 418.5,14.5 Z"/></g>
<g><path style="opacity:0.011" fill="#010101" d="M 436.5,20.5 C 434.214,20.405 432.214,19.7384 430.5,18.5C 433.152,17.7385 435.818,18.2385 438.5,20C 437.906,20.4643 437.239,20.631 436.5,20.5 Z"/></g>
<g><path style="opacity:0.007" fill="#000000" d="M 442.5,23.5 C 442.5,23.1667 442.5,22.8333 442.5,22.5C 443.833,22.5 444.5,23.1667 444.5,24.5C 443.833,24.1667 443.167,23.8333 442.5,23.5 Z"/></g>
<g><path style="opacity:0.005" fill="#000000" d="M 448.5,25.5 C 447.209,25.7373 446.209,25.404 445.5,24.5C 445.369,23.7611 445.536,23.0944 446,22.5C 446.698,23.6906 447.531,24.6906 448.5,25.5 Z"/></g>
<g><path style="opacity:0.008" fill="#000000" d="M 188.5,26.5 C 188.5,27.1667 188.167,27.5 187.5,27.5C 186.321,25.591 186.654,25.2576 188.5,26.5 Z"/></g>
<g><path style="opacity:0.008" fill="#000000" d="M 450.5,26.5 C 450.56,25.9569 450.893,25.6236 451.5,25.5C 458.671,28.5867 465.671,31.9201 472.5,35.5C 471.508,35.3284 470.842,35.6618 470.5,36.5C 466.527,34.5133 462.527,32.5133 458.5,30.5C 457.833,30.5 457.5,30.1667 457.5,29.5C 457.167,29.5 456.833,29.5 456.5,29.5C 456.158,28.6618 455.492,28.3284 454.5,28.5C 454.167,27.1667 453.833,27.1667 453.5,28.5C 452.833,28.1667 452.167,27.8333 451.5,27.5C 450.833,27.5 450.5,27.1667 450.5,26.5 Z"/></g>
<g><path style="opacity:0.006" fill="#000000" d="M 176.5,32.5 C 175.609,33.1098 174.609,33.4431 173.5,33.5C 174.192,29.1104 175.192,28.7771 176.5,32.5 Z"/></g>
<g><path style="opacity:0.004" fill="#000100" d="M 172.5,33.5 C 171.833,32.1667 171.833,32.1667 172.5,33.5 Z"/></g>
<g><path style="opacity:0.004" fill="#000000" d="M 472.5,35.5 C 473.492,35.3284 474.158,35.6618 474.5,36.5C 473.508,36.6716 472.842,36.3382 472.5,35.5 Z"/></g>
<g><path style="opacity:0.004" fill="#000000" d="M 474.5,36.5 C 475.239,36.369 475.906,36.5357 476.5,37C 475.563,37.6917 474.897,37.525 474.5,36.5 Z"/></g>
<g><path style="opacity:0.004" fill="#000000" d="M 481.5,40.5 C 480.833,39.1667 480.833,39.1667 481.5,40.5 Z"/></g>
<g><path style="opacity:0.016" fill="#000000" d="M 481.5,40.5 C 482.833,41.1667 482.833,41.8333 481.5,42.5C 481.5,41.8333 481.5,41.1667 481.5,40.5 Z"/></g>
<g><path style="opacity:0.008" fill="#000000" d="M 490.5,48.5 C 488.463,47.1535 486.463,45.8202 484.5,44.5C 484.125,41.0933 485.125,40.5933 487.5,43C 489.16,44.4877 490.16,46.321 490.5,48.5 Z"/></g>
<g><path style="opacity:0.004" fill="#020300" d="M 154.5,43.5 C 154.5,43.8333 154.5,44.1667 154.5,44.5C 154.158,45.3382 153.492,45.6716 152.5,45.5C 150.24,44.7624 150.073,43.7624 152,42.5C 152.342,44.6192 153.175,44.9526 154.5,43.5 Z"/></g>
<g><path style="opacity:0.012" fill="#030f00" d="M 149.5,47.5 C 148.205,48.4884 146.872,49.4884 145.5,50.5C 145.5,49.5 145.5,48.5 145.5,47.5C 146.833,47.5 148.167,47.5 149.5,47.5 Z"/></g>
<g><path style="opacity:0.004" fill="#000e01" d="M 144.5,50.5 C 143.833,49.1667 143.833,49.1667 144.5,50.5 Z"/></g>
<g><path style="opacity:0.012" fill="#000000" d="M 492.5,49.5 C 493.873,49.3433 495.207,49.51 496.5,50C 497.738,50.69 497.738,51.19 496.5,51.5C 494.847,51.3404 493.514,50.6737 492.5,49.5 Z"/></g>
<g><path style="opacity:0.004" fill="#020700" d="M 142.5,51.5 C 142.027,52.9063 141.027,53.573 139.5,53.5C 138.287,52.5029 138.454,51.5029 140,50.5C 140.671,51.2524 141.504,51.5858 142.5,51.5 Z"/></g>
<g><path style="opacity:0.997" fill="#37d39f" d="M 165.5,38.5 C 157.417,49.8448 150.083,61.5115 143.5,73.5C 141.692,72.0821 141.025,70.0821 141.5,67.5C 140.167,67.5 138.833,67.5 137.5,67.5C 137.398,71.027 138.398,74.1936 140.5,77C 140.387,78.2798 139.72,79.1131 138.5,79.5C 135.782,74.2422 134.782,74.2422 135.5,79.5C 132.833,79.5 130.167,79.5 127.5,79.5C 127.5,80.8333 127.5,82.1667 127.5,83.5C 123.5,83.5 119.5,83.5 115.5,83.5C 115.5,87.5 115.5,91.5 115.5,95.5C 112.833,95.5 110.167,95.5 107.5,95.5C 107.5,96.8333 107.5,98.1667 107.5,99.5C 104.833,99.5 102.167,99.5 99.5,99.5C 99.5,103.5 99.5,107.5 99.5,111.5C 96.8333,111.5 94.1667,111.5 91.5,111.5C 91.5,112.833 91.5,114.167 91.5,115.5C 88.8333,115.5 86.1667,115.5 83.5,115.5C 83.5,119.5 83.5,123.5 83.5,127.5C 80.8333,127.5 78.1667,127.5 75.5,127.5C 75.5,128.833 75.5,130.167 75.5,131.5C 72.8333,131.5 70.1667,131.5 67.5,131.5C 67.5,140.833 67.5,150.167 67.5,159.5C 64.8333,159.5 62.1667,159.5 59.5,159.5C 59.5,160.833 59.5,162.167 59.5,163.5C 56.8333,163.5 54.1667,163.5 51.5,163.5C 51.5,167.5 51.5,171.5 51.5,175.5C 50.1667,175.5 48.8333,175.5 47.5,175.5C 47.5,180.833 47.5,186.167 47.5,191.5C 43.5,191.5 39.5,191.5 35.5,191.5C 35.5,202.167 35.5,212.833 35.5,223.5C 32.8333,223.5 30.1667,223.5 27.5,223.5C 27.5,224.833 27.5,226.167 27.5,227.5C 24.8333,227.5 22.1667,227.5 19.5,227.5C 19.5,252.833 19.5,278.167 19.5,303.5C 18.1667,303.5 16.8333,303.5 15.5,303.5C 15.1878,286.632 15.5211,269.798 16.5,253C 16.1223,251.365 15.4556,249.865 14.5,248.5C 13.8333,250.5 13.1667,252.5 12.5,254.5C 11.5007,269.485 11.1673,284.485 11.5,299.5C 10.1667,299.5 8.83333,299.5 7.5,299.5C 7.5,300.833 7.5,302.167 7.5,303.5C 8.83333,303.5 10.1667,303.5 11.5,303.5C 11.5,304.833 11.5,306.167 11.5,307.5C 7.5,307.5 3.5,307.5 -0.5,307.5C -0.5,301.833 -0.5,296.167 -0.5,290.5C 0.833333,290.167 0.833333,289.833 -0.5,289.5C -0.5,289.167 -0.5,288.833 -0.5,288.5C 0.895475,284.409 1.56214,280.076 1.5,275.5C 3.38784,273.012 4.0545,270.012 3.5,266.5C 5.07695,255.404 7.41028,244.904 10.5,235C 10.3552,234.228 10.0219,233.561 9.5,233C 11.908,225.751 14.5747,218.584 17.5,211.5C 17.8333,210.833 18.1667,210.167 18.5,209.5C 18.5,209.167 18.5,208.833 18.5,208.5C 19.1667,208.5 19.5,208.167 19.5,207.5C 20.038,205.883 20.3713,204.216 20.5,202.5C 20.8333,201.833 21.1667,201.167 21.5,200.5C 22.2485,199.469 22.9152,198.302 23.5,197C 23.1667,196.667 22.8333,196.333 22.5,196C 24.4224,194.54 25.0891,192.873 24.5,191C 26.8086,189.134 28.1419,186.967 28.5,184.5C 29.404,183.791 29.7373,182.791 29.5,181.5C 30.1667,181.5 30.5,181.167 30.5,180.5C 30.5,180.167 30.5,179.833 30.5,179.5C 31.4013,178.71 32.0679,177.71 32.5,176.5C 32.8333,175.833 33.1667,175.167 33.5,174.5C 33.5,174.167 33.5,173.833 33.5,173.5C 34.3382,173.158 34.6716,172.492 34.5,171.5C 35.1667,171.5 35.5,171.167 35.5,170.5C 35.5,170.167 35.5,169.833 35.5,169.5C 36.1667,169.5 36.5,169.167 36.5,168.5C 37.3382,168.158 37.6716,167.492 37.5,166.5C 38.1667,166.5 38.5,166.167 38.5,165.5C 38.8333,164.833 39.1667,164.167 39.5,163.5C 39.5,163.167 39.5,162.833 39.5,162.5C 40.1667,162.5 40.5,162.167 40.5,161.5C 40.5,161.167 40.5,160.833 40.5,160.5C 41.6396,158.955 42.6396,157.288 43.5,155.5C 44.5,155.167 45.1667,154.5 45.5,153.5C 45.9887,152.005 46.6554,150.671 47.5,149.5C 48.4884,148.205 49.4884,146.872 50.5,145.5C 50.5,145.167 50.5,144.833 50.5,144.5C 51.1667,144.5 51.5,144.167 51.5,143.5C 51.8333,142.833 52.1667,142.167 52.5,141.5C 53.1667,141.5 53.5,141.167 53.5,140.5C 53.5,140.167 53.5,139.833 53.5,139.5C 54.5,138.5 55.5,137.5 56.5,136.5C 56.8333,135.833 57.1667,135.167 57.5,134.5C 58.1667,134.5 58.5,134.167 58.5,133.5C 58.5,133.167 58.5,132.833 58.5,132.5C 61.5466,129.455 64.2133,126.122 66.5,122.5C 67.1667,122.5 67.5,122.167 67.5,121.5C 67.5,121.167 67.5,120.833 67.5,120.5C 68.3382,120.158 68.6716,119.492 68.5,118.5C 69.1667,118.5 69.5,118.167 69.5,117.5C 72.5267,114.807 75.1934,111.807 77.5,108.5C 78.1667,108.5 78.5,108.167 78.5,107.5C 79.5,107.167 80.1667,106.5 80.5,105.5C 81.5,105.167 82.1667,104.5 82.5,103.5C 83.1667,103.5 83.5,103.167 83.5,102.5C 84.5,102.167 85.1667,101.5 85.5,100.5C 86.5511,99.7777 87.2178,98.7777 87.5,97.5C 88.1667,97.5 88.5,97.1667 88.5,96.5C 89.5,96.1667 90.1667,95.5 90.5,94.5C 91.5,94.1667 92.1667,93.5 92.5,92.5C 93.5,92.1667 94.1667,91.5 94.5,90.5C 95.6697,88.7215 97.3364,87.7215 99.5,87.5C 99.3505,86.448 99.5172,85.448 100,84.5C 100.333,84.8333 100.667,85.1667 101,85.5C 102.102,84.051 103.269,82.7177 104.5,81.5C 105.167,81.5 105.5,81.1667 105.5,80.5C 106.167,79.8333 106.833,79.1667 107.5,78.5C 108.167,78.5 108.5,78.1667 108.5,77.5C 109.984,75.9263 111.651,74.593 113.5,73.5C 114.5,73.1667 115.167,72.5 115.5,71.5C 118.524,69.1359 121.524,66.8025 124.5,64.5C 126.48,63.5161 128.147,62.1827 129.5,60.5C 131.027,60.573 132.027,59.9063 132.5,58.5C 134.434,57.8897 136.101,56.8897 137.5,55.5C 138.5,55.1667 139.167,54.5 139.5,53.5C 141.027,53.573 142.027,52.9063 142.5,51.5C 143.492,51.6716 144.158,51.3382 144.5,50.5C 144.833,50.5 145.167,50.5 145.5,50.5C 146.872,49.4884 148.205,48.4884 149.5,47.5C 151.027,47.573 152.027,46.9063 152.5,45.5C 153.492,45.6716 154.158,45.3382 154.5,44.5C 155.833,44.1667 155.833,43.8333 154.5,43.5C 155.189,42.2264 156.023,42.2264 157,43.5C 159.328,40.4302 161.995,38.4302 165,37.5C 165.399,37.7284 165.565,38.0618 165.5,38.5 Z"/></g>
<g><path style="opacity:0.005" fill="#000100" d="M 498.5,53.5 C 500.07,52.4407 501.403,52.9407 502.5,55C 502.272,55.3988 501.938,55.5654 501.5,55.5C 500.5,54.8333 499.5,54.1667 498.5,53.5 Z"/></g>
<g><path style="opacity:0.006" fill="#000000" d="M 509.5,58.5 C 507.86,57.2099 507.36,55.5433 508,53.5C 508.915,54.3279 509.581,55.3279 510,56.5C 510.333,55.8333 510.667,55.1667 511,54.5C 511.5,55.6667 512.333,56.5 513.5,57C 512.099,57.4101 510.766,57.9101 509.5,58.5 Z"/></g>
<g><path style="opacity:0.005" fill="#020e02" d="M 137.5,55.5 C 136.101,56.8897 134.434,57.8897 132.5,58.5C 133.322,55.6195 134.989,54.6195 137.5,55.5 Z"/></g>
<g><path style="opacity:0.004" fill="#000100" d="M 504.5,55.5 C 505.833,56.1667 505.833,56.1667 504.5,55.5 Z"/></g>
<g><path style="opacity:0.004" fill="#000100" d="M 129.5,60.5 C 128.833,59.1667 128.833,59.1667 129.5,60.5 Z"/></g>
<g><path style="opacity:0.998" fill="#3b3b3b" d="M 509.5,58.5 C 511.134,62.8676 514.634,65.8676 520,67.5C 520.945,67.0946 521.612,66.428 522,65.5C 522.72,67.1124 522.554,68.6124 521.5,70C 525.032,71.9423 528.032,74.4423 530.5,77.5C 530.5,78.1667 530.833,78.5 531.5,78.5C 531.833,78.5 532.167,78.5 532.5,78.5C 532.328,79.4916 532.662,80.1583 533.5,80.5C 535.172,81.8696 536.839,83.2029 538.5,84.5C 540.144,85.3164 541.31,86.6498 542,88.5C 542.308,87.6919 542.808,87.0253 543.5,86.5C 542.984,88.7329 543.984,90.3996 546.5,91.5C 546.5,92.1667 546.833,92.5 547.5,92.5C 548.167,93.8333 549.167,94.8333 550.5,95.5C 550.5,96.1667 550.833,96.5 551.5,96.5C 551.5,96.8333 551.5,97.1667 551.5,97.5C 552.604,99.3885 553.937,101.055 555.5,102.5C 555.833,103.5 556.5,104.167 557.5,104.5C 557.5,105.167 557.833,105.5 558.5,105.5C 558.833,106.5 559.5,107.167 560.5,107.5C 560.833,108.833 561.167,108.833 561.5,107.5C 563.025,111.635 565.691,114.968 569.5,117.5C 570.124,119.754 571.457,121.421 573.5,122.5C 573.328,123.492 573.662,124.158 574.5,124.5C 575.786,126.955 577.62,128.955 580,130.5C 580.41,131.901 580.91,133.234 581.5,134.5C 582.811,137.135 584.478,139.469 586.5,141.5C 586.932,142.71 587.599,143.71 588.5,144.5C 588.5,144.833 588.5,145.167 588.5,145.5C 588.5,146.167 588.833,146.5 589.5,146.5C 589.833,147.167 590.167,147.833 590.5,148.5C 591.167,149.5 591.833,150.5 592.5,151.5C 592.5,152.167 592.833,152.5 593.5,152.5C 593.328,153.492 593.662,154.158 594.5,154.5C 594.5,155.167 594.833,155.5 595.5,155.5C 595.5,155.833 595.5,156.167 595.5,156.5C 595.5,157.167 595.833,157.5 596.5,157.5C 596.5,157.833 596.5,158.167 596.5,158.5C 596.5,159.167 596.833,159.5 597.5,159.5C 597.5,160.167 597.833,160.5 598.5,160.5C 598.5,160.833 598.5,161.167 598.5,161.5C 598.5,162.167 598.833,162.5 599.5,162.5C 600.41,165.992 602.076,168.992 604.5,171.5C 605.304,173.009 606.471,174.343 608,175.5C 609.295,177.565 609.795,179.565 609.5,181.5C 610.472,184.763 612.138,187.43 614.5,189.5C 613.833,189.5 613.5,189.833 613.5,190.5C 613.263,191.791 613.596,192.791 614.5,193.5C 614.5,193.833 614.5,194.167 614.5,194.5C 615.514,196.574 616.514,198.574 617.5,200.5C 617.328,201.492 617.662,202.158 618.5,202.5C 618.629,204.216 618.962,205.883 619.5,207.5C 619.5,208.167 619.833,208.5 620.5,208.5C 620.328,209.492 620.662,210.158 621.5,210.5C 621.855,214.099 623.189,217.265 625.5,220C 625.112,221.808 625.112,223.475 625.5,225C 627.982,228.045 629.648,231.545 630.5,235.5C 630.392,236.442 630.059,237.275 629.5,238C 630.846,243.902 632.513,249.735 634.5,255.5C 634.291,256.086 633.957,256.586 633.5,257C 636.127,267.328 638.127,277.495 639.5,287.5C 639.5,307.167 639.5,326.833 639.5,346.5C 639.07,356.758 637.403,366.925 634.5,377C 635.991,379.022 635.658,380.688 633.5,382C 634.022,382.561 634.355,383.228 634.5,384C 631.979,388.813 630.979,393.813 631.5,399C 630.685,400.943 629.685,402.943 628.5,405C 629.727,406.587 629.394,407.921 627.5,409C 628.801,410.616 628.801,412.116 627.5,413.5C 627.167,409.5 626.833,409.5 626.5,413.5C 625.566,414.568 625.232,415.901 625.5,417.5C 624.833,417.5 624.5,417.833 624.5,418.5C 623.766,419.708 623.433,421.041 623.5,422.5C 622.833,422.5 622.5,422.833 622.5,423.5C 622.5,423.833 622.5,424.167 622.5,424.5C 622.5,424.833 622.5,425.167 622.5,425.5C 621.167,425.833 621.167,426.167 622.5,426.5C 622.489,428.017 621.823,429.184 620.5,430C 621.337,431.011 621.67,432.178 621.5,433.5C 620.596,434.209 620.263,435.209 620.5,436.5C 617.592,437.159 617.258,437.993 619.5,439C 618.214,441.022 617.214,443.189 616.5,445.5C 615.675,446.386 614.675,446.719 613.5,446.5C 612.781,449.073 611.781,451.573 610.5,454C 610.957,454.414 611.291,454.914 611.5,455.5C 610.22,459.083 608.22,462.083 605.5,464.5C 605.5,464.833 605.5,465.167 605.5,465.5C 604.599,466.29 603.932,467.29 603.5,468.5C 602.833,468.5 602.5,468.833 602.5,469.5C 602.5,469.833 602.5,470.167 602.5,470.5C 601.833,470.5 601.5,470.833 601.5,471.5C 601.5,471.833 601.5,472.167 601.5,472.5C 600.833,472.5 600.5,472.833 600.5,473.5C 600.5,473.833 600.5,474.167 600.5,474.5C 599.662,474.842 599.328,475.508 599.5,476.5C 598.833,476.5 598.5,476.833 598.5,477.5C 597.833,478.5 597.167,479.5 596.5,480.5C 596.5,480.833 596.5,481.167 596.5,481.5C 595.662,481.842 595.328,482.508 595.5,483.5C 594.833,483.5 594.5,483.833 594.5,484.5C 593.833,484.5 593.5,484.833 593.5,485.5C 593.5,485.833 593.5,486.167 593.5,486.5C 592.662,486.842 592.328,487.508 592.5,488.5C 591.833,488.5 591.5,488.833 591.5,489.5C 590.833,489.5 590.5,489.833 590.5,490.5C 590.5,490.833 590.5,491.167 590.5,491.5C 589.104,493.762 587.437,495.929 585.5,498C 586.38,499.356 586.714,500.856 586.5,502.5C 584.692,502.491 583.025,502.991 581.5,504C 581.833,504.333 582.167,504.667 582.5,505C 580.365,505.876 579.031,507.376 578.5,509.5C 576.699,511.138 575.033,512.971 573.5,515C 574.061,516.676 575.061,518.009 576.5,519C 574.863,520.951 573.363,520.784 572,518.5C 571.683,520.301 571.016,520.634 570,519.5C 568.824,521.196 567.657,522.862 566.5,524.5C 565.599,525.29 564.932,526.29 564.5,527.5C 562.302,527.409 561.969,528.075 563.5,529.5C 562.508,529.328 561.842,529.662 561.5,530.5C 560.5,530.833 559.833,531.5 559.5,532.5C 558.167,533.167 557.167,534.167 556.5,535.5C 556.5,535.833 556.5,536.167 556.5,536.5C 556.167,536.5 555.833,536.5 555.5,536.5C 554.5,536.833 553.833,537.5 553.5,538.5C 553.5,539.167 553.5,539.833 553.5,540.5C 552.833,540.5 552.5,540.833 552.5,541.5C 551.508,541.328 550.842,541.662 550.5,542.5C 547.5,544.833 544.833,547.5 542.5,550.5C 541.833,550.5 541.5,550.833 541.5,551.5C 540.833,551.5 540.5,551.833 540.5,552.5C 539.833,552.5 539.5,552.833 539.5,553.5C 539.167,553.5 538.833,553.5 538.5,553.5C 537.5,553.833 536.833,554.5 536.5,555.5C 536.167,556.167 535.833,556.833 535.5,557.5C 534.508,557.328 533.842,557.662 533.5,558.5C 531.833,559.833 530.167,561.167 528.5,562.5C 527.167,562.833 527.167,563.167 528.5,563.5C 528.5,563.833 528.5,564.167 528.5,564.5C 527.209,564.263 526.209,564.596 525.5,565.5C 524.833,565.5 524.5,565.833 524.5,566.5C 523.167,566.833 523.167,567.167 524.5,567.5C 524.158,568.338 523.492,568.672 522.5,568.5C 522.167,567.167 521.833,567.167 521.5,568.5C 520.833,568.5 520.5,568.833 520.5,569.5C 520.5,569.833 520.5,570.167 520.5,570.5C 520.167,570.5 519.833,570.5 519.5,570.5C 518.29,570.932 517.29,571.599 516.5,572.5C 516.141,574.485 515.308,575.151 514,574.5C 511.878,575.22 511.378,576.387 512.5,578C 511.906,578.464 511.239,578.631 510.5,578.5C 510.167,577.167 509.833,577.167 509.5,578.5C 507.887,579.692 506.22,580.692 504.5,581.5C 503.29,581.932 502.29,582.599 501.5,583.5C 498.482,584.81 495.815,587.144 493.5,590.5C 492.778,590.918 492.278,591.584 492,592.5C 491.536,591.906 491.369,591.239 491.5,590.5C 499.849,575.465 506.849,559.799 512.5,543.5C 520.501,510.992 523.334,477.992 521,444.5C 517.219,403.456 501.553,367.789 474,337.5C 451.755,315.468 426.922,296.968 399.5,282C 369.47,267.095 339.803,251.429 310.5,235C 301.479,229.156 292.812,222.822 284.5,216C 256.494,191.978 247.327,162.144 257,126.5C 265.211,104.45 280.711,90.7832 303.5,85.5C 312.093,83.9937 320.759,83.3271 329.5,83.5C 342.393,84.8157 355.059,87.3157 367.5,91C 403.286,105.31 435.286,125.477 463.5,151.5C 478.6,121.206 492.933,90.539 506.5,59.5C 507.391,58.8902 508.391,58.5569 509.5,58.5 Z"/></g>
<g><path style="opacity:0.004" fill="#000902" d="M 124.5,64.5 C 123.761,64.631 123.094,64.4643 122.5,64C 123.437,63.3083 124.103,63.475 124.5,64.5 Z"/></g>
<g><path style="opacity:0.004" fill="#000900" d="M 115.5,71.5 C 115.167,72.5 114.5,73.1667 113.5,73.5C 113.131,71.0065 113.797,70.3398 115.5,71.5 Z"/></g>
<g><path style="opacity:0.006" fill="#010101" d="M 110.5,73.5 C 110.897,72.475 111.563,72.3083 112.5,73C 111.906,73.4643 111.239,73.631 110.5,73.5 Z"/></g>
<g><path style="opacity:0.006" fill="#000000" d="M 533.5,80.5 C 533.672,79.5084 533.338,78.8417 532.5,78.5C 532.167,77.1667 531.833,77.1667 531.5,78.5C 530.833,78.5 530.5,78.1667 530.5,77.5C 530.312,75.8967 530.812,74.5634 532,73.5C 532.541,76.209 534.041,78.209 536.5,79.5C 535.675,80.3857 534.675,80.719 533.5,80.5 Z"/></g>
<g><path style="opacity:0.004" fill="#010f00" d="M 108.5,77.5 C 108.5,78.1667 108.167,78.5 107.5,78.5C 106.321,76.591 106.654,76.2576 108.5,77.5 Z"/></g>
<g><path style="opacity:0.007" fill="#000000" d="M 105.5,80.5 C 105.5,81.1667 105.167,81.5 104.5,81.5C 103.258,79.654 103.591,79.3207 105.5,80.5 Z"/></g>
<g><path style="opacity:1" fill="#34d5a3" d="M 143.5,73.5 C 141.13,82.3712 138.13,91.0379 134.5,99.5C 132.501,108.151 130.834,116.818 129.5,125.5C 128.168,136.146 127.501,147.146 127.5,158.5C 127.501,169.854 128.168,180.854 129.5,191.5C 129.5,194.167 129.5,196.833 129.5,199.5C 130.162,211.81 132.495,223.81 136.5,235.5C 137.057,237.332 138.057,238.665 139.5,239.5C 142.247,245.509 144.914,251.675 147.5,258C 153.403,267.059 159.07,276.226 164.5,285.5C 178.908,303.242 195.241,318.909 213.5,332.5C 222.833,338.5 232.167,344.5 241.5,350.5C 268.196,363.885 294.863,377.218 321.5,390.5C 336.132,398.149 350.132,406.816 363.5,416.5C 378.07,428.661 388.404,443.661 394.5,461.5C 395.666,472.819 395.832,484.152 395,495.5C 387.075,538.595 361.242,560.595 317.5,561.5C 312.563,561.7 307.896,561.033 303.5,559.5C 297.641,557.993 291.641,556.16 285.5,554C 282.183,553.502 278.85,553.335 275.5,553.5C 271.526,552.521 267.526,551.521 263.5,550.5C 229.578,535.875 198.912,516.208 171.5,491.5C 170.833,491.833 170.167,492.167 169.5,492.5C 155.621,520.595 141.954,548.928 128.5,577.5C 124.484,573.662 119.817,570.829 114.5,569C 115.5,568.667 116.5,568.333 117.5,568C 115.913,567.138 114.246,566.471 112.5,566C 112.833,565.667 113.167,565.333 113.5,565C 108.319,561.639 103.652,557.805 99.5,553.5C 99.5,552.833 99.1667,552.5 98.5,552.5C 98.5,551.833 98.1667,551.5 97.5,551.5C 97.5,550.833 97.1667,550.5 96.5,550.5C 96.5,549.833 96.1667,549.5 95.5,549.5C 93.1667,546.5 90.5,543.833 87.5,541.5C 86.396,539.611 85.0627,537.945 83.5,536.5C 82.3634,535.211 81.0301,534.211 79.5,533.5C 79.5,533.167 79.5,532.833 79.5,532.5C 79.1667,531.5 78.5,530.833 77.5,530.5C 77.5,529.833 77.1667,529.5 76.5,529.5C 76.5,528.833 76.1667,528.5 75.5,528.5C 75.5,528.167 75.5,527.833 75.5,527.5C 75.5,526.833 75.1667,526.5 74.5,526.5C 74.5,525.833 74.1667,525.5 73.5,525.5C 73.5,524.833 73.1667,524.5 72.5,524.5C 72.1667,523.833 71.8333,523.167 71.5,522.5C 71.1667,521.5 70.5,520.833 69.5,520.5C 69.1667,519.5 68.5,518.833 67.5,518.5C 66.3192,516.933 64.6526,516.099 62.5,516C 63.5,515.667 64.5,515.333 65.5,515C 62.3041,511.536 59.3041,507.369 56.5,502.5C 56.1667,501.5 55.5,500.833 54.5,500.5C 54.5,499.833 54.1667,499.5 53.5,499.5C 53.5,499.167 53.5,498.833 53.5,498.5C 53.5,497.833 53.1667,497.5 52.5,497.5C 50.9551,496.47 49.7884,494.47 49,491.5C 47.3335,492.34 47.1669,491.84 48.5,490C 47.5838,489.626 46.7504,489.126 46,488.5C 45.79,486.942 45.29,485.609 44.5,484.5C 44.5,483.833 44.1667,483.5 43.5,483.5C 42.657,482.017 41.657,480.35 40.5,478.5C 40.0075,476.181 39.0075,474.181 37.5,472.5C 37.5,472.167 37.5,471.833 37.5,471.5C 34.9123,467.326 32.579,462.993 30.5,458.5C 30.5,457.833 30.1667,457.5 29.5,457.5C 29.5,457.167 29.5,456.833 29.5,456.5C 29.6716,455.508 29.3382,454.842 28.5,454.5C 28.5,453.833 28.1667,453.5 27.5,453.5C 27.6716,452.508 27.3382,451.842 26.5,451.5C 26.5,451.167 26.5,450.833 26.5,450.5C 26.6716,449.508 26.3382,448.842 25.5,448.5C 25.5674,447.041 25.2341,445.708 24.5,444.5C 24.1667,443.833 23.8333,443.167 23.5,442.5C 23.1667,441.167 22.8333,441.167 22.5,442.5C 23.1081,440.316 22.4414,438.316 20.5,436.5C 20.405,434.214 19.7384,432.214 18.5,430.5C 16.752,429.211 16.4186,427.711 17.5,426C 15.8446,424.556 15.178,422.722 15.5,420.5C 15.1667,419.833 14.8333,419.167 14.5,418.5C 13.3678,415.449 12.3678,412.449 11.5,409.5C 11.6621,407.473 11.4955,405.473 11,403.5C 10.6174,402.944 10.1174,402.611 9.5,402.5C 5.15806,384.136 1.82473,365.47 -0.5,346.5C -0.5,333.5 -0.5,320.5 -0.5,307.5C 3.5,307.5 7.5,307.5 11.5,307.5C 11.5,306.167 11.5,304.833 11.5,303.5C 10.1667,303.5 8.83333,303.5 7.5,303.5C 7.5,302.167 7.5,300.833 7.5,299.5C 8.83333,299.5 10.1667,299.5 11.5,299.5C 11.1673,284.485 11.5007,269.485 12.5,254.5C 13.1667,252.5 13.8333,250.5 14.5,248.5C 15.4556,249.865 16.1223,251.365 16.5,253C 15.5211,269.798 15.1878,286.632 15.5,303.5C 16.8333,303.5 18.1667,303.5 19.5,303.5C 19.5,278.167 19.5,252.833 19.5,227.5C 22.1667,227.5 24.8333,227.5 27.5,227.5C 27.5,226.167 27.5,224.833 27.5,223.5C 30.1667,223.5 32.8333,223.5 35.5,223.5C 35.5,212.833 35.5,202.167 35.5,191.5C 39.5,191.5 43.5,191.5 47.5,191.5C 47.5,186.167 47.5,180.833 47.5,175.5C 48.8333,175.5 50.1667,175.5 51.5,175.5C 51.5,171.5 51.5,167.5 51.5,163.5C 54.1667,163.5 56.8333,163.5 59.5,163.5C 59.5,162.167 59.5,160.833 59.5,159.5C 62.1667,159.5 64.8333,159.5 67.5,159.5C 67.5,150.167 67.5,140.833 67.5,131.5C 70.1667,131.5 72.8333,131.5 75.5,131.5C 75.5,130.167 75.5,128.833 75.5,127.5C 78.1667,127.5 80.8333,127.5 83.5,127.5C 83.5,123.5 83.5,119.5 83.5,115.5C 86.1667,115.5 88.8333,115.5 91.5,115.5C 91.5,114.167 91.5,112.833 91.5,111.5C 94.1667,111.5 96.8333,111.5 99.5,111.5C 99.5,107.5 99.5,103.5 99.5,99.5C 102.167,99.5 104.833,99.5 107.5,99.5C 107.5,98.1667 107.5,96.8333 107.5,95.5C 110.167,95.5 112.833,95.5 115.5,95.5C 115.5,91.5 115.5,87.5 115.5,83.5C 119.5,83.5 123.5,83.5 127.5,83.5C 127.5,82.1667 127.5,80.8333 127.5,79.5C 130.167,79.5 132.833,79.5 135.5,79.5C 134.782,74.2422 135.782,74.2422 138.5,79.5C 139.72,79.1131 140.387,78.2798 140.5,77C 138.398,74.1936 137.398,71.027 137.5,67.5C 138.833,67.5 140.167,67.5 141.5,67.5C 141.025,70.0821 141.692,72.0821 143.5,73.5 Z"/></g>
<g><path style="opacity:1" fill="#adadad" d="M 329.5,83.5 C 320.759,83.3271 312.093,83.9937 303.5,85.5C 306.534,83.9823 309.867,83.1489 313.5,83C 319.016,82.1826 324.35,82.3493 329.5,83.5 Z"/></g>
<g><path style="opacity:0.006" fill="#000000" d="M 538.5,84.5 C 538.639,82.663 539.306,82.3296 540.5,83.5C 540.043,84.2975 539.376,84.6309 538.5,84.5 Z"/></g>
<g><path style="opacity:0.008" fill="#000000" d="M 546.5,91.5 C 546.56,90.9569 546.893,90.6236 547.5,90.5C 548.773,91.2565 548.773,91.9232 547.5,92.5C 546.833,92.5 546.5,92.1667 546.5,91.5 Z"/></g>
<g><path style="opacity:0.006" fill="#000a00" d="M 94.5,90.5 C 94.1667,91.5 93.5,92.1667 92.5,92.5C 91.9569,92.44 91.6236,92.1067 91.5,91.5C 92.325,90.6143 93.325,90.281 94.5,90.5 Z"/></g>
<g><path style="opacity:0.008" fill="#000000" d="M 550.5,95.5 C 551.623,94.2426 552.289,94.5759 552.5,96.5C 552.167,96.5 551.833,96.5 551.5,96.5C 550.833,96.5 550.5,96.1667 550.5,95.5 Z"/></g>
<g><path style="opacity:0.006" fill="#0b0d0c" d="M 87.5,97.5 C 87.2178,98.7777 86.5511,99.7777 85.5,100.5C 84.1667,100.5 83.5,101.167 83.5,102.5C 83.5,103.167 83.1667,103.5 82.5,103.5C 81.1667,103.5 80.5,104.167 80.5,105.5C 79.7109,105.217 79.0442,104.717 78.5,104C 81.7118,101.981 83.3784,99.1473 83.5,95.5C 86.999,95.259 87.3323,96.0924 84.5,98C 85.5768,98.4696 86.5768,98.3029 87.5,97.5 Z"/></g>
<g><path style="opacity:0.006" fill="#000900" d="M 90.5,94.5 C 90.1667,95.5 89.5,96.1667 88.5,96.5C 87.9569,96.44 87.6236,96.1067 87.5,95.5C 88.325,94.6143 89.325,94.281 90.5,94.5 Z"/></g>
<g><path style="opacity:0.007" fill="#000000" d="M 552.5,96.5 C 555.964,99.4625 559.297,102.629 562.5,106C 561.944,106.383 561.611,106.883 561.5,107.5C 561.167,107.5 560.833,107.5 560.5,107.5C 559.5,107.167 558.833,106.5 558.5,105.5C 557.833,105.5 557.5,105.167 557.5,104.5C 556.5,104.167 555.833,103.5 555.5,102.5C 553.937,101.055 552.604,99.3885 551.5,97.5C 552.167,97.5 552.5,97.1667 552.5,96.5 Z"/></g>
<g><path style="opacity:0.004" fill="#021000" d="M 78.5,107.5 C 78.5,108.167 78.1667,108.5 77.5,108.5C 76.2576,106.654 76.591,106.321 78.5,107.5 Z"/></g>
<g><path style="opacity:0.006" fill="#020000" d="M 70.5,113.5 C 70.8966,112.475 71.5632,112.308 72.5,113C 71.9056,113.464 71.2389,113.631 70.5,113.5 Z"/></g>
<g><path style="opacity:0.006" fill="#000000" d="M 69.5,117.5 C 68.8333,117.5 68.5,117.833 68.5,118.5C 67.6236,118.631 66.9569,118.298 66.5,117.5C 67.6136,116.224 68.6136,116.224 69.5,117.5 Z"/></g>
<g><path style="opacity:0.02" fill="#000100" d="M 569.5,116.5 C 570.833,117.167 570.833,117.167 569.5,116.5 Z"/></g>
<g><path style="opacity:0.009" fill="#010300" d="M 67.5,120.5 C 66.1667,120.833 66.1667,121.167 67.5,121.5C 67.5,122.167 67.1667,122.5 66.5,122.5C 65.8333,122.167 65.1667,121.833 64.5,121.5C 65.221,119.618 66.221,119.285 67.5,120.5 Z"/></g>
<g><path style="opacity:0.004" fill="#020000" d="M 64.5,121.5 C 63.8333,122.167 63.8333,122.167 64.5,121.5 Z"/></g>
<g><path style="opacity:0.014" fill="#020202" d="M 573.5,122.5 C 573.897,121.475 574.563,121.308 575.5,122C 574.906,122.464 574.239,122.631 573.5,122.5 Z"/></g>
<g><path style="opacity:0.02" fill="#000100" d="M 574.5,123.5 C 575.833,124.167 575.833,124.167 574.5,123.5 Z"/></g>
<g><path style="opacity:0.006" fill="#010501" d="M 58.5,132.5 C 58.5,132.833 58.5,133.167 58.5,133.5C 57.8333,133.5 57.5,133.833 57.5,134.5C 57.1667,135.167 56.8333,135.833 56.5,136.5C 55.2264,135.811 55.2264,134.977 56.5,134C 54.0712,133.549 53.9045,132.715 56,131.5C 56.6708,132.252 57.5041,132.586 58.5,132.5 Z"/></g>
<g><path style="opacity:0.007" fill="#010101" d="M 586.5,141.5 C 584.478,139.469 582.811,137.135 581.5,134.5C 582.222,134.082 582.722,133.416 583,132.5C 583.992,135.664 585.825,138.164 588.5,140C 587.584,140.278 586.918,140.778 586.5,141.5 Z"/></g>
<g><path style="opacity:0.004" fill="#010000" d="M 49.5,135.5 C 54.2419,134.812 55.0753,135.812 52,138.5C 50.583,137.922 49.7496,136.922 49.5,135.5 Z"/></g>
<g><path style="opacity:0.008" fill="#010000" d="M 53.5,139.5 C 53.5,139.833 53.5,140.167 53.5,140.5C 52.8333,140.5 52.5,140.833 52.5,141.5C 49.8136,140.012 50.1469,139.345 53.5,139.5 Z"/></g>
<g><path style="opacity:0.004" fill="#020901" d="M 51.5,143.5 C 51.5,144.167 51.1667,144.5 50.5,144.5C 49.1667,144.833 49.1667,145.167 50.5,145.5C 49.4884,146.872 48.4884,148.205 47.5,149.5C 46.6765,147.545 46.5099,145.545 47,143.5C 48.4902,142.272 49.9902,142.272 51.5,143.5 Z"/></g>
<g><path style="opacity:0.005" fill="#000000" d="M 604.5,171.5 C 602.076,168.992 600.41,165.992 599.5,162.5C 598.833,162.5 598.5,162.167 598.5,161.5C 598.5,161.167 598.5,160.833 598.5,160.5C 597.833,160.5 597.5,160.167 597.5,159.5C 596.833,159.5 596.5,159.167 596.5,158.5C 597.833,158.167 597.833,157.833 596.5,157.5C 595.833,157.5 595.5,157.167 595.5,156.5C 595.5,156.167 595.5,155.833 595.5,155.5C 595.938,155.565 596.272,155.399 596.5,155C 595.809,153.933 595.309,152.766 595,151.5C 594.517,152.448 594.351,153.448 594.5,154.5C 593.662,154.158 593.328,153.492 593.5,152.5C 592.833,152.5 592.5,152.167 592.5,151.5C 591.833,150.5 591.167,149.5 590.5,148.5C 591.757,147.377 591.424,146.711 589.5,146.5C 588.833,146.5 588.5,146.167 588.5,145.5C 588.5,145.167 588.5,144.833 588.5,144.5C 588.369,143.761 588.536,143.094 589,142.5C 592.394,143.456 595.894,143.789 599.5,143.5C 597.966,153.781 599.966,162.781 605.5,170.5C 605.376,171.107 605.043,171.44 604.5,171.5 Z"/></g>
<g><path style="opacity:0.014" fill="#000c00" d="M 45.5,153.5 C 45.1667,154.5 44.5,155.167 43.5,155.5C 43.5,154.167 44.1667,153.5 45.5,153.5 Z"/></g>
<g><path style="opacity:0.009" fill="#010401" d="M 40.5,160.5 C 39.1667,160.833 39.1667,161.167 40.5,161.5C 40.5,162.167 40.1667,162.5 39.5,162.5C 38.1667,162.833 38.1667,163.167 39.5,163.5C 39.1667,164.167 38.8333,164.833 38.5,165.5C 37.8333,165.5 37.5,165.833 37.5,166.5C 36.6618,166.842 36.3284,167.508 36.5,168.5C 35.8333,168.5 35.5,168.833 35.5,169.5C 34.1667,169.833 34.1667,170.167 35.5,170.5C 35.5,171.167 35.1667,171.5 34.5,171.5C 33.6618,171.842 33.3284,172.508 33.5,173.5C 32.1667,173.833 32.1667,174.167 33.5,174.5C 33.1667,175.167 32.8333,175.833 32.5,176.5C 31.6364,175.312 30.6364,174.145 29.5,173C 32.9257,169.341 35.759,165.174 38,160.5C 39.3919,158.158 40.2252,158.158 40.5,160.5 Z"/></g>
<g><path style="opacity:1" fill="#d0f5ed" d="M 129.5,125.5 C 129.5,147.5 129.5,169.5 129.5,191.5C 128.168,180.854 127.501,169.854 127.5,158.5C 127.501,147.146 128.168,136.146 129.5,125.5 Z"/></g>
<g><path style="opacity:0.004" fill="#001102" d="M 30.5,179.5 C 30.5,179.833 30.5,180.167 30.5,180.5C 27.9991,180.489 27.8324,179.822 30,178.5C 30.3988,178.728 30.5654,179.062 30.5,179.5 Z"/></g>
<g><path style="opacity:0.004" fill="#000000" d="M 609.5,180.5 C 610.833,181.167 610.833,181.167 609.5,180.5 Z"/></g>
<g><path style="opacity:0.011" fill="#000201" d="M 29.5,181.5 C 29.7373,182.791 29.404,183.791 28.5,184.5C 28.4226,183.25 27.756,182.417 26.5,182C 27.448,181.517 28.448,181.351 29.5,181.5 Z"/></g>
<g><path style="opacity:0.007" fill="#000000" d="M 614.5,189.5 C 617.221,194.773 620.054,200.106 623,205.5C 623.667,207.5 623.667,209.5 623,211.5C 622.617,210.944 622.117,210.611 621.5,210.5C 621.672,209.508 621.338,208.842 620.5,208.5C 619.833,208.5 619.5,208.167 619.5,207.5C 618.962,205.883 618.629,204.216 618.5,202.5C 619.439,201.673 619.105,201.006 617.5,200.5C 616.514,198.574 615.514,196.574 614.5,194.5C 615.644,193.151 615.644,192.817 614.5,193.5C 613.596,192.791 613.263,191.791 613.5,190.5C 614.167,190.5 614.5,190.167 614.5,189.5 Z"/></g>
<g><path style="opacity:0.006" fill="#030000" d="M 21.5,200.5 C 20.475,200.103 20.3083,199.437 21,198.5C 21.4643,199.094 21.631,199.761 21.5,200.5 Z"/></g>
<g><path style="opacity:0.012" fill="#010d02" d="M 20.5,202.5 C 20.3713,204.216 20.038,205.883 19.5,207.5C 18.8333,207.5 18.5,207.833 18.5,208.5C 17.8919,206.316 18.5586,204.316 20.5,202.5 Z"/></g>
<g><path style="opacity:0.004" fill="#040f00" d="M 18.5,209.5 C 18.1667,210.167 17.8333,210.833 17.5,211.5C 16.2426,210.377 16.5759,209.711 18.5,209.5 Z"/></g>
<g><path style="opacity:0.004" fill="#010000" d="M 11.5,218.5 C 14.1368,220.154 13.8034,220.654 10.5,220C 11.056,219.617 11.3893,219.117 11.5,218.5 Z"/></g>
<g><path style="opacity:1" fill="#66d3ad" d="M 129.5,199.5 C 132.221,212.956 135.554,226.289 139.5,239.5C 138.057,238.665 137.057,237.332 136.5,235.5C 132.495,223.81 130.162,211.81 129.5,199.5 Z"/></g>
<g><path style="opacity:0.38" fill="#3f715d" d="M 3.5,266.5 C 4.0545,270.012 3.38784,273.012 1.5,275.5C 1.85834,272.311 2.52501,269.311 3.5,266.5 Z"/></g>
<g><path style="opacity:0.408" fill="#3b6355" d="M 9.5,402.5 C 10.1174,402.611 10.6174,402.944 11,403.5C 11.4955,405.473 11.6621,407.473 11.5,409.5C 10.5933,407.343 9.92668,405.01 9.5,402.5 Z"/></g>
<g><path style="opacity:0.004" fill="#000000" d="M 626.5,413.5 C 626.833,413.5 627.167,413.5 627.5,413.5C 627.768,415.099 627.434,416.432 626.5,417.5C 626.5,416.167 626.5,414.833 626.5,413.5 Z"/></g>
<g><path style="opacity:0.005" fill="#000000" d="M 625.5,417.5 C 625.833,417.5 626.167,417.5 626.5,417.5C 625.254,419.417 624.587,421.25 624.5,423C 629.489,423.499 634.489,423.666 639.5,423.5C 639.5,426.167 639.5,428.833 639.5,431.5C 634.167,431.5 628.833,431.5 623.5,431.5C 623.784,429.585 623.451,427.919 622.5,426.5C 622.5,426.167 622.5,425.833 622.5,425.5C 623.833,425.167 623.833,424.833 622.5,424.5C 622.5,424.167 622.5,423.833 622.5,423.5C 623.167,423.5 623.5,423.167 623.5,422.5C 623.433,421.041 623.766,419.708 624.5,418.5C 625.167,418.5 625.5,418.167 625.5,417.5 Z"/></g>
<g><path style="opacity:0.008" fill="#020a06" d="M 14.5,418.5 C 14.8333,419.167 15.1667,419.833 15.5,420.5C 13.5759,420.289 13.2426,419.623 14.5,418.5 Z"/></g>
<g><path style="opacity:0.012" fill="#000602" d="M 18.5,430.5 C 19.7384,432.214 20.405,434.214 20.5,436.5C 20.2792,439.097 19.7792,439.097 19,436.5C 18.5,435 18,433.5 17.5,432C 17.5699,431.235 17.9033,430.735 18.5,430.5 Z"/></g>
<g><path style="opacity:0.004" fill="#000000" d="M 623.5,431.5 C 623.5,436.833 623.5,442.167 623.5,447.5C 621.833,447.5 620.167,447.5 618.5,447.5C 619.167,443.833 619.833,440.167 620.5,436.5C 621.404,435.791 621.737,434.791 621.5,433.5C 622.167,432.833 622.833,432.167 623.5,431.5 Z"/></g>
<g><path style="opacity:0.01" fill="#000803" d="M 22.5,442.5 C 22.8333,442.5 23.1667,442.5 23.5,442.5C 23.8333,443.167 24.1667,443.833 24.5,444.5C 22.7973,445.66 22.1307,444.993 22.5,442.5 Z"/></g>
<g><path style="opacity:0.004" fill="#010003" d="M 24.5,448.5 C 23.7109,448.217 23.0442,447.717 22.5,447C 23.816,446.472 24.4827,446.972 24.5,448.5 Z"/></g>
<g><path style="opacity:0.004" fill="#000603" d="M 24.5,448.5 C 24.8333,448.5 25.1667,448.5 25.5,448.5C 26.3382,448.842 26.6716,449.508 26.5,450.5C 25.1667,450.833 25.1667,451.167 26.5,451.5C 26.3284,452.492 26.6618,453.158 27.5,453.5C 28.1667,453.5 28.5,453.833 28.5,454.5C 28.3284,455.492 28.6618,456.158 29.5,456.5C 29.5,456.833 29.5,457.167 29.5,457.5C 30.1667,457.5 30.5,457.833 30.5,458.5C 32.579,462.993 34.9123,467.326 37.5,471.5C 36.1667,471.833 36.1667,472.167 37.5,472.5C 39.0075,474.181 40.0075,476.181 40.5,478.5C 38.9256,478.063 37.7589,477.063 37,475.5C 35.0712,470.628 32.4045,466.295 29,462.5C 26.2641,458.221 24.7641,453.554 24.5,448.5 Z"/></g>
<g><path style="opacity:0.005" fill="#010101" d="M 605.5,465.5 C 605.5,465.167 605.5,464.833 605.5,464.5C 607.475,474.446 608.142,484.779 607.5,495.5C 602.167,495.5 596.833,495.5 591.5,495.5C 591.567,494.041 591.234,492.708 590.5,491.5C 590.5,491.167 590.5,490.833 590.5,490.5C 591.167,490.5 591.5,490.167 591.5,489.5C 592.167,489.5 592.5,489.167 592.5,488.5C 592.328,487.508 592.662,486.842 593.5,486.5C 593.511,489.001 594.178,489.168 595.5,487C 594.956,486.283 594.289,485.783 593.5,485.5C 593.5,484.833 593.833,484.5 594.5,484.5C 595.167,484.5 595.5,484.167 595.5,483.5C 596.338,483.158 596.672,482.492 596.5,481.5C 597.833,481.167 597.833,480.833 596.5,480.5C 597.167,479.5 597.833,478.5 598.5,477.5C 599.167,477.5 599.5,477.167 599.5,476.5C 600.338,476.158 600.672,475.492 600.5,474.5C 601.833,474.167 601.833,473.833 600.5,473.5C 600.5,472.833 600.833,472.5 601.5,472.5C 602.833,472.167 602.833,471.833 601.5,471.5C 601.5,470.833 601.833,470.5 602.5,470.5C 605.167,470.167 605.167,469.833 602.5,469.5C 602.5,468.833 602.833,468.5 603.5,468.5C 604.376,468.631 605.043,468.298 605.5,467.5C 606.55,466.571 606.55,465.905 605.5,465.5 Z"/></g>
<g><path style="opacity:0.01" fill="#000b03" d="M 43.5,483.5 C 44.1667,483.5 44.5,483.833 44.5,484.5C 44.4891,487.001 43.8224,487.168 42.5,485C 43.056,484.617 43.3893,484.117 43.5,483.5 Z"/></g>
<g><path style="opacity:0.004" fill="#010101" d="M 591.5,495.5 C 591.5,498.167 591.5,500.833 591.5,503.5C 589.585,503.784 587.919,503.451 586.5,502.5C 587.921,499.991 589.588,497.657 591.5,495.5 Z"/></g>
<g><path style="opacity:0.004" fill="#010303" d="M 52.5,497.5 C 53.1667,497.5 53.5,497.833 53.5,498.5C 53.5,498.833 53.5,499.167 53.5,499.5C 54.1667,499.5 54.5,499.833 54.5,500.5C 55.5,500.833 56.1667,501.5 56.5,502.5C 55.7784,502.918 55.2784,503.584 55,504.5C 53.6924,502.359 52.1924,500.359 50.5,498.5C 50.9569,497.702 51.6236,497.369 52.5,497.5 Z"/></g>
<g><path style="opacity:0.004" fill="#010003" d="M 56.5,507.5 C 55.7611,507.631 55.0944,507.464 54.5,507C 55.4368,506.308 56.1034,506.475 56.5,507.5 Z"/></g>
<g><path style="opacity:0.005" fill="#020004" d="M 56.5,507.5 C 58.337,507.639 58.6704,508.306 57.5,509.5C 56.7025,509.043 56.3691,508.376 56.5,507.5 Z"/></g>
<g><path style="opacity:0.004" fill="#010101" d="M 578.5,509.5 C 580.973,509.947 581.14,510.947 579,512.5C 578.517,511.552 578.351,510.552 578.5,509.5 Z"/></g>
<g><path style="opacity:0.011" fill="#030702" d="M 67.5,518.5 C 68.5,518.833 69.1667,519.5 69.5,520.5C 69.1575,522.225 68.1575,522.725 66.5,522C 67.3366,520.989 67.67,519.822 67.5,518.5 Z"/></g>
<g><path style="opacity:0.01" fill="#030302" d="M 71.5,522.5 C 71.8333,523.167 72.1667,523.833 72.5,524.5C 70.5759,524.289 70.2426,523.623 71.5,522.5 Z"/></g>
<g><path style="opacity:0.004" fill="#000000" d="M 566.5,524.5 C 568.109,524.094 569.443,524.094 570.5,524.5C 569.127,527.14 567.794,527.14 566.5,524.5 Z"/></g>
<g><path style="opacity:0.007" fill="#020404" d="M 73.5,525.5 C 74.1667,525.5 74.5,525.833 74.5,526.5C 75.1667,526.5 75.5,526.833 75.5,527.5C 74.1667,527.833 74.1667,528.167 75.5,528.5C 76.1667,528.5 76.5,528.833 76.5,529.5C 76.5,529.833 76.5,530.167 76.5,530.5C 74.078,529.915 72.4113,528.415 71.5,526C 72.0944,525.536 72.7611,525.369 73.5,525.5 Z"/></g>
<g><path style="opacity:0.006" fill="#000000" d="M 564.5,527.5 C 565.606,528.149 566.606,528.483 567.5,528.5C 565.994,530.401 564.327,532.068 562.5,533.5C 561.833,533.5 561.5,533.833 561.5,534.5C 560.677,537.977 560.177,541.644 560,545.5C 557.619,544.565 555.119,544.232 552.5,544.5C 554.167,551.5 551.5,554.167 544.5,552.5C 545.825,559.17 543.158,561.836 536.5,560.5C 536.5,562.833 536.5,565.167 536.5,567.5C 538.833,567.5 541.167,567.5 543.5,567.5C 543.5,570.167 543.5,572.833 543.5,575.5C 538.167,575.5 532.833,575.5 527.5,575.5C 527.5,572.833 527.5,570.167 527.5,567.5C 526.5,567.5 525.5,567.5 524.5,567.5C 524.5,567.167 524.5,566.833 524.5,566.5C 525.167,566.5 525.5,566.167 525.5,565.5C 526.791,565.737 527.791,565.404 528.5,564.5C 529.833,564.167 529.833,563.833 528.5,563.5C 528.5,563.167 528.5,562.833 528.5,562.5C 530.167,561.167 531.833,559.833 533.5,558.5C 534.492,558.672 535.158,558.338 535.5,557.5C 538.46,556.968 538.793,556.301 536.5,555.5C 536.833,554.5 537.5,553.833 538.5,553.5C 538.833,554.833 539.167,554.833 539.5,553.5C 540.167,553.5 540.5,553.167 540.5,552.5C 541.167,552.5 541.5,552.167 541.5,551.5C 542.167,551.5 542.5,551.167 542.5,550.5C 544.833,547.5 547.5,544.833 550.5,542.5C 551.492,542.672 552.158,542.338 552.5,541.5C 553.167,541.5 553.5,541.167 553.5,540.5C 554.833,539.833 554.833,539.167 553.5,538.5C 553.833,537.5 554.5,536.833 555.5,536.5C 555.833,537.833 556.167,537.833 556.5,536.5C 557.833,536.167 557.833,535.833 556.5,535.5C 557.167,534.167 558.167,533.167 559.5,532.5C 559.833,531.5 560.5,530.833 561.5,530.5C 562.492,530.672 563.158,530.338 563.5,529.5C 564.338,529.158 564.672,528.492 564.5,527.5 Z"/></g>
<g><path style="opacity:0.018" fill="#030c02" d="M 76.5,530.5 C 76.8333,530.5 77.1667,530.5 77.5,530.5C 78.5,530.833 79.1667,531.5 79.5,532.5C 78.8333,532.5 78.5,532.833 78.5,533.5C 77.5987,532.71 76.9321,531.71 76.5,530.5 Z"/></g>
<g><path style="opacity:0.004" fill="#010103" d="M 78.5,533.5 C 78.8333,533.5 79.1667,533.5 79.5,533.5C 79.3147,534.17 78.9813,534.17 78.5,533.5 Z"/></g>
<g><path style="opacity:0.004" fill="#000100" d="M 562.5,533.5 C 563.833,534.167 563.833,534.167 562.5,533.5 Z"/></g>
<g><path style="opacity:0.004" fill="#000000" d="M 561.5,534.5 C 561.833,534.5 562.167,534.5 562.5,534.5C 562.167,546.5 561.833,546.5 561.5,534.5 Z"/></g>
<g><path style="opacity:0.007" fill="#010b02" d="M 83.5,536.5 C 85.0627,537.945 86.396,539.611 87.5,541.5C 87.5654,541.938 87.3988,542.272 87,542.5C 84.7355,541.084 83.5688,539.084 83.5,536.5 Z"/></g>
<g><path style="opacity:0.008" fill="#000102" d="M 95.5,549.5 C 96.1667,549.5 96.5,549.833 96.5,550.5C 97.1667,550.5 97.5,550.833 97.5,551.5C 97.5,551.833 97.5,552.167 97.5,552.5C 94.9486,552.332 94.2819,551.332 95.5,549.5 Z"/></g>
<g><path style="opacity:0.006" fill="#000a02" d="M 97.5,552.5 C 97.8333,552.5 98.1667,552.5 98.5,552.5C 99.1667,552.5 99.5,552.833 99.5,553.5C 98.6726,554.439 98.0059,554.105 97.5,552.5 Z"/></g>
<g><path style="opacity:1" fill="#64d2b0" d="M 275.5,553.5 C 278.85,553.335 282.183,553.502 285.5,554C 291.641,556.16 297.641,557.993 303.5,559.5C 299.486,559.666 295.486,559.499 291.5,559C 285.792,557.966 280.459,556.132 275.5,553.5 Z"/></g>
<g><path style="opacity:0.009" fill="#010101" d="M 520.5,569.5 C 520.5,568.833 520.833,568.5 521.5,568.5C 521.833,568.5 522.167,568.5 522.5,568.5C 522.414,569.496 522.748,570.329 523.5,571C 521.588,572.2 520.255,573.867 519.5,576C 517.362,575.919 517.029,574.919 518.5,573C 517.906,572.536 517.239,572.369 516.5,572.5C 517.29,571.599 518.29,570.932 519.5,570.5C 519.833,571.833 520.167,571.833 520.5,570.5C 521.833,570.167 521.833,569.833 520.5,569.5 Z"/></g>
<g><path style="opacity:0.01" fill="#000103" d="M 129.5,577.5 C 130.833,578.167 131.833,579.167 132.5,580.5C 130.999,581.443 129.665,581.109 128.5,579.5C 129.338,579.158 129.672,578.492 129.5,577.5 Z"/></g>
<g><path style="opacity:0.004" fill="#000d07" d="M 128.5,579.5 C 127.833,578.167 127.833,578.167 128.5,579.5 Z"/></g>
<g><path style="opacity:0.008" fill="#000000" d="M 509.5,578.5 C 509.833,578.5 510.167,578.5 510.5,578.5C 512.14,579.79 512.64,581.457 512,583.5C 509.619,584.435 507.119,584.768 504.5,584.5C 503.791,583.596 502.791,583.263 501.5,583.5C 502.29,582.599 503.29,581.932 504.5,581.5C 507.235,582.821 508.902,581.821 509.5,578.5 Z"/></g>
<g><path style="opacity:0.005" fill="#000000" d="M 504.5,584.5 C 504.157,586.225 503.157,586.725 501.5,586C 502.244,584.961 503.244,584.461 504.5,584.5 Z"/></g>
<g><path style="opacity:0.005" fill="#000002" d="M 133.5,580.5 C 136.473,582.147 139.14,584.147 141.5,586.5C 142.167,586.5 142.5,586.833 142.5,587.5C 142.842,588.338 143.508,588.672 144.5,588.5C 144.833,589.833 145.167,589.833 145.5,588.5C 146.5,588.833 147.167,589.5 147.5,590.5C 149.062,590.733 150.395,591.4 151.5,592.5C 152.167,592.5 152.5,592.833 152.5,593.5C 153.492,593.328 154.158,593.662 154.5,594.5C 153.448,594.351 152.448,594.517 151.5,595C 152.766,595.309 153.933,595.809 155,596.5C 155.399,596.272 155.565,595.938 155.5,595.5C 155.833,595.5 156.167,595.5 156.5,595.5C 157.167,595.5 157.5,595.833 157.5,596.5C 157.833,597.833 158.167,597.833 158.5,596.5C 159.167,596.5 159.5,596.833 159.5,597.5C 160.167,597.5 160.5,597.833 160.5,598.5C 160.833,598.5 161.167,598.5 161.5,598.5C 162.167,598.5 162.5,598.833 162.5,599.5C 165.992,600.41 168.992,602.076 171.5,604.5C 171.44,605.043 171.107,605.376 170.5,605.5C 162.755,599.969 153.755,597.969 143.5,599.5C 143.223,596.552 143.556,593.719 144.5,591C 140.633,588.586 136.967,585.919 133.5,583C 132.402,582.23 132.402,581.397 133.5,580.5 Z"/></g>
<g><path style="opacity:0.006" fill="#000000" d="M 493.5,590.5 C 494.525,590.897 494.692,591.563 494,592.5C 493.536,591.906 493.369,591.239 493.5,590.5 Z"/></g>
<g><path style="opacity:0.008" fill="#000100" d="M 487.5,592.5 C 489.031,593.925 488.698,594.591 486.5,594.5C 486.5,594.167 486.5,593.833 486.5,593.5C 486.5,592.833 486.833,592.5 487.5,592.5 Z"/></g>
<g><path style="opacity:0.006" fill="#000000" d="M 484.5,594.5 C 485.167,594.5 485.833,594.5 486.5,594.5C 486.423,595.75 485.756,596.583 484.5,597C 482.701,598.036 481.034,598.203 479.5,597.5C 479.842,596.662 480.508,596.328 481.5,596.5C 482.492,596.672 483.158,596.338 483.5,595.5C 483.5,594.833 483.833,594.5 484.5,594.5 Z"/></g>
<g><path style="opacity:0.004" fill="#010103" d="M 176.5,606.5 C 177.71,606.932 178.71,607.599 179.5,608.5C 178.279,609.465 176.946,609.298 175.5,608C 176.056,607.617 176.389,607.117 176.5,606.5 Z"/></g>
<g><path style="opacity:0.009" fill="#000002" d="M 184.5,610.5 C 185.609,610.557 186.609,610.89 187.5,611.5C 188.167,611.5 188.5,611.833 188.5,612.5C 188.5,612.833 188.5,613.167 188.5,613.5C 186.692,613.509 185.025,613.009 183.5,612C 184.056,611.617 184.389,611.117 184.5,610.5 Z"/></g>
<g><path style="opacity:0.004" fill="#010103" d="M 188.5,613.5 C 188.833,613.5 189.167,613.5 189.5,613.5C 189.315,614.17 188.981,614.17 188.5,613.5 Z"/></g>
<g><path style="opacity:0.008" fill="#010201" d="M 448.5,613.5 C 448.938,613.435 449.272,613.601 449.5,614C 448.069,614.465 446.903,615.299 446,616.5C 445.283,615.956 444.783,615.289 444.5,614.5C 445.708,613.766 447.041,613.433 448.5,613.5 Z"/></g>
<g><path style="opacity:0.004" fill="#020204" d="M 194.5,614.5 C 195.71,614.932 196.71,615.599 197.5,616.5C 196.508,616.328 195.842,616.662 195.5,617.5C 194.005,617.011 192.671,616.345 191.5,615.5C 192.791,615.737 193.791,615.404 194.5,614.5 Z"/></g>
<g><path style="opacity:0.007" fill="#010101" d="M 439.5,616.5 C 440.167,616.5 440.833,616.5 441.5,616.5C 442.738,616.81 442.738,617.31 441.5,618C 439.975,619.009 438.308,619.509 436.5,619.5C 436.5,619.167 436.5,618.833 436.5,618.5C 437.492,618.672 438.158,618.338 438.5,617.5C 439.167,617.5 439.5,617.167 439.5,616.5 Z"/></g>
<g><path style="opacity:0.004" fill="#020204" d="M 197.5,616.5 C 198.167,616.5 198.833,616.5 199.5,616.5C 198.462,618.519 197.128,618.853 195.5,617.5C 196.492,617.672 197.158,617.338 197.5,616.5 Z"/></g>
<g><path style="opacity:0.006" fill="#020204" d="M 202.5,618.5 C 204.965,618.767 207.299,619.434 209.5,620.5C 209.5,620.833 209.5,621.167 209.5,621.5C 208.167,621.5 206.833,621.5 205.5,621.5C 204.306,620.728 203.306,619.728 202.5,618.5 Z"/></g>
<g><path style="opacity:0.006" fill="#010101" d="M 435.5,618.5 C 435.5,619.167 435.833,619.5 436.5,619.5C 435.003,620.306 433.336,620.972 431.5,621.5C 430.893,621.376 430.56,621.043 430.5,620.5C 431.93,619.463 433.597,618.796 435.5,618.5 Z"/></g>
<g><path style="opacity:0.004" fill="#000002" d="M 205.5,621.5 C 205.5,621.833 205.5,622.167 205.5,622.5C 202.833,622.167 202.833,621.833 205.5,621.5 Z"/></g>
<g><path style="opacity:0.004" fill="#010103" d="M 209.5,621.5 C 209.833,621.5 210.167,621.5 210.5,621.5C 210.315,622.17 209.981,622.17 209.5,621.5 Z"/></g>
<g><path style="opacity:0.004" fill="#000002" d="M 205.5,622.5 C 206.239,622.369 206.906,622.536 207.5,623C 206.563,623.692 205.897,623.525 205.5,622.5 Z"/></g>
<g><path style="opacity:0.005" fill="#010101" d="M 422.5,623.5 C 422.842,622.662 423.508,622.328 424.5,622.5C 424.833,623.833 425.167,623.833 425.5,622.5C 425.833,622.5 426.167,622.5 426.5,622.5C 426.783,623.289 427.283,623.956 428,624.5C 429.011,623.663 430.178,623.33 431.5,623.5C 431.5,626.5 431.5,629.5 431.5,632.5C 417.747,632.184 404.08,632.184 390.5,632.5C 392.028,631.691 393.694,631.024 395.5,630.5C 395.833,631.833 396.167,631.833 396.5,630.5C 400.227,629.652 403.893,628.652 407.5,627.5C 407.833,628.833 408.167,628.833 408.5,627.5C 409.167,627.167 409.833,626.833 410.5,626.5C 411.878,627.234 413.378,627.901 415,628.5C 417.333,627.123 419.833,626.123 422.5,625.5C 423.773,624.743 423.773,624.077 422.5,623.5 Z"/></g>
<g><path style="opacity:0.016" fill="#000000" d="M 420.5,623.5 C 420.289,625.424 419.623,625.757 418.5,624.5C 419.167,624.167 419.833,623.833 420.5,623.5 Z"/></g>
<g><path style="opacity:0.005" fill="#000002" d="M 226.5,626.5 C 227.167,626.5 227.833,626.5 228.5,626.5C 229.167,626.5 229.5,626.833 229.5,627.5C 230.167,627.5 230.833,627.5 231.5,627.5C 231.5,627.833 231.5,628.167 231.5,628.5C 229.302,628.88 227.635,628.213 226.5,626.5 Z"/></g>
<g><path style="opacity:0.01" fill="#010103" d="M 234.5,628.5 C 235.609,628.557 236.609,628.89 237.5,629.5C 236.167,630.833 234.833,630.833 233.5,629.5C 234.167,629.5 234.5,629.167 234.5,628.5 Z"/></g>
</svg>
