<?xml version="1.0" encoding="UTF-8"?>
<!DOCTYPE svg PUBLIC "-//W3C//DTD SVG 1.1//EN" "http://www.w3.org/Graphics/SVG/1.1/DTD/svg11.dtd">
<svg xmlns="http://www.w3.org/2000/svg" version="1.1" width="137px" height="137px" style="shape-rendering:geometricPrecision; text-rendering:geometricPrecision; image-rendering:optimizeQuality; fill-rule:evenodd; clip-rule:evenodd" xmlns:xlink="http://www.w3.org/1999/xlink">
<g><path style="opacity:1" fill="#9c010a" d="M 77.5,7.5 C 79.4109,7.5743 80.5776,8.5743 81,10.5C 85.2848,22.0286 89.9514,33.3619 95,44.5C 101.42,40.9566 105.587,42.7899 107.5,50C 105.679,53.3187 103.012,55.8187 99.5,57.5C 105.172,69.8545 109.839,82.5212 113.5,95.5C 112.178,95.67 111.011,95.3366 110,94.5C 98.8333,66.3333 87.6667,38.1667 76.5,10C 76.7432,9.09789 77.0766,8.26456 77.5,7.5 Z"/></g>
<g><path style="opacity:1" fill="#9c010a" d="M 74.5,13.5 C 85.9818,39.8191 96.9818,66.4858 107.5,93.5C 107.333,93.8333 107.167,94.1667 107,94.5C 86.2673,83.2211 64.7673,81.5545 42.5,89.5C 41.479,90.0016 41.3123,90.6683 42,91.5C 45.9006,93.5794 47.5673,96.9127 47,101.5C 49.575,104.319 51.9083,107.319 54,110.5C 56.6338,112.559 59.1338,114.725 61.5,117C 58.2742,120.892 54.4409,124.058 50,126.5C 48.0448,125.547 46.3782,124.213 45,122.5C 38.8803,114.045 32.3803,105.879 25.5,98C 22.3378,97.3985 19.3378,97.8985 16.5,99.5C 15.5581,99.3918 14.7247,99.0585 14,98.5C 10.8333,90.3333 7.66667,82.1667 4.5,74C 5.52016,71.9743 7.18682,70.6409 9.5,70C 33.6506,63.8116 52.8173,50.6449 67,30.5C 70.372,25.2173 72.872,19.5506 74.5,13.5 Z M 49.5,118.5 C 53.4742,120.581 53.1409,121.914 48.5,122.5C 48.4326,121.041 48.7659,119.708 49.5,118.5 Z"/></g>
<g><path style="opacity:1" fill="#9c010a" d="M 0.5,75.5 C 1.74975,75.5774 2.58309,76.244 3,77.5C 5.73554,84.54 8.56888,91.54 11.5,98.5C 11.1667,98.8333 10.8333,99.1667 10.5,99.5C 5.27483,95.0558 2.10817,89.3892 1,82.5C 0.503354,80.1902 0.336688,77.8568 0.5,75.5 Z"/></g>
<g><path style="opacity:1" fill="#9c010a" d="M 63.5,100.5 C 66.8499,100.335 70.1832,100.502 73.5,101C 74.2106,102.255 75.044,103.421 76,104.5C 76.4652,103.069 77.2986,101.903 78.5,101C 81.4816,100.502 84.4816,100.335 87.5,100.5C 84.2318,109.04 80.3984,117.373 76,125.5C 71.2951,117.423 67.1284,109.09 63.5,100.5 Z"/></g>
<g><path style="opacity:1" fill="#9c010a" d="M 111.5,100.5 C 114.518,100.335 117.518,100.502 120.5,101C 121.618,102.074 122.618,103.24 123.5,104.5C 124.415,103.672 125.081,102.672 125.5,101.5C 128.833,100.167 132.167,100.167 135.5,101.5C 133.5,105.5 131.5,109.5 129.5,113.5C 131.754,117.007 133.754,120.673 135.5,124.5C 132.216,125.657 128.882,125.824 125.5,125C 124.167,121.667 122.833,121.667 121.5,125C 118.118,125.824 114.784,125.657 111.5,124.5C 113.443,120.947 115.11,117.281 116.5,113.5C 114.539,109.251 112.872,104.917 111.5,100.5 Z"/></g>
<g><path style="opacity:1" fill="#9c010a" d="M 94.5,101.5 C 106.771,99.9385 112.271,105.272 111,117.5C 105.718,126.111 98.8842,127.611 90.5,122C 85.5257,113.86 86.859,107.027 94.5,101.5 Z M 97.5,111.5 C 98.8333,111.5 100.167,111.5 101.5,111.5C 101.833,114.5 100.5,115.833 97.5,115.5C 97.5,114.167 97.5,112.833 97.5,111.5 Z"/></g>
</svg>
