<?xml version="1.0" encoding="UTF-8"?>
<svg xmlns="http://www.w3.org/2000/svg" xmlns:xlink="http://www.w3.org/1999/xlink" width="44px" height="44px" viewBox="0 0 44 44" version="1.1">
<defs>
<filter id="alpha" filterUnits="objectBoundingBox" x="0%" y="0%" width="100%" height="100%">
  <feColorMatrix type="matrix" in="SourceGraphic" values="0 0 0 0 1 0 0 0 0 1 0 0 0 0 1 0 0 0 1 0"/>
</filter>
<mask id="mask0">
  <g filter="url(#alpha)">
<rect x="0" y="0" width="44" height="44" style="fill:rgb(0%,0%,0%);fill-opacity:0.992157;stroke:none;"/>
  </g>
</mask>
<clipPath id="clip1">
  <rect x="0" y="0" width="44" height="44"/>
</clipPath>
<g id="surface5" clip-path="url(#clip1)">
<path style=" stroke:none;fill-rule:evenodd;fill:rgb(100%,100%,100%);fill-opacity:1;" d="M 3.996094 1.332031 C 15.96875 1.316406 27.945312 1.332031 39.917969 1.375 C 41.308594 1.734375 42.179688 2.605469 42.539062 3.996094 C 42.597656 14.136719 42.597656 24.277344 42.539062 34.417969 C 42.453125 35.007812 42.179688 35.480469 41.722656 35.835938 C 41.136719 35.988281 40.792969 35.773438 40.691406 35.191406 C 40.921875 34.699219 41.078125 34.183594 41.164062 33.644531 C 41.207031 24.707031 41.222656 15.769531 41.207031 6.832031 C 28.375 6.832031 15.539062 6.832031 2.707031 6.832031 C 2.691406 15.769531 2.707031 24.707031 2.75 33.644531 C 2.90625 34.832031 3.582031 35.507812 4.769531 35.664062 C 12.820312 35.691406 20.867188 35.722656 28.917969 35.75 C 29.347656 36.070312 29.421875 36.457031 29.132812 36.910156 C 29.070312 36.964844 28.996094 37.007812 28.917969 37.039062 C 20.609375 37.097656 12.304688 37.097656 3.996094 37.039062 C 2.605469 36.679688 1.734375 35.808594 1.375 34.417969 C 1.316406 24.277344 1.316406 14.136719 1.375 3.996094 C 1.75 2.605469 2.621094 1.71875 3.996094 1.332031 Z M 4.769531 2.707031 C 13.25 2.707031 21.726562 2.707031 30.207031 2.707031 C 30.207031 3.625 30.207031 4.539062 30.207031 5.457031 C 21.039062 5.457031 11.875 5.457031 2.707031 5.457031 C 2.59375 3.914062 3.28125 2.996094 4.769531 2.707031 Z M 31.582031 2.707031 C 34.277344 2.667969 36.96875 2.710938 39.660156 2.835938 C 40.824219 3.3125 41.339844 4.1875 41.207031 5.457031 C 38 5.457031 34.789062 5.457031 31.582031 5.457031 C 31.582031 4.539062 31.582031 3.625 31.582031 2.707031 Z M 31.582031 2.707031 "/>
</g>
<mask id="mask1">
  <g filter="url(#alpha)">
<rect x="0" y="0" width="44" height="44" style="fill:rgb(0%,0%,0%);fill-opacity:0.933333;stroke:none;"/>
  </g>
</mask>
<clipPath id="clip2">
  <rect x="0" y="0" width="44" height="44"/>
</clipPath>
<g id="surface8" clip-path="url(#clip2)">
<path style=" stroke:none;fill-rule:evenodd;fill:rgb(100%,100%,100%);fill-opacity:1;" d="M 31.238281 10.957031 C 32.84375 10.941406 34.445312 10.957031 36.050781 11 C 36.128906 11.03125 36.203125 11.074219 36.265625 11.128906 C 36.363281 11.980469 36.40625 12.839844 36.394531 13.707031 C 36.378906 14.507812 36.367188 15.3125 36.351562 16.113281 C 36.320312 16.191406 36.277344 16.265625 36.222656 16.328125 C 35.949219 16.457031 35.660156 16.484375 35.363281 16.414062 C 35.207031 16.371094 35.105469 16.269531 35.0625 16.113281 C 35.035156 15.253906 35.003906 14.394531 34.976562 13.535156 C 31.464844 17.191406 27.984375 20.871094 24.535156 24.578125 C 24.191406 24.75 23.847656 24.75 23.503906 24.578125 C 22.542969 23.601562 21.570312 22.644531 20.582031 21.699219 C 19.367188 22.871094 18.164062 24.0625 16.972656 25.265625 C 15.925781 25.59375 15.570312 25.238281 15.898438 24.191406 C 17.320312 22.742188 18.765625 21.324219 20.238281 19.9375 C 20.535156 19.867188 20.824219 19.894531 21.097656 20.023438 C 22.042969 20.96875 22.988281 21.914062 23.933594 22.859375 C 23.992188 22.917969 24.046875 22.917969 24.105469 22.859375 C 27.378906 19.347656 30.675781 15.851562 33.988281 12.375 C 33.007812 12.371094 32.03125 12.3125 31.066406 12.203125 C 30.902344 11.921875 30.859375 11.621094 30.9375 11.300781 C 30.996094 11.140625 31.097656 11.027344 31.238281 10.957031 Z M 31.238281 10.957031 "/>
</g>
<mask id="mask2">
  <g filter="url(#alpha)">
<rect x="0" y="0" width="44" height="44" style="fill:rgb(0%,0%,0%);fill-opacity:0.929412;stroke:none;"/>
  </g>
</mask>
<clipPath id="clip3">
  <rect x="0" y="0" width="44" height="44"/>
</clipPath>
<g id="surface11" clip-path="url(#clip3)">
<path style=" stroke:none;fill-rule:evenodd;fill:rgb(100%,100%,100%);fill-opacity:1;" d="M 21.785156 12.933594 C 24.375 12.941406 26.652344 13.773438 28.617188 15.425781 C 28.808594 16.207031 28.507812 16.566406 27.714844 16.5 C 24 13.777344 20.246094 13.71875 16.457031 16.328125 C 13.339844 19.035156 12.382812 22.375 13.578125 26.339844 C 15.382812 30.472656 18.546875 32.40625 23.074219 32.140625 C 26.824219 31.484375 29.300781 29.351562 30.507812 25.738281 C 30.9375 23.964844 30.894531 22.203125 30.378906 20.453125 C 30.550781 19.792969 30.953125 19.59375 31.582031 19.851562 C 31.714844 19.988281 31.816406 20.144531 31.882812 20.324219 C 32.84375 23.949219 32.140625 27.199219 29.777344 30.078125 C 30.394531 30.695312 31.007812 31.308594 31.625 31.925781 C 32.546875 31.484375 33.476562 31.46875 34.417969 31.882812 C 36.460938 33.554688 38.480469 35.257812 40.476562 36.996094 C 41.144531 37.765625 41.371094 38.652344 41.164062 39.660156 C 41.0625 40.066406 40.890625 40.4375 40.648438 40.777344 C 40.171875 41.28125 39.671875 41.753906 39.144531 42.195312 C 37.761719 42.863281 36.515625 42.675781 35.40625 41.636719 C 33.742188 39.714844 32.109375 37.765625 30.507812 35.792969 C 30.265625 35.351562 30.164062 34.878906 30.207031 34.375 C 30.210938 33.855469 30.28125 33.355469 30.421875 32.871094 C 29.847656 32.296875 29.277344 31.726562 28.703125 31.152344 C 26.199219 33.265625 23.320312 34.054688 20.066406 33.515625 C 15.367188 32.394531 12.574219 29.460938 11.6875 24.707031 C 11.28125 20.144531 13.015625 16.664062 16.886719 14.265625 C 18.433594 13.457031 20.066406 13.011719 21.785156 12.933594 Z M 32.957031 32.957031 C 33.257812 33.007812 33.542969 33.109375 33.816406 33.257812 C 35.746094 34.871094 37.652344 36.519531 39.53125 38.199219 C 39.902344 38.785156 39.871094 39.359375 39.445312 39.917969 C 39.144531 40.21875 38.84375 40.519531 38.542969 40.820312 C 37.976562 41.25 37.40625 41.28125 36.824219 40.90625 C 35.175781 39.054688 33.558594 37.175781 31.96875 35.277344 C 31.375 34.09375 31.703125 33.320312 32.957031 32.957031 Z M 32.957031 32.957031 "/>
</g>
</defs>
<g id="surface1">
<use xlink:href="#surface5" mask="url(#mask0)"/>
<use xlink:href="#surface8" mask="url(#mask1)"/>
<use xlink:href="#surface11" mask="url(#mask2)"/>
</g>
</svg>
